<?xml version="1.0" encoding="utf-8" standalone="no"?>
<!DOCTYPE svg PUBLIC "-//W3C//DTD SVG 1.1//EN"
  "http://www.w3.org/Graphics/SVG/1.1/DTD/svg11.dtd">
<!-- Created with matplotlib (https://matplotlib.org/) -->
<svg height="345.6pt" version="1.1" viewBox="0 0 460.8 345.6" width="460.8pt" xmlns="http://www.w3.org/2000/svg" xmlns:xlink="http://www.w3.org/1999/xlink">
 <defs>
  <style type="text/css">
*{stroke-linecap:butt;stroke-linejoin:round;}
  </style>
 </defs>
 <g id="figure_1">
  <g id="patch_1">
   <path d="M 0 345.6 
L 460.8 345.6 
L 460.8 0 
L 0 0 
z
" style="fill:none;opacity:0;"/>
  </g>
  <g id="axes_1">
   <g id="patch_2">
    <path d="M 216.099147 25.775592 
C 196.465537 25.775592 177.037832 29.791588 159.013391 37.576069 
C 140.98895 45.36055 124.74583 56.750239 111.28512 71.04317 
C 97.824409 85.336102 87.428443 102.232487 80.73794 120.690976 
C 74.047437 139.149464 71.202728 158.782894 72.379138 178.381228 
C 73.555548 197.979562 78.728402 217.131729 87.578888 234.657354 
C 96.429374 252.182979 108.771856 267.714465 123.845649 280.294584 
C 138.919442 292.874703 156.408376 302.239591 175.234583 307.812074 
C 194.06079 313.384558 213.829394 315.047756 233.322027 312.699163 
L 216.099147 169.754288 
L 216.099147 25.775592 
z
" style="fill:#66c2a5;"/>
   </g>
   <g id="patch_3">
    <path d="M 257.438753 322.435477 
C 287.38701 318.827127 315.457237 305.896774 337.663128 285.480684 
C 359.869018 265.064594 375.107173 238.177231 381.213593 208.636921 
L 240.215873 179.490602 
L 257.438753 322.435477 
z
" style="fill:#fc8d62;"/>
   </g>
   <g id="patch_4">
    <path d="M 385.634476 195.46222 
C 389.373745 177.373197 389.597272 158.732452 386.292837 140.558966 
C 382.988402 122.38548 376.217335 105.016544 366.349769 89.401614 
L 244.636756 166.3159 
L 385.634476 195.46222 
z
" style="fill:#8da0cb;"/>
   </g>
   <g id="patch_5">
    <path d="M 352.184161 91.977307 
C 347.261647 84.187675 341.602676 76.888562 335.285164 70.180465 
C 328.967653 63.472369 322.020728 57.386218 314.540038 52.005809 
L 230.471148 168.891594 
L 352.184161 91.977307 
z
" style="fill:#e78ac3;"/>
   </g>
   <g id="patch_6">
    <path d="M 314.540038 52.005809 
C 309.866788 48.644622 304.996163 45.566722 299.9544 42.788689 
C 294.912637 40.010655 289.708804 37.537485 284.370931 35.382499 
L 230.471148 168.891594 
L 314.540038 52.005809 
z
" style="fill:#a6d854;"/>
   </g>
   <g id="patch_7">
    <path d="M 284.370931 35.382499 
C 275.82635 31.932913 266.970306 29.31156 257.924735 27.55453 
C 248.879163 25.797501 239.68577 24.912897 230.471134 24.912898 
L 230.471148 168.891594 
L 284.370931 35.382499 
z
" style="fill:#ffd92f;"/>
   </g>
   <g id="matplotlib.axis_1"/>
   <g id="matplotlib.axis_2"/>
   <g id="text_1">
    <!-- China -->
    <defs>
     <path d="M 76.703125 19.40625 
Q 64.90625 4.203125 44.296875 4.203125 
Q 26.90625 4.203125 15.796875 15.203125 
Q 4.703125 26.203125 4.703125 43 
Q 4.703125 53.40625 9.84375 62.203125 
Q 15 71 24.09375 76 
Q 33.203125 81 43.75 81 
Q 54.296875 81 62.640625 76.953125 
Q 71 72.90625 76.59375 65.09375 
L 70 60 
Q 59.59375 72.59375 44.296875 72.59375 
Q 31.796875 72.59375 22.75 63.796875 
Q 13.703125 55 13.703125 42.25 
Q 13.703125 29.5 22.546875 20.953125 
Q 31.40625 12.40625 45.5 12.40625 
Q 59.59375 12.40625 70 24.5 
z
" id="STHeitiTC-Medium-67"/>
     <path d="M 54.703125 6 
L 46.40625 6 
L 46.40625 32 
Q 46.40625 39.59375 45.953125 42.6875 
Q 45.5 45.796875 43.890625 48.546875 
Q 42.296875 51.296875 39.546875 52.75 
Q 36.796875 54.203125 32.9375 54.203125 
Q 29.09375 54.203125 25.59375 52.390625 
Q 22.09375 50.59375 19.59375 47.390625 
Q 17.09375 44.203125 16.140625 40.59375 
Q 15.203125 37 15.203125 26.203125 
L 15.203125 6 
L 6.90625 6 
L 6.90625 81 
L 15.203125 81 
L 15.203125 52.296875 
Q 23.296875 61.90625 34.40625 61.90625 
Q 40.296875 61.90625 45.09375 58.84375 
Q 49.90625 55.796875 52.296875 50.4375 
Q 54.703125 45.09375 54.703125 34 
z
" id="STHeitiTC-Medium-104"/>
     <path d="M 10 81 
Q 12.703125 81 14.546875 79.140625 
Q 16.40625 77.296875 16.40625 74.640625 
Q 16.40625 72 14.546875 70.140625 
Q 12.703125 68.296875 10.046875 68.296875 
Q 7.40625 68.296875 5.546875 70.1875 
Q 3.703125 72.09375 3.703125 74.640625 
Q 3.703125 77.203125 5.546875 79.09375 
Q 7.40625 81 10 81 
z
M 14.203125 6 
L 5.90625 6 
L 5.90625 60.5 
L 14.203125 60.5 
z
" id="STHeitiTC-Medium-105"/>
     <path d="M 54.703125 6 
L 46.5 6 
L 46.5 32 
Q 46.5 41 45.640625 44.25 
Q 44.796875 47.5 43.140625 49.75 
Q 41.5 52 38.953125 53.09375 
Q 36.40625 54.203125 32.75 54.203125 
Q 29.09375 54.203125 25.59375 52.390625 
Q 22.09375 50.59375 19.59375 47.390625 
Q 17.09375 44.203125 16.140625 40.59375 
Q 15.203125 37 15.203125 26.203125 
L 15.203125 6 
L 6.90625 6 
L 6.90625 60.5 
L 15.203125 60.5 
L 15.203125 52.296875 
Q 23.296875 61.90625 34.40625 61.90625 
Q 40.296875 61.90625 45.09375 58.84375 
Q 49.90625 55.796875 52.296875 50.4375 
Q 54.703125 45.09375 54.703125 34 
z
" id="STHeitiTC-Medium-110"/>
     <path d="M 61.203125 6 
L 53.09375 6 
L 53.09375 14 
Q 44.203125 4.203125 32.59375 4.203125 
Q 21 4.203125 12.75 12.75 
Q 4.5 21.296875 4.5 33.140625 
Q 4.5 45 12.796875 53.453125 
Q 21.09375 61.90625 33.046875 61.90625 
Q 45 61.90625 53.09375 52.203125 
L 53.09375 60.5 
L 61.203125 60.5 
z
M 33.203125 11.90625 
Q 41.5 11.90625 47.5 17.90625 
Q 53.5 23.90625 53.5 32.84375 
Q 53.5 41.796875 47.59375 47.84375 
Q 41.703125 53.90625 33.140625 53.90625 
Q 24.59375 53.90625 18.6875 47.65625 
Q 12.796875 41.40625 12.796875 32.90625 
Q 12.796875 24.40625 18.796875 18.15625 
Q 24.796875 11.90625 33.203125 11.90625 
z
" id="STHeitiTC-Medium-97"/>
    </defs>
    <g transform="translate(28.847762 182.629078)scale(0.1 -0.1)">
     <use xlink:href="#STHeitiTC-Medium-67"/>
     <use x="81.299988" xlink:href="#STHeitiTC-Medium-104"/>
     <use x="142.299973" xlink:href="#STHeitiTC-Medium-105"/>
     <use x="162.299957" xlink:href="#STHeitiTC-Medium-110"/>
     <use x="223.299942" xlink:href="#STHeitiTC-Medium-97"/>
    </g>
   </g>
   <g id="text_2">
    <!-- 51.9% -->
    <defs>
     <path d="M 49.90625 71 
L 24.203125 71 
L 20.90625 53.09375 
Q 25.203125 54.203125 29 54.203125 
Q 38.703125 54.203125 45.203125 47.34375 
Q 51.703125 40.5 51.703125 29.890625 
Q 51.703125 19.296875 44.703125 11.75 
Q 37.703125 4.203125 26 4.203125 
Q 17 4.203125 10.796875 9.703125 
Q 4.59375 15.203125 3.296875 24.796875 
L 12 24.796875 
Q 13.296875 18.796875 17.296875 15.59375 
Q 21.296875 12.40625 26.40625 12.40625 
Q 33.203125 12.40625 38.09375 17.546875 
Q 43 22.703125 43 30.296875 
Q 43 37.09375 38.75 41.5 
Q 34.5 45.90625 27.296875 45.90625 
Q 20.09375 45.90625 10.5 41.796875 
L 17.5 79.203125 
L 49.90625 79.203125 
z
" id="STHeitiTC-Medium-53"/>
     <path d="M 33.296875 6 
L 24.796875 6 
L 24.796875 70.796875 
L 12.90625 70.796875 
L 18.09375 79.203125 
L 33.296875 79.203125 
z
" id="STHeitiTC-Medium-49"/>
     <path d="M 15.09375 23.09375 
Q 17.90625 23.09375 19.84375 21.140625 
Q 21.796875 19.203125 21.796875 16.34375 
Q 21.796875 13.5 19.84375 11.546875 
Q 17.90625 9.59375 15.15625 9.59375 
Q 12.40625 9.59375 10.40625 11.59375 
Q 8.40625 13.59375 8.40625 16.390625 
Q 8.40625 19.203125 10.40625 21.140625 
Q 12.40625 23.09375 15.09375 23.09375 
z
" id="STHeitiTC-Medium-46"/>
     <path d="M 31 36.796875 
Q 28.09375 36.09375 25.203125 36.09375 
Q 16.296875 36.09375 10.25 42.4375 
Q 4.203125 48.796875 4.203125 58.390625 
Q 4.203125 68 10.890625 74.5 
Q 17.59375 81 27.296875 81 
Q 37 81 43.390625 74.34375 
Q 49.796875 67.703125 49.796875 58.40625 
Q 49.796875 53.296875 47.6875 48.140625 
Q 45.59375 43 41.59375 37 
L 19.5 3.90625 
L 12.296875 8.5 
z
M 27 43.796875 
Q 33 43.796875 37.203125 48.046875 
Q 41.40625 52.296875 41.40625 58.1875 
Q 41.40625 64.09375 37.203125 68.34375 
Q 33 72.59375 27 72.59375 
Q 21 72.59375 16.796875 68.390625 
Q 12.59375 64.203125 12.59375 58.203125 
Q 12.59375 52.203125 16.796875 48 
Q 21 43.796875 27 43.796875 
z
" id="STHeitiTC-Medium-57"/>
     <path d="M 68.703125 87.40625 
L 15.5 6 
L 7.296875 6 
L 54.703125 78.5 
Q 47.203125 76.796875 35.59375 76.796875 
L 34.40625 76.796875 
Q 36.703125 72.90625 36.703125 68.703125 
Q 36.703125 61.203125 31.640625 55.953125 
Q 26.59375 50.703125 19.140625 50.703125 
Q 11.703125 50.703125 6.59375 55.796875 
Q 1.5 60.90625 1.5 68.34375 
Q 1.5 75.796875 6.75 80.84375 
Q 12 85.90625 18.90625 85.90625 
Q 21.59375 85.90625 26.59375 84.84375 
Q 31.59375 83.796875 38.90625 83.796875 
Q 50.5 83.796875 61.59375 87.40625 
z
M 19.09375 58.40625 
Q 23.296875 58.40625 26.25 61.296875 
Q 29.203125 64.203125 29.203125 68.390625 
Q 29.203125 72.59375 26.25 75.5 
Q 23.296875 78.40625 19.140625 78.40625 
Q 15 78.40625 12.046875 75.453125 
Q 9.09375 72.5 9.09375 68.390625 
Q 9.09375 64.296875 12.046875 61.34375 
Q 15 58.40625 19.09375 58.40625 
z
M 58.296875 44.09375 
Q 65.59375 44.09375 70.75 38.9375 
Q 75.90625 33.796875 75.90625 26.5 
Q 75.90625 19.203125 70.75 14.046875 
Q 65.59375 8.90625 58.34375 8.90625 
Q 51.09375 8.90625 45.9375 14.046875 
Q 40.796875 19.203125 40.796875 26.453125 
Q 40.796875 33.703125 45.9375 38.890625 
Q 51.09375 44.09375 58.296875 44.09375 
z
M 58.296875 16.5 
Q 62.5 16.5 65.453125 19.390625 
Q 68.40625 22.296875 68.40625 26.4375 
Q 68.40625 30.59375 65.453125 33.546875 
Q 62.5 36.5 58.34375 36.5 
Q 54.203125 36.5 51.296875 33.546875 
Q 48.40625 30.59375 48.40625 26.5 
Q 48.40625 22.40625 51.296875 19.453125 
Q 54.203125 16.5 58.296875 16.5 
z
" id="STHeitiTC-Medium-37"/>
    </defs>
    <g transform="translate(116.296048 178.315608)scale(0.1 -0.1)">
     <use xlink:href="#STHeitiTC-Medium-53"/>
     <use x="55.399994" xlink:href="#STHeitiTC-Medium-49"/>
     <use x="110.799988" xlink:href="#STHeitiTC-Medium-46"/>
     <use x="138.499985" xlink:href="#STHeitiTC-Medium-57"/>
     <use x="193.899979" xlink:href="#STHeitiTC-Medium-37"/>
    </g>
   </g>
   <g id="text_3">
    <!-- Japan -->
    <defs>
     <path d="M 40.203125 30 
Q 40.203125 19.90625 38.640625 15 
Q 37.09375 10.09375 32.640625 7.140625 
Q 28.203125 4.203125 23.046875 4.203125 
Q 17.90625 4.203125 13.546875 5.796875 
Q 9.203125 7.40625 3.296875 12.5 
L 7.90625 19.296875 
Q 13.703125 15.09375 16.703125 13.6875 
Q 19.703125 12.296875 22.546875 12.296875 
Q 25.40625 12.296875 27.796875 14.390625 
Q 30.203125 16.5 30.84375 19.84375 
Q 31.5 23.203125 31.5 30.296875 
L 31.5 79.203125 
L 40.203125 79.203125 
z
" id="STHeitiTC-Medium-74"/>
     <path d="M 15.203125 52.203125 
Q 23.296875 61.90625 35.1875 61.90625 
Q 47.09375 61.90625 55.390625 53.453125 
Q 63.703125 45 63.703125 33.09375 
Q 63.703125 21.203125 55.5 12.703125 
Q 47.296875 4.203125 35.6875 4.203125 
Q 24.09375 4.203125 15.203125 14 
L 15.203125 -13.296875 
L 7 -13.296875 
L 7 60.5 
L 15.203125 60.5 
z
M 35.203125 11.90625 
Q 43.40625 11.90625 49.453125 18.046875 
Q 55.5 24.203125 55.5 32.890625 
Q 55.5 41.59375 49.546875 47.75 
Q 43.59375 53.90625 35 53.90625 
Q 26.40625 53.90625 20.546875 47.84375 
Q 14.703125 41.796875 14.703125 32.890625 
Q 14.703125 24 20.703125 17.953125 
Q 26.703125 11.90625 35.203125 11.90625 
z
" id="STHeitiTC-Medium-112"/>
    </defs>
    <g transform="translate(347.407853 299.464849)scale(0.1 -0.1)">
     <use xlink:href="#STHeitiTC-Medium-74"/>
     <use x="48.199997" xlink:href="#STHeitiTC-Medium-97"/>
     <use x="116.499985" xlink:href="#STHeitiTC-Medium-112"/>
     <use x="184.699966" xlink:href="#STHeitiTC-Medium-97"/>
     <use x="252.999954" xlink:href="#STHeitiTC-Medium-110"/>
    </g>
   </g>
   <g id="text_4">
    <!-- 19.8% -->
    <defs>
     <path d="M 39.796875 46.09375 
Q 52.703125 39.40625 52.703125 27.296875 
Q 52.703125 17.40625 45.75 10.796875 
Q 38.796875 4.203125 27.546875 4.203125 
Q 16.296875 4.203125 9.5 10.796875 
Q 2.703125 17.40625 2.703125 26.703125 
Q 2.703125 39.296875 15.90625 46.09375 
Q 6.09375 51.796875 6.09375 61.59375 
Q 6.09375 69.296875 12.5 75.140625 
Q 18.90625 81 27.84375 81 
Q 36.796875 81 43.09375 75.296875 
Q 49.40625 69.59375 49.40625 61.40625 
Q 49.40625 51.90625 39.796875 46.09375 
z
M 28 49.703125 
Q 33.09375 49.703125 36.9375 53.296875 
Q 40.796875 56.90625 40.796875 61.546875 
Q 40.796875 66.203125 37.1875 69.453125 
Q 33.59375 72.703125 27.890625 72.703125 
Q 22.203125 72.703125 18.5 69.453125 
Q 14.796875 66.203125 14.796875 61.546875 
Q 14.796875 56.90625 18.796875 53.296875 
Q 22.796875 49.703125 28 49.703125 
z
M 27.703125 12.40625 
Q 34.90625 12.40625 39.5 16.703125 
Q 44.09375 21 44.09375 27 
Q 44.09375 33 39.34375 37.390625 
Q 34.59375 41.796875 27.84375 41.796875 
Q 21.09375 41.796875 16.1875 37.25 
Q 11.296875 32.703125 11.296875 26.546875 
Q 11.296875 20.40625 15.84375 16.40625 
Q 20.40625 12.40625 27.703125 12.40625 
z
" id="STHeitiTC-Medium-56"/>
    </defs>
    <g transform="translate(285.113132 246.469808)scale(0.1 -0.1)">
     <use xlink:href="#STHeitiTC-Medium-49"/>
     <use x="55.399994" xlink:href="#STHeitiTC-Medium-57"/>
     <use x="110.799988" xlink:href="#STHeitiTC-Medium-46"/>
     <use x="138.499985" xlink:href="#STHeitiTC-Medium-56"/>
     <use x="193.899979" xlink:href="#STHeitiTC-Medium-37"/>
    </g>
   </g>
   <g id="text_5">
    <!-- USA -->
    <defs>
     <path d="M 57.203125 35.203125 
Q 57.203125 24.09375 54.953125 18.140625 
Q 52.703125 12.203125 46.953125 8.203125 
Q 41.203125 4.203125 33.5 4.203125 
Q 27.40625 4.203125 22.5 6.140625 
Q 17.59375 8.09375 14.34375 11.640625 
Q 11.09375 15.203125 9.6875 19.546875 
Q 8.296875 23.90625 8.296875 35.203125 
L 8.296875 79.203125 
L 16.90625 79.203125 
L 16.90625 35.203125 
Q 16.90625 28.09375 17.296875 24.9375 
Q 17.703125 21.796875 19.59375 18.84375 
Q 21.5 15.90625 25.046875 14.15625 
Q 28.59375 12.40625 33.09375 12.40625 
Q 38.5 12.40625 42.453125 15.546875 
Q 46.40625 18.703125 47.546875 22.84375 
Q 48.703125 27 48.703125 35.203125 
L 48.703125 79.203125 
L 57.203125 79.203125 
z
" id="STHeitiTC-Medium-85"/>
     <path d="M 36.203125 63.09375 
Q 32.203125 68.5 29.390625 70.34375 
Q 26.59375 72.203125 22.84375 72.203125 
Q 19.09375 72.203125 16.546875 69.796875 
Q 14 67.40625 14 63.65625 
Q 14 59.90625 16.390625 57.09375 
Q 18.796875 54.296875 27.4375 47.9375 
Q 36.09375 41.59375 40.09375 36 
Q 44.09375 30.40625 44.09375 24.203125 
Q 44.09375 16.09375 37.84375 10.140625 
Q 31.59375 4.203125 23.296875 4.203125 
Q 8.703125 4.203125 0.40625 20.5 
L 7.703125 24.703125 
Q 14.203125 12.59375 22.296875 12.59375 
Q 27.5 12.59375 31.203125 15.890625 
Q 34.90625 19.203125 34.90625 23.59375 
Q 34.90625 28 31.796875 31.953125 
Q 28.703125 35.90625 21.09375 41.65625 
Q 13.5 47.40625 10.640625 50.40625 
Q 7.796875 53.40625 6.5 56.796875 
Q 5.203125 60.203125 5.203125 63.59375 
Q 5.203125 70.90625 10.25 75.953125 
Q 15.296875 81 23.296875 81 
Q 29.5 81 34.09375 77.84375 
Q 38.703125 74.703125 43.09375 68.5 
z
" id="STHeitiTC-Medium-83"/>
     <path d="M 72.59375 6 
L 63.5 6 
L 52.203125 30.5 
L 22 30.5 
L 10.796875 6 
L 1.296875 6 
L 35.90625 82.09375 
L 38.5 82.09375 
z
M 48.296875 39.203125 
L 37.203125 63.90625 
L 26 39.203125 
z
" id="STHeitiTC-Medium-65"/>
    </defs>
    <g transform="translate(400.458445 141.368429)scale(0.1 -0.1)">
     <use xlink:href="#STHeitiTC-Medium-85"/>
     <use x="65.499985" xlink:href="#STHeitiTC-Medium-83"/>
     <use x="115.299973" xlink:href="#STHeitiTC-Medium-65"/>
    </g>
   </g>
   <g id="text_6">
    <!-- 12.2% -->
    <defs>
     <path d="M 52.5 6 
L 1.40625 6 
L 29.90625 36.796875 
Q 37.09375 44.40625 40.09375 48.796875 
Q 43.09375 53.203125 43.09375 58.796875 
Q 43.09375 64.40625 38.75 68.59375 
Q 34.40625 72.796875 27.953125 72.796875 
Q 21.5 72.796875 17.203125 68.25 
Q 12.90625 63.703125 12.296875 55.296875 
L 4 55.296875 
Q 4.5 67.09375 11.5 74.046875 
Q 18.5 81 28.453125 81 
Q 38.40625 81 44.953125 74.546875 
Q 51.5 68.09375 51.5 58.796875 
Q 51.5 52 47.890625 46.09375 
Q 44.296875 40.203125 37 32.40625 
L 20.203125 14.296875 
L 52.5 14.296875 
z
" id="STHeitiTC-Medium-50"/>
    </defs>
    <g transform="translate(316.059311 154.246896)scale(0.1 -0.1)">
     <use xlink:href="#STHeitiTC-Medium-49"/>
     <use x="55.399994" xlink:href="#STHeitiTC-Medium-50"/>
     <use x="110.799988" xlink:href="#STHeitiTC-Medium-46"/>
     <use x="138.499985" xlink:href="#STHeitiTC-Medium-50"/>
     <use x="193.899979" xlink:href="#STHeitiTC-Medium-37"/>
    </g>
   </g>
   <g id="text_7">
    <!-- UK -->
    <defs>
     <path d="M 58.703125 6 
L 47.296875 6 
L 16.796875 38.40625 
L 16.796875 6 
L 8 6 
L 8 79.203125 
L 16.796875 79.203125 
L 16.796875 53.203125 
L 44.40625 79.203125 
L 56.203125 79.203125 
L 20.90625 46.296875 
z
" id="STHeitiTC-Medium-75"/>
    </defs>
    <g transform="translate(345.766566 63.694509)scale(0.1 -0.1)">
     <use xlink:href="#STHeitiTC-Medium-85"/>
     <use x="65.499985" xlink:href="#STHeitiTC-Medium-75"/>
    </g>
   </g>
   <g id="text_8">
    <!-- 6.1% -->
    <defs>
     <path d="M 24.90625 48.40625 
Q 28.09375 49.296875 31 49.296875 
Q 39.296875 49.296875 45.5 42.6875 
Q 51.703125 36.09375 51.703125 26.6875 
Q 51.703125 17.296875 45 10.75 
Q 38.296875 4.203125 28.59375 4.203125 
Q 18.90625 4.203125 12.453125 10.796875 
Q 6 17.40625 6 26.90625 
Q 6 31.5 7.796875 36.34375 
Q 9.59375 41.203125 14.296875 48.203125 
L 36.5 81.296875 
L 43.703125 76.796875 
z
M 28.796875 12.59375 
Q 34.703125 12.59375 38.953125 16.796875 
Q 43.203125 21 43.203125 27 
Q 43.203125 33 39 37.203125 
Q 34.796875 41.40625 28.796875 41.40625 
Q 22.796875 41.40625 18.59375 37.203125 
Q 14.40625 33 14.40625 27 
Q 14.40625 21 18.65625 16.796875 
Q 22.90625 12.59375 28.796875 12.59375 
z
" id="STHeitiTC-Medium-54"/>
    </defs>
    <g transform="translate(282.558776 113.050073)scale(0.1 -0.1)">
     <use xlink:href="#STHeitiTC-Medium-54"/>
     <use x="55.399994" xlink:href="#STHeitiTC-Medium-46"/>
     <use x="83.099991" xlink:href="#STHeitiTC-Medium-49"/>
     <use x="138.499985" xlink:href="#STHeitiTC-Medium-37"/>
    </g>
   </g>
   <g id="text_9">
    <!-- Germany -->
    <defs>
     <path d="M 83.203125 41.796875 
Q 82.90625 24 72.84375 14.09375 
Q 62.796875 4.203125 46.40625 4.203125 
Q 27.59375 4.203125 16.390625 15.75 
Q 5.203125 27.296875 5.203125 42.796875 
Q 5.203125 58.296875 16.390625 69.640625 
Q 27.59375 81 45.296875 81 
Q 54.90625 81 63.15625 77.453125 
Q 71.40625 73.90625 79.296875 66.59375 
L 72.703125 60.296875 
Q 66.59375 66.203125 59.5 69.34375 
Q 52.40625 72.5 44.90625 72.5 
Q 37.40625 72.5 30 68.5 
Q 22.59375 64.5 18.390625 57.703125 
Q 14.203125 50.90625 14.203125 43 
Q 14.203125 30.703125 23.453125 21.546875 
Q 32.703125 12.40625 46.59375 12.40625 
Q 56.90625 12.40625 64.40625 18.046875 
Q 71.90625 23.703125 73.59375 33.5 
L 50.796875 33.5 
L 50.796875 41.796875 
z
" id="STHeitiTC-Medium-71"/>
     <path d="M 60.59375 31.796875 
L 12.796875 31.796875 
Q 13.296875 22.796875 18.84375 17.34375 
Q 24.40625 11.90625 32.09375 11.90625 
Q 45.203125 11.90625 52.09375 24.796875 
L 59.09375 21.203125 
Q 54.40625 12.5 48 8.34375 
Q 41.59375 4.203125 32.703125 4.203125 
Q 20.40625 4.203125 12.40625 12.640625 
Q 4.40625 21.09375 4.40625 33 
Q 4.40625 44.90625 12.453125 53.40625 
Q 20.5 61.90625 32.390625 61.90625 
Q 44.296875 61.90625 52.296875 53.84375 
Q 60.296875 45.796875 60.59375 31.796875 
z
M 51.40625 39.09375 
Q 49.90625 46.09375 44.59375 50 
Q 39.296875 53.90625 32.40625 53.90625 
Q 18.40625 53.90625 13.796875 39.09375 
z
" id="STHeitiTC-Medium-101"/>
     <path d="M 29.90625 59.703125 
L 25.59375 52.703125 
Q 23.90625 53.59375 22.296875 53.59375 
Q 19.203125 53.59375 16.703125 50.546875 
Q 14.203125 47.5 12.953125 42.546875 
Q 11.703125 37.59375 11.703125 24.703125 
L 11.703125 6 
L 3.296875 6 
L 3.296875 60.5 
L 11.703125 60.5 
L 11.703125 54.59375 
Q 14.203125 58.296875 16.75 60.09375 
Q 19.296875 61.90625 22.546875 61.90625 
Q 25.796875 61.90625 29.90625 59.703125 
z
" id="STHeitiTC-Medium-114"/>
     <path d="M 87.703125 6 
L 79.296875 6 
L 79.296875 35.703125 
Q 79.296875 42.796875 78.4375 46.09375 
Q 77.59375 49.40625 74.75 51.65625 
Q 71.90625 53.90625 67.25 53.90625 
Q 62.59375 53.90625 58.5 50.90625 
Q 54.40625 47.90625 52.796875 42.75 
Q 51.203125 37.59375 51.203125 27.5 
L 51.203125 6 
L 43.09375 6 
L 43.09375 33.90625 
Q 43.09375 42.09375 42.25 45.6875 
Q 41.40625 49.296875 38.5 51.59375 
Q 35.59375 53.90625 31.1875 53.90625 
Q 26.796875 53.90625 22.84375 51.15625 
Q 18.90625 48.40625 17 43.953125 
Q 15.09375 39.5 15.09375 29.203125 
L 15.09375 6 
L 6.90625 6 
L 6.90625 60.5 
L 15.09375 60.5 
L 15.09375 52.796875 
Q 22.09375 61.90625 32.59375 61.90625 
Q 38.296875 61.90625 42.9375 58.84375 
Q 47.59375 55.796875 49.59375 50.203125 
Q 53 55.90625 58.09375 58.90625 
Q 63.203125 61.90625 68.90625 61.90625 
Q 76.703125 61.90625 82.203125 56.40625 
Q 87.703125 50.90625 87.703125 35.703125 
z
" id="STHeitiTC-Medium-109"/>
     <path d="M 53.40625 60.5 
L 21.09375 -13.296875 
L 12.5 -13.296875 
L 23 10.703125 
L 0.90625 60.5 
L 9.5 60.5 
L 27.40625 20.59375 
L 44.703125 60.5 
z
" id="STHeitiTC-Medium-121"/>
    </defs>
    <g transform="translate(306.902725 33.563555)scale(0.1 -0.1)">
     <use xlink:href="#STHeitiTC-Medium-71"/>
     <use x="87.199982" xlink:href="#STHeitiTC-Medium-101"/>
     <use x="152.199966" xlink:href="#STHeitiTC-Medium-114"/>
     <use x="182.299957" xlink:href="#STHeitiTC-Medium-109"/>
     <use x="276.099945" xlink:href="#STHeitiTC-Medium-97"/>
     <use x="344.399933" xlink:href="#STHeitiTC-Medium-110"/>
     <use x="405.399918" xlink:href="#STHeitiTC-Medium-121"/>
    </g>
   </g>
   <g id="text_10">
    <!-- 3.8% -->
    <defs>
     <path d="M 39.90625 47.203125 
Q 45.796875 44.296875 49.046875 39.1875 
Q 52.296875 34.09375 52.296875 28.09375 
Q 52.296875 18.296875 45.140625 11.25 
Q 38 4.203125 27.09375 4.203125 
Q 17.296875 4.203125 11.046875 9.84375 
Q 4.796875 15.5 2.59375 26.59375 
L 11.09375 26.59375 
Q 13 19.5 16.75 16.046875 
Q 20.5 12.59375 27.453125 12.59375 
Q 34.40625 12.59375 39.09375 16.9375 
Q 43.796875 21.296875 43.796875 27.890625 
Q 43.796875 34.5 38.4375 38.390625 
Q 33.09375 42.296875 22.703125 42.5 
L 22.703125 50.5 
Q 30.203125 50.5 34.796875 53.703125 
Q 39.40625 56.90625 39.40625 61.65625 
Q 39.40625 66.40625 35.84375 69.546875 
Q 32.296875 72.703125 27.25 72.703125 
Q 22.203125 72.703125 19.046875 69.84375 
Q 15.90625 67 13.703125 61.203125 
L 5 61.203125 
Q 7.203125 70.796875 13 75.890625 
Q 18.796875 81 27.296875 81 
Q 35.796875 81 42.046875 75.390625 
Q 48.296875 69.796875 48.296875 61.796875 
Q 48.296875 52.59375 39.90625 47.203125 
z
" id="STHeitiTC-Medium-51"/>
    </defs>
    <g transform="translate(261.360318 96.615007)scale(0.1 -0.1)">
     <use xlink:href="#STHeitiTC-Medium-51"/>
     <use x="55.399994" xlink:href="#STHeitiTC-Medium-46"/>
     <use x="83.099991" xlink:href="#STHeitiTC-Medium-56"/>
     <use x="138.499985" xlink:href="#STHeitiTC-Medium-37"/>
    </g>
   </g>
   <g id="text_11">
    <!-- Others -->
    <defs>
     <path d="M 43 81 
Q 53.703125 81 62.703125 75.953125 
Q 71.703125 70.90625 76.84375 62 
Q 82 53.09375 82 42.640625 
Q 82 32.203125 76.890625 23.296875 
Q 71.796875 14.40625 62.890625 9.296875 
Q 54 4.203125 43.546875 4.203125 
Q 33.09375 4.203125 24.09375 9.25 
Q 15.09375 14.296875 10 23.140625 
Q 4.90625 32 4.90625 42.453125 
Q 4.90625 52.90625 10 61.84375 
Q 15.09375 70.796875 23.9375 75.890625 
Q 32.796875 81 43 81 
z
M 43.296875 12.59375 
Q 55.796875 12.59375 64.4375 21.09375 
Q 73.09375 29.59375 73.09375 42.390625 
Q 73.09375 55.203125 64.34375 63.890625 
Q 55.59375 72.59375 43.296875 72.59375 
Q 30.703125 72.59375 22.25 63.84375 
Q 13.796875 55.09375 13.796875 42.546875 
Q 13.796875 30 22.5 21.296875 
Q 31.203125 12.59375 43.296875 12.59375 
z
" id="STHeitiTC-Medium-79"/>
     <path d="M 32 53.296875 
L 21.203125 53.296875 
L 21.203125 15.09375 
Q 21.203125 13 21.796875 12.546875 
Q 22.40625 12.09375 24.796875 12.09375 
L 29.59375 12.09375 
L 29.59375 5 
Q 24.796875 4.203125 22.296875 4.203125 
Q 17.5 4.203125 15.203125 6.546875 
Q 12.90625 8.90625 12.90625 14 
L 12.90625 53.296875 
L 3.5 53.296875 
L 3.5 60.5 
L 12.90625 60.5 
L 12.90625 81 
L 21.203125 81 
L 21.203125 60.5 
L 32 60.5 
z
" id="STHeitiTC-Medium-116"/>
     <path d="M 35.296875 54.09375 
L 30 48.59375 
Q 24.09375 54.09375 19.203125 54.09375 
Q 16.09375 54.09375 14 52.140625 
Q 11.90625 50.203125 11.90625 47.34375 
Q 11.90625 44.5 14.25 42.34375 
Q 16.59375 40.203125 22.59375 37.046875 
Q 28.59375 33.90625 31.84375 30.09375 
Q 35.09375 26.296875 35.09375 20.796875 
Q 35.09375 13.796875 30.25 9 
Q 25.40625 4.203125 18.296875 4.203125 
Q 8.40625 4.203125 1.796875 12.59375 
L 7 18.40625 
Q 12.40625 12.09375 18 12.09375 
Q 21.796875 12.09375 24.5 14.59375 
Q 27.203125 17.09375 27.203125 20.4375 
Q 27.203125 23.796875 24.75 26.046875 
Q 22.296875 28.296875 16.34375 31.296875 
Q 10.40625 34.296875 7.34375 37.9375 
Q 4.296875 41.59375 4.296875 47.546875 
Q 4.296875 53.5 8.640625 57.703125 
Q 13 61.90625 20.140625 61.90625 
Q 27.296875 61.90625 35.296875 54.09375 
z
" id="STHeitiTC-Medium-115"/>
    </defs>
    <g transform="translate(260.670093 16.80598)scale(0.1 -0.1)">
     <use xlink:href="#STHeitiTC-Medium-79"/>
     <use x="86.899994" xlink:href="#STHeitiTC-Medium-116"/>
     <use x="120.799988" xlink:href="#STHeitiTC-Medium-104"/>
     <use x="181.799973" xlink:href="#STHeitiTC-Medium-101"/>
     <use x="246.799957" xlink:href="#STHeitiTC-Medium-114"/>
     <use x="276.899948" xlink:href="#STHeitiTC-Medium-115"/>
    </g>
   </g>
   <g id="text_12">
    <!-- 6.1% -->
    <g transform="translate(236.142519 87.474512)scale(0.1 -0.1)">
     <use xlink:href="#STHeitiTC-Medium-54"/>
     <use x="55.399994" xlink:href="#STHeitiTC-Medium-46"/>
     <use x="83.099991" xlink:href="#STHeitiTC-Medium-49"/>
     <use x="138.499985" xlink:href="#STHeitiTC-Medium-37"/>
    </g>
   </g>
  </g>
 </g>
</svg>
