<?xml version="1.0" encoding="utf-8" standalone="no"?>
<!DOCTYPE svg PUBLIC "-//W3C//DTD SVG 1.1//EN"
  "http://www.w3.org/Graphics/SVG/1.1/DTD/svg11.dtd">
<!-- Created with matplotlib (https://matplotlib.org/) -->
<svg height="295.92pt" version="1.1" viewBox="0 0 457.2 295.92" width="457.2pt" xmlns="http://www.w3.org/2000/svg" xmlns:xlink="http://www.w3.org/1999/xlink">
 <defs>
  <style type="text/css">
*{stroke-linecap:butt;stroke-linejoin:round;}
  </style>
 </defs>
 <g id="figure_1">
  <g id="patch_1">
   <path d="M 0 295.92 
L 457.2 295.92 
L 457.2 0 
L 0 0 
z
" style="fill:none;opacity:0;"/>
  </g>
  <g id="axes_1">
   <g id="patch_2">
    <path d="M 244.243659 23.154998 
C 233.722666 23.154998 223.246342 24.525347 213.079316 27.231431 
C 202.912291 29.937514 193.140896 33.956354 184.011956 39.186434 
L 244.243659 144.31897 
L 244.243659 23.154998 
z
" style="fill:#1f77b4;"/>
   </g>
   <g id="patch_3">
    <path d="M 179.319503 41.630829 
C 173.00409 45.249005 167.027524 49.428893 161.462333 54.119767 
C 155.897143 58.810641 150.765932 63.993449 146.130972 69.605292 
L 239.551206 146.763364 
L 179.319503 41.630829 
z
" style="fill:#ff7f0e;"/>
   </g>
   <g id="patch_4">
    <path d="M 143.740944 72.328307 
C 140.652128 76.068134 137.790669 79.990068 135.172018 84.072929 
C 132.553367 88.15579 130.182246 92.392215 128.071461 96.759328 
L 237.161177 149.486379 
L 143.740944 72.328307 
z
" style="fill:#2ca02c;"/>
   </g>
   <g id="patch_5">
    <path d="M 138.270377 103.300673 
C 136.51155 106.9396 134.935902 110.664253 133.549341 114.460661 
C 132.16278 118.257068 130.967044 122.120476 129.966617 126.036393 
L 247.360093 156.027724 
L 138.270377 103.300673 
z
" style="fill:#d62728;"/>
   </g>
   <g id="patch_6">
    <path d="M 129.966617 126.036393 
C 128.966191 129.95231 128.162326 133.915833 127.55804 137.912094 
C 126.953753 141.908354 126.549801 145.932349 126.347698 149.968983 
L 247.360093 156.027724 
L 129.966617 126.036393 
z
" style="fill:#9467bd;"/>
   </g>
   <g id="patch_7">
    <path d="M 126.347698 149.968983 
C 126.186028 153.198048 126.153669 156.43229 126.250697 159.663943 
C 126.347725 162.895597 126.574063 166.122072 126.929167 169.335621 
L 247.360093 156.027724 
L 126.347698 149.968983 
z
" style="fill:#8c564b;"/>
   </g>
   <g id="patch_8">
    <path d="M 126.929167 169.335621 
C 127.284272 172.54917 127.767859 175.747219 128.378766 178.922087 
C 128.989674 182.096955 129.727413 185.2461 130.590211 188.361959 
L 247.360093 156.027724 
L 126.929167 169.335621 
z
" style="fill:#e377c2;"/>
   </g>
   <g id="patch_9">
    <path d="M 130.590211 188.361959 
C 131.45301 191.477817 132.440178 194.557894 133.549343 197.594792 
C 134.658508 200.63169 135.888783 203.622976 137.237213 206.561468 
L 247.360093 156.027724 
L 130.590211 188.361959 
z
" style="fill:#7f7f7f;"/>
   </g>
   <g id="patch_10">
    <path d="M 137.237213 206.561468 
C 146.307106 226.326532 160.533105 243.289988 178.416048 255.664196 
C 196.298991 268.038404 217.187829 275.372867 238.881257 276.894664 
C 260.574685 278.416462 282.282928 274.070192 301.718332 264.313872 
C 321.153735 254.557552 337.60873 239.746373 349.349258 221.441164 
C 361.089787 203.135955 367.688421 182.003139 368.449785 160.269731 
C 369.211148 138.536323 364.107523 116.993554 353.676738 97.911641 
C 343.245953 78.829728 327.867754 62.90337 309.162723 51.810916 
C 290.457693 40.718463 269.10681 34.863748 247.36007 34.863752 
L 247.360093 156.027724 
L 137.237213 206.561468 
z
" style="fill:#bcbd22;"/>
   </g>
   <g id="matplotlib.axis_1"/>
   <g id="matplotlib.axis_2"/>
   <g id="text_1">
    <!-- 上海译文出版社 -->
    <defs>
     <path d="M 50.703125 5.09375 
Q 58 5.09375 64.140625 5.140625 
Q 70.296875 5.203125 75.546875 5.34375 
Q 80.796875 5.5 85.25 5.640625 
Q 89.703125 5.796875 93.703125 6.09375 
L 93.703125 -3.90625 
Q 89.59375 -3.59375 85.09375 -3.4375 
Q 80.59375 -3.296875 75.296875 -3.140625 
Q 70 -3 63.796875 -2.953125 
Q 57.59375 -2.90625 50.09375 -2.90625 
Q 35.203125 -2.90625 24.703125 -3.15625 
Q 14.203125 -3.40625 6.203125 -3.90625 
L 6.203125 6.09375 
Q 13.09375 5.59375 21.546875 5.390625 
Q 30 5.203125 41.40625 5.09375 
L 41.40625 53.5 
Q 41.40625 59.5 41.34375 63.796875 
Q 41.296875 68.09375 41.1875 71.046875 
Q 41.09375 74 40.9375 75.796875 
Q 40.796875 77.59375 40.59375 78.703125 
Q 43.09375 78.203125 46.1875 78 
Q 49.296875 77.796875 52.203125 77.796875 
Q 53.59375 77.796875 53.75 77.1875 
Q 53.90625 76.59375 52.59375 75.703125 
Q 51.796875 75.09375 51.25 72.546875 
Q 50.703125 70 50.703125 66.59375 
L 50.703125 53.40625 
L 63.90625 53.40625 
Q 70.703125 53.40625 75.84375 53.59375 
Q 81 53.796875 85.09375 54.203125 
L 85.09375 44.296875 
Q 81.09375 44.796875 75.890625 44.9375 
Q 70.703125 45.09375 63.90625 45.09375 
L 50.703125 45.09375 
z
" id="STHeitiTC-Medium-19978"/>
     <path d="M 57.796875 11.203125 
Q 57.796875 12.203125 57.390625 13.75 
Q 57 15.296875 56.453125 16.9375 
Q 55.90625 18.59375 55.25 20.046875 
Q 54.59375 21.5 54.09375 22.40625 
L 61.59375 24.296875 
Q 62.09375 23.09375 62.6875 21.546875 
Q 63.296875 20 63.84375 18.453125 
Q 64.40625 16.90625 64.90625 15.453125 
Q 65.40625 14 65.703125 13 
z
M 59.703125 34.90625 
Q 59.5 35.90625 59.140625 37.203125 
Q 58.796875 38.5 58.296875 39.796875 
Q 57.796875 41.09375 57.25 42.296875 
Q 56.703125 43.5 56.203125 44.296875 
L 63.703125 46.203125 
Q 65 44 66.140625 41.296875 
Q 67.296875 38.59375 67.90625 36.296875 
z
M 25.5 23.703125 
Q 24.40625 21 23.296875 17.84375 
Q 22.203125 14.703125 20.40625 9.203125 
Q 18.59375 4.203125 17.34375 -0.140625 
Q 16.09375 -4.5 15 -9.09375 
Q 12.703125 -7 10.203125 -5.25 
Q 7.703125 -3.5 5.40625 -2.40625 
Q 6.40625 -0.796875 7.203125 0.59375 
Q 8 2 8.796875 3.75 
Q 9.59375 5.5 10.5 7.84375 
Q 11.40625 10.203125 12.703125 13.703125 
Q 13.796875 16.703125 14.546875 18.84375 
Q 15.296875 21 15.890625 22.75 
Q 16.5 24.5 16.953125 26.140625 
Q 17.40625 27.796875 17.90625 29.796875 
Q 19.09375 27.796875 21.140625 26.1875 
Q 23.203125 24.59375 25.5 23.703125 
z
M 21.5 37.5 
Q 20.203125 38.703125 18.34375 40.046875 
Q 16.5 41.40625 14.34375 42.703125 
Q 12.203125 44 10.046875 45.140625 
Q 7.90625 46.296875 6 47.09375 
L 10.796875 54.203125 
Q 12.40625 53.203125 14.5 52 
Q 16.59375 50.796875 18.75 49.5 
Q 20.90625 48.203125 22.953125 47 
Q 25 45.796875 26.703125 44.796875 
z
M 25.703125 61.09375 
Q 24.59375 62.40625 22.890625 64.09375 
Q 21.203125 65.796875 19.140625 67.4375 
Q 17.09375 69.09375 15 70.640625 
Q 12.90625 72.203125 11 73.296875 
L 17.203125 79.296875 
Q 20.796875 76.40625 24.796875 73.15625 
Q 28.796875 69.90625 32 67.09375 
z
M 44.703125 26.59375 
L 42.703125 9.40625 
L 75 9.40625 
L 76.296875 26.59375 
z
M 76.796875 32.703125 
L 78 49.203125 
L 47.296875 49.203125 
L 45.40625 32.703125 
z
M 39.90625 54.40625 
Q 38.5 52.59375 37.140625 50.796875 
Q 35.796875 49 34.40625 47.296875 
Q 33 48.5 31 49.390625 
Q 29 50.296875 27 50.5 
Q 29.59375 53.09375 32.546875 56.9375 
Q 35.5 60.796875 38.203125 65.09375 
Q 40.90625 69.40625 43.15625 73.796875 
Q 45.40625 78.203125 46.703125 82 
Q 47.5 81.59375 48.84375 81.09375 
Q 50.203125 80.59375 51.703125 80.09375 
Q 53.203125 79.59375 54.59375 79.1875 
Q 56 78.796875 56.90625 78.703125 
Q 57.90625 78.5 57.953125 77.796875 
Q 58 77.09375 56.59375 76.90625 
Q 56.09375 76.796875 55.59375 76.546875 
Q 55.09375 76.296875 54.5 75.640625 
Q 53.90625 75 53.046875 73.796875 
Q 52.203125 72.59375 50.90625 70.703125 
L 78.296875 70.703125 
Q 83.40625 70.703125 86.75 71 
Q 90.09375 71.296875 92.90625 71.796875 
L 92.90625 63.59375 
Q 90.296875 63.796875 86.5 63.9375 
Q 82.703125 64.09375 78.296875 64.09375 
L 46.59375 64.09375 
Q 45.203125 62 43.640625 59.703125 
Q 42.09375 57.40625 40.5 55.203125 
L 64.203125 55.203125 
Q 70.59375 55.203125 76.4375 55.390625 
Q 82.296875 55.59375 86.09375 56 
L 84.40625 32.796875 
Q 90.5 32.796875 94.59375 33.40625 
L 94.59375 25.90625 
Q 92.5 26.203125 89.796875 26.34375 
Q 87.09375 26.5 83.90625 26.59375 
L 82.703125 9.5 
Q 87.90625 9.59375 90.90625 10.09375 
L 90.90625 1.90625 
Q 89.40625 2.203125 87.296875 2.390625 
Q 85.203125 2.59375 82.296875 2.703125 
Q 82.09375 -1 81.59375 -3.390625 
Q 81.09375 -5.796875 79.546875 -7.390625 
Q 78 -9 75 -10 
Q 72 -11 66.796875 -11.90625 
Q 66.59375 -9.59375 65.296875 -7.390625 
Q 64 -5.203125 62.296875 -3.40625 
Q 65.90625 -3.5 68.15625 -3.140625 
Q 70.40625 -2.796875 71.75 -2.046875 
Q 73.09375 -1.296875 73.640625 -0.09375 
Q 74.203125 1.09375 74.5 2.90625 
L 50.5 2.90625 
Q 47.59375 2.90625 45.5 2.84375 
Q 43.40625 2.796875 41.65625 2.75 
Q 39.90625 2.703125 38.203125 2.546875 
Q 36.5 2.40625 34.40625 2.203125 
L 36.90625 26.5 
Q 34.40625 26.40625 31.953125 26.25 
Q 29.5 26.09375 27.703125 25.90625 
L 27.703125 33.40625 
Q 29.703125 33.203125 32.34375 33.046875 
Q 35 32.90625 37.59375 32.703125 
z
" id="STHeitiTC-Medium-28023"/>
     <path d="M 25.703125 3.296875 
Q 23.703125 0.90625 21.75 -1.6875 
Q 19.796875 -4.296875 18.40625 -6.796875 
Q 17.203125 -4.796875 15.34375 -2.84375 
Q 13.5 -0.90625 11.796875 0.296875 
Q 13 1.59375 13.75 2.84375 
Q 14.5 4.09375 14.953125 5.59375 
Q 15.40625 7.09375 15.546875 9.046875 
Q 15.703125 11 15.703125 13.90625 
L 15.703125 44.796875 
Q 11.296875 44.796875 8.890625 44.6875 
Q 6.5 44.59375 4.703125 44.296875 
L 4.703125 52.5 
Q 6.59375 52.296875 9.09375 52.140625 
Q 11.59375 52 14.703125 52 
Q 17.796875 52 20.296875 52.140625 
Q 22.796875 52.296875 24.796875 52.5 
Q 24.296875 50.203125 24 47.25 
Q 23.703125 44.296875 23.703125 40.796875 
L 23.703125 13 
Q 26.296875 15.796875 28.140625 17.9375 
Q 30 20.09375 32.09375 22.796875 
Q 32.796875 18.09375 36.203125 15.59375 
z
M 21.59375 58.40625 
Q 19.90625 62.09375 17.25 66.296875 
Q 14.59375 70.5 11.5 74.40625 
L 19.296875 79 
Q 21.703125 75.203125 24.59375 71.09375 
Q 27.5 67 29.90625 63.90625 
z
M 66.203125 5.703125 
Q 66.296875 0.5 66.5 -3.703125 
Q 66.703125 -7.90625 67.203125 -11 
L 57.203125 -11 
Q 57.59375 -8.40625 57.796875 -3.953125 
Q 58 0.5 58.09375 5.703125 
Q 51.59375 5.59375 46.75 5.4375 
Q 41.90625 5.296875 38 5.09375 
L 38 13.59375 
Q 42 13.296875 46.84375 13.140625 
Q 51.703125 13 58.09375 12.90625 
L 58.09375 22.796875 
Q 47.09375 22.703125 40.796875 22.203125 
L 40.796875 30.703125 
Q 44.09375 30.40625 48.296875 30.25 
Q 52.5 30.09375 58.09375 30 
Q 58.09375 33.09375 57.9375 35.25 
Q 57.796875 37.40625 57.59375 38.796875 
Q 60 38.296875 62.25 38.140625 
Q 64.5 38 67.203125 38.203125 
Q 68.796875 38.296875 68.890625 37.6875 
Q 69 37.09375 67.90625 36.5 
Q 67.09375 36 66.640625 34.5 
Q 66.203125 33 66.203125 30 
Q 72.203125 30.09375 76.546875 30.25 
Q 80.90625 30.40625 84.40625 30.703125 
L 84.40625 22.203125 
Q 80.90625 22.5 76.546875 22.640625 
Q 72.203125 22.796875 66.203125 22.796875 
L 66.203125 12.90625 
Q 74.296875 12.90625 80 13.046875 
Q 85.703125 13.203125 90.40625 13.59375 
L 90.40625 5.09375 
Q 85.796875 5.40625 80.09375 5.546875 
Q 74.40625 5.703125 66.203125 5.703125 
z
M 41.90625 68.296875 
Q 39.796875 68.203125 38.140625 68.09375 
Q 36.5 68 35.5 67.796875 
L 35.5 77 
Q 38.90625 76.5 45.90625 76.203125 
Q 52.90625 75.90625 62.59375 75.90625 
Q 72.296875 75.90625 78.390625 76.203125 
Q 84.5 76.5 87.90625 77 
Q 85.09375 70.40625 80.09375 63.953125 
Q 75.09375 57.5 68.203125 52 
Q 74.203125 49.5 80.75 48.703125 
Q 87.296875 47.90625 95.296875 48.09375 
Q 93.5 46 92.546875 43.296875 
Q 91.59375 40.59375 91.296875 37.796875 
Q 81.09375 39.703125 73.75 42.046875 
Q 66.40625 44.40625 61.296875 47.296875 
Q 55.5 44 48.296875 41.140625 
Q 41.09375 38.296875 33.796875 36.703125 
Q 33.296875 38.703125 31.890625 40.953125 
Q 30.5 43.203125 28.5 44.703125 
Q 35.40625 45.5 41.90625 47.5 
Q 48.40625 49.5 53.796875 52 
Q 52.703125 52.90625 51.25 54.5 
Q 49.796875 56.09375 48.1875 58.296875 
Q 46.59375 60.5 44.9375 63.046875 
Q 43.296875 65.59375 41.90625 68.296875 
z
M 49.703125 68.59375 
Q 52 64.5 54.84375 61.296875 
Q 57.703125 58.09375 61 55.90625 
Q 65 58.5 68.203125 61.703125 
Q 71.40625 64.90625 74 68.703125 
L 55.59375 68.703125 
Q 54.203125 68.703125 52.703125 68.703125 
Q 51.203125 68.703125 49.703125 68.59375 
z
" id="STHeitiTC-Medium-35793"/>
     <path d="M 32.203125 57.796875 
Q 32.703125 54 33.953125 49.34375 
Q 35.203125 44.703125 37.203125 39.953125 
Q 39.203125 35.203125 41.890625 30.703125 
Q 44.59375 26.203125 48.09375 22.796875 
Q 50.59375 25.40625 52.796875 28.59375 
Q 55 31.796875 56.75 36 
Q 58.5 40.203125 59.796875 45.546875 
Q 61.09375 50.90625 61.90625 57.796875 
z
M 46.796875 65.5 
Q 45.09375 71.5 41.796875 77.90625 
L 52.703125 80.40625 
Q 53.09375 77.203125 53.9375 73.203125 
Q 54.796875 69.203125 55.90625 65.5 
Q 67.5 65.59375 75.953125 65.796875 
Q 84.40625 66 91.203125 66.5 
L 91.203125 56.90625 
Q 87 57.203125 82.203125 57.34375 
Q 77.40625 57.5 71.59375 57.703125 
Q 69.296875 43.296875 64.9375 33.6875 
Q 60.59375 24.09375 54.59375 17.59375 
Q 73 4.59375 94.796875 5.203125 
Q 92.796875 3.59375 91.4375 2.296875 
Q 90.09375 1 89.140625 -0.296875 
Q 88.203125 -1.59375 87.546875 -2.890625 
Q 86.90625 -4.203125 86.40625 -5.796875 
Q 81 -4.90625 75.5 -3.09375 
Q 70 -1.296875 64.953125 1 
Q 59.90625 3.296875 55.453125 5.890625 
Q 51 8.5 47.59375 11.203125 
Q 44.09375 8.59375 39.59375 5.9375 
Q 35.09375 3.296875 30.296875 0.9375 
Q 25.5 -1.40625 20.796875 -3.203125 
Q 16.09375 -5 12.296875 -5.90625 
Q 11.796875 -3 10.09375 -0.59375 
Q 8.40625 1.796875 5.203125 3.796875 
Q 15.5 4.90625 24.953125 8.453125 
Q 34.40625 12 41.296875 17 
Q 37.703125 21 34.796875 26.09375 
Q 31.90625 31.203125 29.65625 36.59375 
Q 27.40625 42 25.90625 47.453125 
Q 24.40625 52.90625 23.703125 57.703125 
Q 18.59375 57.59375 14.09375 57.390625 
Q 9.59375 57.203125 5.59375 56.90625 
L 5.59375 66.5 
Q 13.296875 66 23.046875 65.75 
Q 32.796875 65.5 46.796875 65.5 
z
" id="STHeitiTC-Medium-25991"/>
     <path d="M 77.703125 5 
L 77.703125 18.796875 
Q 77.703125 21.90625 77.546875 24.15625 
Q 77.40625 26.40625 77.09375 28.5 
Q 80 28 82.046875 27.953125 
Q 84.09375 27.90625 86.5 28.09375 
Q 87.59375 28.203125 87.75 27.703125 
Q 87.90625 27.203125 87.09375 26.40625 
Q 86.40625 25.703125 86.15625 23.703125 
Q 85.90625 21.703125 85.90625 18.703125 
L 85.90625 1.796875 
Q 85.90625 -1.09375 86 -3.6875 
Q 86.09375 -6.296875 86.296875 -9.296875 
L 77.703125 -9.296875 
L 77.703125 -2.203125 
L 20.59375 -2.203125 
L 20.59375 -10.09375 
L 12 -10.09375 
Q 12.40625 -7.5 12.546875 -4.75 
Q 12.703125 -2 12.703125 2.203125 
L 12.703125 17.90625 
Q 12.703125 22.703125 12.546875 25.296875 
Q 12.40625 27.90625 12 29.5 
Q 14.59375 29 17.09375 28.890625 
Q 19.59375 28.796875 21.40625 29 
Q 22.5 29.203125 22.703125 28.59375 
Q 22.90625 28 21.90625 27.203125 
Q 21 26.40625 20.796875 25.546875 
Q 20.59375 24.703125 20.59375 23.59375 
L 20.59375 5 
L 45.203125 5 
L 45.203125 37.296875 
Q 34.5 37.296875 27.046875 37.09375 
Q 19.59375 36.90625 16.40625 36.703125 
Q 16.796875 39 17 41.203125 
Q 17.203125 43.40625 17.203125 45.59375 
L 17.203125 61.59375 
Q 17.203125 64 17.046875 66.25 
Q 16.90625 68.5 16.40625 70.5 
Q 19.59375 70 22.046875 69.84375 
Q 24.5 69.703125 26.703125 69.90625 
Q 28.09375 70 28.1875 69.296875 
Q 28.296875 68.59375 27.09375 67.703125 
Q 26.296875 67.09375 26 65.546875 
Q 25.703125 64 25.703125 61.703125 
L 25.703125 44.5 
L 45.203125 44.5 
L 45.203125 66.59375 
Q 45.203125 71.703125 45.046875 74.59375 
Q 44.90625 77.5 44.5 79.90625 
Q 47.40625 79.40625 49.84375 79.25 
Q 52.296875 79.09375 55.203125 79.296875 
Q 56.59375 79.40625 56.75 78.75 
Q 56.90625 78.09375 55.90625 77.296875 
Q 54.90625 76.5 54.40625 73.59375 
Q 53.90625 70.703125 53.90625 66.703125 
L 53.90625 44.5 
L 75.203125 44.5 
L 75.203125 61.59375 
Q 75.203125 64.703125 75 66.953125 
Q 74.796875 69.203125 74.296875 71.296875 
Q 77.203125 70.796875 79.75 70.6875 
Q 82.296875 70.59375 84.59375 70.796875 
Q 85.59375 70.90625 85.75 70.34375 
Q 85.90625 69.796875 85.203125 69 
Q 84.40625 68.203125 84.046875 66.453125 
Q 83.703125 64.703125 83.703125 61.5 
L 83.703125 46.703125 
Q 83.703125 43.796875 83.796875 41.5 
Q 83.90625 39.203125 84.09375 36.703125 
Q 82.296875 36.796875 79.75 36.9375 
Q 77.203125 37.09375 73.546875 37.140625 
Q 69.90625 37.203125 65.046875 37.25 
Q 60.203125 37.296875 53.90625 37.296875 
L 53.90625 5 
z
" id="STHeitiTC-Medium-20986"/>
     <path d="M 17.59375 44 
Q 17.59375 40.796875 17.59375 38 
Q 17.59375 35.203125 17.5 32.59375 
L 28.90625 32.59375 
Q 31.203125 32.59375 32.84375 32.6875 
Q 34.5 32.796875 36.203125 33 
Q 36 32 35.890625 30.25 
Q 35.796875 28.5 35.796875 26.5 
L 35.796875 12.09375 
Q 35.796875 8.5 35.890625 5.953125 
Q 36 3.40625 36.203125 0.40625 
L 27.90625 0.40625 
Q 28.296875 3.40625 28.390625 5.90625 
Q 28.5 8.40625 28.5 12.09375 
L 28.5 26.796875 
L 17.296875 26.796875 
Q 17.09375 20.296875 16.59375 15.390625 
Q 16.09375 10.5 15.296875 6.296875 
Q 14.5 2.09375 13.296875 -1.75 
Q 12.09375 -5.59375 10.40625 -10.09375 
Q 7.90625 -7 4.09375 -4.59375 
Q 5.40625 -1.09375 6.34375 1.90625 
Q 7.296875 4.90625 7.9375 8.046875 
Q 8.59375 11.203125 9.046875 14.796875 
Q 9.5 18.40625 9.75 23.09375 
Q 10 27.796875 10.09375 33.890625 
Q 10.203125 40 10.296875 48.09375 
Q 10.296875 52.59375 10.296875 56.1875 
Q 10.296875 59.796875 10.25 62.75 
Q 10.203125 65.703125 10.09375 68.140625 
Q 10 70.59375 9.90625 72.90625 
Q 12.203125 72.5 14.09375 72.390625 
Q 16 72.296875 17.796875 72.5 
Q 19 72.59375 19.140625 72.25 
Q 19.296875 71.90625 18.703125 71.09375 
Q 18.40625 70.703125 18.203125 69.390625 
Q 18 68.09375 17.84375 65.6875 
Q 17.703125 63.296875 17.640625 59.59375 
Q 17.59375 55.90625 17.59375 50.703125 
L 27.09375 50.703125 
L 27.09375 67.40625 
Q 27.09375 71.59375 27.046875 74.25 
Q 27 76.90625 26.796875 78.90625 
Q 31.59375 78 35.59375 78 
Q 36.796875 78 37 77.390625 
Q 37.203125 76.796875 36.296875 76.296875 
Q 34.40625 75.203125 34.40625 72.796875 
L 34.40625 50.703125 
Q 37 50.703125 38.75 50.84375 
Q 40.5 51 41.90625 51.203125 
L 41.90625 43.5 
Q 40.796875 43.703125 38.1875 43.84375 
Q 35.59375 44 32.09375 44 
z
M 63 46.703125 
Q 63.296875 42.796875 64 38.546875 
Q 64.703125 34.296875 65.796875 30.140625 
Q 66.90625 26 68.25 22.25 
Q 69.59375 18.5 71.203125 15.796875 
Q 77 26 79.5 46.703125 
z
M 52.90625 46.703125 
Q 52.703125 34.703125 52.140625 26.546875 
Q 51.59375 18.40625 50.25 12.296875 
Q 48.90625 6.203125 46.546875 1.140625 
Q 44.203125 -3.90625 40.5 -9.703125 
Q 38.796875 -8.296875 37.25 -7.546875 
Q 35.703125 -6.796875 32.796875 -6.09375 
Q 36.5 -1.796875 38.84375 2.75 
Q 41.203125 7.296875 42.546875 13.046875 
Q 43.90625 18.796875 44.5 26.296875 
Q 45.09375 33.796875 45.40625 44 
Q 45.703125 54.90625 45.453125 62.046875 
Q 45.203125 69.203125 44.703125 72.40625 
Q 51.09375 72.296875 57.296875 72.6875 
Q 63.5 73.09375 68.890625 73.796875 
Q 74.296875 74.5 78.75 75.5 
Q 83.203125 76.5 86.203125 77.59375 
Q 86.5 76.40625 87.046875 75.09375 
Q 87.59375 73.796875 88.1875 72.59375 
Q 88.796875 71.40625 89.4375 70.453125 
Q 90.09375 69.5 90.59375 69 
Q 91.703125 67.90625 91.5 67.453125 
Q 91.296875 67 89.90625 67.296875 
Q 88.203125 67.703125 84.453125 67.59375 
Q 80.703125 67.5 77.203125 67 
Q 74.40625 66.59375 71.046875 66.296875 
Q 67.703125 66 64.390625 65.796875 
Q 61.09375 65.59375 58.09375 65.5 
Q 55.09375 65.40625 52.90625 65.40625 
L 52.90625 53.09375 
L 72.90625 53.09375 
Q 78.59375 53.09375 82.25 53.296875 
Q 85.90625 53.5 88.703125 54 
Q 87.40625 45.296875 86.046875 38.5 
Q 84.703125 31.703125 83.140625 26.390625 
Q 81.59375 21.09375 79.84375 17.140625 
Q 78.09375 13.203125 76.203125 10.203125 
Q 81.203125 5.59375 85.75 3.25 
Q 90.296875 0.90625 95.796875 -0.09375 
Q 93.796875 -2.40625 92.640625 -4.65625 
Q 91.5 -6.90625 90.796875 -9.5 
Q 87.59375 -7.90625 84.9375 -6.40625 
Q 82.296875 -4.90625 80.046875 -3.25 
Q 77.796875 -1.59375 75.75 0.203125 
Q 73.703125 2 71.59375 4.296875 
Q 67.90625 0.296875 63.75 -3.25 
Q 59.59375 -6.796875 55.09375 -10 
Q 53.40625 -6.796875 48.59375 -3.703125 
Q 53.703125 -1.296875 58.046875 1.84375 
Q 62.40625 5 66.796875 9.90625 
Q 65 13.203125 63.25 17.34375 
Q 61.5 21.5 60.09375 26.25 
Q 58.703125 31 57.546875 36.203125 
Q 56.40625 41.40625 55.796875 46.703125 
z
" id="STHeitiTC-Medium-29256"/>
     <path d="M 38.703125 18 
Q 37.09375 21.90625 35.390625 25.25 
Q 33.703125 28.59375 31.296875 32.296875 
L 38 36.5 
Q 39.703125 32.90625 41.890625 29.75 
Q 44.09375 26.59375 46.90625 23.203125 
z
M 28.40625 61.59375 
Q 27.09375 65.296875 25.1875 68.890625 
Q 23.296875 72.5 21 75.203125 
L 29.40625 80 
Q 31 76.40625 32.84375 73.40625 
Q 34.703125 70.40625 37.296875 66.90625 
z
M 29.90625 5.90625 
Q 29.90625 1.40625 30 -2.390625 
Q 30.09375 -6.203125 30.40625 -10.796875 
L 21.203125 -10.796875 
Q 21.5 -6.203125 21.59375 -2.390625 
Q 21.703125 1.40625 21.703125 5.90625 
L 21.703125 29.296875 
Q 19.09375 26.296875 16 23 
Q 12.90625 19.703125 9.5 16.296875 
Q 7.796875 21.796875 4.296875 25.796875 
Q 6 26.40625 8.703125 28.40625 
Q 11.40625 30.40625 14.75 33.703125 
Q 18.09375 37 21.890625 41.59375 
Q 25.703125 46.203125 29.703125 51.90625 
L 17.203125 51.90625 
Q 16.09375 51.90625 14.59375 51.796875 
Q 13.09375 51.703125 11.59375 51.546875 
Q 10.09375 51.40625 8.75 51.15625 
Q 7.40625 50.90625 6.5 50.703125 
L 6.5 60.5 
Q 9.5 60 13.84375 59.75 
Q 18.203125 59.5 24.796875 59.5 
Q 31.296875 59.5 35.546875 59.703125 
Q 39.796875 59.90625 43 60.40625 
Q 41.90625 58.09375 40.34375 55.34375 
Q 38.796875 52.59375 37.046875 49.75 
Q 35.296875 46.90625 33.4375 44.15625 
Q 31.59375 41.40625 29.90625 39.203125 
z
M 63.90625 44.796875 
Q 58.40625 44.703125 53.453125 44.5 
Q 48.5 44.296875 45.59375 43.796875 
L 45.59375 53.40625 
Q 48.5 52.90625 53.5 52.703125 
Q 58.5 52.5 63.90625 52.40625 
Q 63.90625 66.09375 63.65625 72.796875 
Q 63.40625 79.5 63 81.203125 
Q 65.203125 80.796875 67.953125 80.796875 
Q 70.703125 80.796875 73.296875 80.796875 
Q 74.703125 80.796875 74.796875 80.296875 
Q 74.90625 79.796875 73.796875 79 
Q 73.203125 78.5 72.796875 77.546875 
Q 72.40625 76.59375 72.40625 75.703125 
L 72.40625 52.40625 
Q 78.09375 52.5 83.5 52.703125 
Q 88.90625 52.90625 91.796875 53.40625 
L 91.796875 43.796875 
Q 88.90625 44.296875 83.5 44.5 
Q 78.09375 44.703125 72.40625 44.796875 
L 72.40625 3.703125 
Q 75.796875 3.703125 79.1875 3.796875 
Q 82.59375 3.90625 85.640625 4 
Q 88.703125 4.09375 91.296875 4.296875 
Q 93.90625 4.5 95.703125 4.703125 
L 95.703125 -5.09375 
Q 93.59375 -4.796875 90.296875 -4.640625 
Q 87 -4.5 83.09375 -4.34375 
Q 79.203125 -4.203125 75 -4.140625 
Q 70.796875 -4.09375 66.90625 -4.09375 
Q 62.90625 -4.09375 58.90625 -4.140625 
Q 54.90625 -4.203125 51.203125 -4.34375 
Q 47.5 -4.5 44.390625 -4.640625 
Q 41.296875 -4.796875 39.203125 -5.09375 
L 39.203125 4.703125 
Q 43.203125 4.203125 49.890625 4 
Q 56.59375 3.796875 63.90625 3.703125 
z
" id="STHeitiTC-Medium-31038"/>
    </defs>
    <g transform="translate(139.962882 18.907833)scale(0.1 -0.1)">
     <use xlink:href="#STHeitiTC-Medium-19978"/>
     <use x="99.999985" xlink:href="#STHeitiTC-Medium-28023"/>
     <use x="199.999969" xlink:href="#STHeitiTC-Medium-35793"/>
     <use x="299.999954" xlink:href="#STHeitiTC-Medium-25991"/>
     <use x="399.999939" xlink:href="#STHeitiTC-Medium-20986"/>
     <use x="499.999924" xlink:href="#STHeitiTC-Medium-29256"/>
     <use x="599.999908" xlink:href="#STHeitiTC-Medium-31038"/>
    </g>
   </g>
   <g id="text_2">
    <!-- 8.3% -->
    <defs>
     <path d="M 39.796875 46.09375 
Q 52.703125 39.40625 52.703125 27.296875 
Q 52.703125 17.40625 45.75 10.796875 
Q 38.796875 4.203125 27.546875 4.203125 
Q 16.296875 4.203125 9.5 10.796875 
Q 2.703125 17.40625 2.703125 26.703125 
Q 2.703125 39.296875 15.90625 46.09375 
Q 6.09375 51.796875 6.09375 61.59375 
Q 6.09375 69.296875 12.5 75.140625 
Q 18.90625 81 27.84375 81 
Q 36.796875 81 43.09375 75.296875 
Q 49.40625 69.59375 49.40625 61.40625 
Q 49.40625 51.90625 39.796875 46.09375 
z
M 28 49.703125 
Q 33.09375 49.703125 36.9375 53.296875 
Q 40.796875 56.90625 40.796875 61.546875 
Q 40.796875 66.203125 37.1875 69.453125 
Q 33.59375 72.703125 27.890625 72.703125 
Q 22.203125 72.703125 18.5 69.453125 
Q 14.796875 66.203125 14.796875 61.546875 
Q 14.796875 56.90625 18.796875 53.296875 
Q 22.796875 49.703125 28 49.703125 
z
M 27.703125 12.40625 
Q 34.90625 12.40625 39.5 16.703125 
Q 44.09375 21 44.09375 27 
Q 44.09375 33 39.34375 37.390625 
Q 34.59375 41.796875 27.84375 41.796875 
Q 21.09375 41.796875 16.1875 37.25 
Q 11.296875 32.703125 11.296875 26.546875 
Q 11.296875 20.40625 15.84375 16.40625 
Q 20.40625 12.40625 27.703125 12.40625 
z
" id="STHeitiTC-Medium-56"/>
     <path d="M 15.09375 23.09375 
Q 17.90625 23.09375 19.84375 21.140625 
Q 21.796875 19.203125 21.796875 16.34375 
Q 21.796875 13.5 19.84375 11.546875 
Q 17.90625 9.59375 15.15625 9.59375 
Q 12.40625 9.59375 10.40625 11.59375 
Q 8.40625 13.59375 8.40625 16.390625 
Q 8.40625 19.203125 10.40625 21.140625 
Q 12.40625 23.09375 15.09375 23.09375 
z
" id="STHeitiTC-Medium-46"/>
     <path d="M 39.90625 47.203125 
Q 45.796875 44.296875 49.046875 39.1875 
Q 52.296875 34.09375 52.296875 28.09375 
Q 52.296875 18.296875 45.140625 11.25 
Q 38 4.203125 27.09375 4.203125 
Q 17.296875 4.203125 11.046875 9.84375 
Q 4.796875 15.5 2.59375 26.59375 
L 11.09375 26.59375 
Q 13 19.5 16.75 16.046875 
Q 20.5 12.59375 27.453125 12.59375 
Q 34.40625 12.59375 39.09375 16.9375 
Q 43.796875 21.296875 43.796875 27.890625 
Q 43.796875 34.5 38.4375 38.390625 
Q 33.09375 42.296875 22.703125 42.5 
L 22.703125 50.5 
Q 30.203125 50.5 34.796875 53.703125 
Q 39.40625 56.90625 39.40625 61.65625 
Q 39.40625 66.40625 35.84375 69.546875 
Q 32.296875 72.703125 27.25 72.703125 
Q 22.203125 72.703125 19.046875 69.84375 
Q 15.90625 67 13.703125 61.203125 
L 5 61.203125 
Q 7.203125 70.796875 13 75.890625 
Q 18.796875 81 27.296875 81 
Q 35.796875 81 42.046875 75.390625 
Q 48.296875 69.796875 48.296875 61.796875 
Q 48.296875 52.59375 39.90625 47.203125 
z
" id="STHeitiTC-Medium-51"/>
     <path d="M 68.703125 87.40625 
L 15.5 6 
L 7.296875 6 
L 54.703125 78.5 
Q 47.203125 76.796875 35.59375 76.796875 
L 34.40625 76.796875 
Q 36.703125 72.90625 36.703125 68.703125 
Q 36.703125 61.203125 31.640625 55.953125 
Q 26.59375 50.703125 19.140625 50.703125 
Q 11.703125 50.703125 6.59375 55.796875 
Q 1.5 60.90625 1.5 68.34375 
Q 1.5 75.796875 6.75 80.84375 
Q 12 85.90625 18.90625 85.90625 
Q 21.59375 85.90625 26.59375 84.84375 
Q 31.59375 83.796875 38.90625 83.796875 
Q 50.5 83.796875 61.59375 87.40625 
z
M 19.09375 58.40625 
Q 23.296875 58.40625 26.25 61.296875 
Q 29.203125 64.203125 29.203125 68.390625 
Q 29.203125 72.59375 26.25 75.5 
Q 23.296875 78.40625 19.140625 78.40625 
Q 15 78.40625 12.046875 75.453125 
Q 9.09375 72.5 9.09375 68.390625 
Q 9.09375 64.296875 12.046875 61.34375 
Q 15 58.40625 19.09375 58.40625 
z
M 58.296875 44.09375 
Q 65.59375 44.09375 70.75 38.9375 
Q 75.90625 33.796875 75.90625 26.5 
Q 75.90625 19.203125 70.75 14.046875 
Q 65.59375 8.90625 58.34375 8.90625 
Q 51.09375 8.90625 45.9375 14.046875 
Q 40.796875 19.203125 40.796875 26.453125 
Q 40.796875 33.703125 45.9375 38.890625 
Q 51.09375 44.09375 58.296875 44.09375 
z
M 58.296875 16.5 
Q 62.5 16.5 65.453125 19.390625 
Q 68.40625 22.296875 68.40625 26.4375 
Q 68.40625 30.59375 65.453125 33.546875 
Q 62.5 36.5 58.34375 36.5 
Q 54.203125 36.5 51.296875 33.546875 
Q 48.40625 30.59375 48.40625 26.5 
Q 48.40625 22.40625 51.296875 19.453125 
Q 54.203125 16.5 58.296875 16.5 
z
" id="STHeitiTC-Medium-37"/>
    </defs>
    <g transform="translate(214.744272 77.451603)scale(0.1 -0.1)">
     <use xlink:href="#STHeitiTC-Medium-56"/>
     <use x="55.399994" xlink:href="#STHeitiTC-Medium-46"/>
     <use x="83.099991" xlink:href="#STHeitiTC-Medium-51"/>
     <use x="138.499985" xlink:href="#STHeitiTC-Medium-37"/>
    </g>
   </g>
   <g id="text_3">
    <!-- 人民文学出版社 -->
    <defs>
     <path d="M 50.09375 42.09375 
Q 47.203125 32.90625 43.703125 25.65625 
Q 40.203125 18.40625 35.640625 12.5 
Q 31.09375 6.59375 25.4375 1.75 
Q 19.796875 -3.09375 12.59375 -7.40625 
Q 10.703125 -5.09375 9 -3.59375 
Q 7.296875 -2.09375 4.796875 -0.59375 
Q 11.90625 3 18.09375 8.09375 
Q 24.296875 13.203125 29.140625 19.203125 
Q 34 25.203125 37.34375 31.953125 
Q 40.703125 38.703125 42.203125 45.796875 
Q 43.09375 49.796875 43.59375 53.6875 
Q 44.09375 57.59375 44.34375 61.5 
Q 44.59375 65.40625 44.4375 69.546875 
Q 44.296875 73.703125 43.796875 78.296875 
Q 45.203125 78.09375 47 77.9375 
Q 48.796875 77.796875 50.640625 77.75 
Q 52.5 77.703125 54.203125 77.640625 
Q 55.90625 77.59375 57.203125 77.703125 
Q 58.09375 77.796875 58.25 77.140625 
Q 58.40625 76.5 57.59375 76 
Q 57.09375 75.703125 56.6875 74.84375 
Q 56.296875 74 55.9375 73.046875 
Q 55.59375 72.09375 55.34375 71.09375 
Q 55.09375 70.09375 55.09375 69.40625 
Q 54.796875 65.203125 54.390625 61.796875 
Q 54 58.40625 53.5 55.296875 
Q 55.796875 41 61.25 30.84375 
Q 66.703125 20.703125 74.203125 14.703125 
Q 76.796875 12.59375 79.1875 10.9375 
Q 81.59375 9.296875 84.046875 7.9375 
Q 86.5 6.59375 89.203125 5.4375 
Q 91.90625 4.296875 95.203125 3.203125 
Q 92.296875 0.90625 90.75 -1.34375 
Q 89.203125 -3.59375 87.796875 -7 
Q 81.5 -3.59375 76.140625 0.25 
Q 70.796875 4.09375 66.296875 8.796875 
Q 63.09375 12.09375 60.59375 15.390625 
Q 58.09375 18.703125 56.1875 22.546875 
Q 54.296875 26.40625 52.796875 31.09375 
Q 51.296875 35.796875 50.09375 42.09375 
z
" id="STHeitiTC-Medium-20154"/>
     <path d="M 71.796875 54.59375 
L 71.796875 67.09375 
L 22.203125 67.09375 
L 22.203125 54.59375 
z
M 54.90625 34.703125 
Q 60.59375 34.703125 65.84375 34.75 
Q 71.09375 34.796875 75.296875 34.890625 
Q 79.5 35 82.453125 35.09375 
Q 85.40625 35.203125 86.5 35.40625 
L 86.5 26.703125 
Q 85.40625 26.796875 82.34375 26.84375 
Q 79.296875 26.90625 75.09375 27 
Q 70.90625 27.09375 66.046875 27.140625 
Q 61.203125 27.203125 56.59375 27.203125 
Q 57.5 24.296875 58.796875 21.34375 
Q 60.09375 18.40625 61.640625 15.703125 
Q 63.203125 13 65.09375 10.703125 
Q 67 8.40625 69.09375 6.796875 
Q 73.5 3.40625 76.09375 1.796875 
Q 78.703125 0.203125 80.25 0.546875 
Q 81.796875 0.90625 82.75 3.296875 
Q 83.703125 5.703125 84.703125 10.40625 
Q 86.5 8.40625 88.5 6.90625 
Q 90.5 5.40625 92.296875 4.90625 
Q 90.40625 -1.203125 88.90625 -4.546875 
Q 87.40625 -7.90625 85.40625 -9.046875 
Q 83.40625 -10.203125 80.5 -9.34375 
Q 77.59375 -8.5 72.90625 -6.296875 
Q 67.59375 -3.796875 63.296875 0.59375 
Q 59 5 54.90625 11.40625 
Q 53.203125 14 51.546875 17.953125 
Q 49.90625 21.90625 48.5 27.203125 
L 22.203125 27.203125 
L 22.203125 3 
L 39.796875 11.203125 
Q 39.703125 9.203125 40.25 7.203125 
Q 40.796875 5.203125 41.90625 3.40625 
L 24.203125 -5.40625 
Q 23 -6 21.546875 -6.84375 
Q 20.09375 -7.703125 18.59375 -8.640625 
Q 17.09375 -9.59375 15.75 -10.546875 
Q 14.40625 -11.5 13.40625 -12.203125 
Q 12.296875 -9.703125 10.640625 -7.453125 
Q 9 -5.203125 7.59375 -3.796875 
L 13.90625 -0.90625 
L 13.90625 64.5 
Q 13.90625 67.59375 13.75 70.25 
Q 13.59375 72.90625 13.203125 75.5 
Q 15 75.296875 17.546875 75.09375 
Q 20.09375 74.90625 24 74.796875 
Q 27.90625 74.703125 33.65625 74.640625 
Q 39.40625 74.59375 47.703125 74.59375 
Q 54.796875 74.59375 60.140625 74.640625 
Q 65.5 74.703125 69.453125 74.84375 
Q 73.40625 75 76.15625 75.140625 
Q 78.90625 75.296875 80.703125 75.5 
Q 80.40625 73 80.25 69.84375 
Q 80.09375 66.703125 80.09375 64.203125 
L 80.09375 55.40625 
Q 80.09375 53.59375 80.25 51.296875 
Q 80.40625 49 80.796875 46.40625 
Q 79.09375 46.5 77.09375 46.640625 
Q 75.09375 46.796875 72 46.84375 
Q 68.90625 46.90625 64.40625 47 
Q 59.90625 47.09375 53.40625 47.09375 
Q 53.59375 44.09375 54 40.84375 
Q 54.40625 37.59375 54.90625 34.703125 
z
M 46.90625 34.703125 
Q 46.40625 37.59375 45.953125 40.796875 
Q 45.5 44 45.203125 47.09375 
L 22.203125 47.09375 
L 22.203125 34.703125 
z
" id="STHeitiTC-Medium-27665"/>
     <path d="M 25.296875 61.40625 
Q 24.796875 62.796875 24.046875 64.5 
Q 23.296875 66.203125 22.5 67.953125 
Q 21.703125 69.703125 20.84375 71.25 
Q 20 72.796875 19.296875 74 
L 27.5 77.703125 
Q 29 75.09375 30.890625 71.4375 
Q 32.796875 67.796875 34.296875 64.59375 
z
M 46.796875 64 
Q 46.59375 65.5 46.25 67.34375 
Q 45.90625 69.203125 45.5 71.140625 
Q 45.09375 73.09375 44.6875 74.890625 
Q 44.296875 76.703125 43.90625 78 
L 52.703125 79.796875 
Q 53.5 77.203125 54.453125 73.453125 
Q 55.40625 69.703125 56.09375 66.203125 
z
M 70.40625 59.203125 
Q 77.296875 59.203125 82.4375 59.34375 
Q 87.59375 59.5 91.40625 59.796875 
L 91.40625 41.09375 
L 83.09375 41.09375 
L 83.09375 51.90625 
L 17.09375 51.90625 
L 17.09375 40.296875 
L 8.796875 40.296875 
L 8.796875 59.796875 
Q 12.90625 59.5 18.5 59.34375 
Q 24.09375 59.203125 31.59375 59.203125 
L 62.296875 59.203125 
Q 64 61.703125 65.796875 64.75 
Q 67.59375 67.796875 69.140625 70.796875 
Q 70.703125 73.796875 71.953125 76.390625 
Q 73.203125 79 73.703125 80.59375 
Q 75.796875 79.09375 78.34375 77.75 
Q 80.90625 76.40625 82.703125 75.703125 
Q 83.90625 75.203125 83.796875 74.75 
Q 83.703125 74.296875 82.296875 73.59375 
Q 81.40625 73.09375 78.59375 69.796875 
Q 75.796875 66.5 70.40625 59.203125 
z
M 47.09375 14 
Q 40.5 14 34.953125 13.953125 
Q 29.40625 13.90625 24.703125 13.75 
Q 20 13.59375 15.890625 13.390625 
Q 11.796875 13.203125 8.203125 12.90625 
L 8.203125 22.40625 
Q 11.90625 22.09375 15.953125 21.9375 
Q 20 21.796875 24.703125 21.640625 
Q 29.40625 21.5 34.953125 21.453125 
Q 40.5 21.40625 47.09375 21.40625 
L 47.09375 28.40625 
Q 56.296875 31.796875 61 35 
L 37.796875 35 
Q 28.703125 35 23.59375 34.703125 
L 23.59375 42.203125 
Q 26.5 42 29.09375 41.890625 
Q 31.703125 41.796875 34.59375 41.6875 
Q 37.5 41.59375 41.140625 41.59375 
Q 44.796875 41.59375 49.90625 41.59375 
Q 56.203125 41.59375 60.59375 41.640625 
Q 65 41.703125 68.046875 41.75 
Q 71.09375 41.796875 73.046875 41.890625 
Q 75 42 76.40625 42.203125 
L 76.40625 33.203125 
Q 75.09375 33.296875 73.5 32.9375 
Q 71.90625 32.59375 69.59375 31.6875 
Q 67.296875 30.796875 64 29.140625 
Q 60.703125 27.5 56 24.90625 
L 56 21.40625 
Q 67.90625 21.5 76.453125 21.703125 
Q 85 21.90625 91.796875 22.40625 
L 91.796875 12.90625 
Q 85 13.296875 76.453125 13.59375 
Q 67.90625 13.90625 56 14 
L 56 -0.59375 
Q 56 -2.90625 55.390625 -4.40625 
Q 54.796875 -5.90625 52.9375 -7 
Q 51.09375 -8.09375 47.59375 -8.9375 
Q 44.09375 -9.796875 38.296875 -10.796875 
Q 37.796875 -6 34.90625 -0.59375 
Q 38.796875 -0.90625 41.1875 -0.90625 
Q 43.59375 -0.90625 44.890625 -0.453125 
Q 46.203125 0 46.640625 0.75 
Q 47.09375 1.5 47.09375 2.703125 
z
" id="STHeitiTC-Medium-23398"/>
    </defs>
    <g transform="translate(83.653446 48.240564)scale(0.1 -0.1)">
     <use xlink:href="#STHeitiTC-Medium-20154"/>
     <use x="99.999985" xlink:href="#STHeitiTC-Medium-27665"/>
     <use x="199.999969" xlink:href="#STHeitiTC-Medium-25991"/>
     <use x="299.999954" xlink:href="#STHeitiTC-Medium-23398"/>
     <use x="399.999939" xlink:href="#STHeitiTC-Medium-20986"/>
     <use x="499.999924" xlink:href="#STHeitiTC-Medium-29256"/>
     <use x="599.999908" xlink:href="#STHeitiTC-Medium-31038"/>
    </g>
   </g>
   <g id="text_4">
    <!-- 5.7% -->
    <defs>
     <path d="M 49.90625 71 
L 24.203125 71 
L 20.90625 53.09375 
Q 25.203125 54.203125 29 54.203125 
Q 38.703125 54.203125 45.203125 47.34375 
Q 51.703125 40.5 51.703125 29.890625 
Q 51.703125 19.296875 44.703125 11.75 
Q 37.703125 4.203125 26 4.203125 
Q 17 4.203125 10.796875 9.703125 
Q 4.59375 15.203125 3.296875 24.796875 
L 12 24.796875 
Q 13.296875 18.796875 17.296875 15.59375 
Q 21.296875 12.40625 26.40625 12.40625 
Q 33.203125 12.40625 38.09375 17.546875 
Q 43 22.703125 43 30.296875 
Q 43 37.09375 38.75 41.5 
Q 34.5 45.90625 27.296875 45.90625 
Q 20.09375 45.90625 10.5 41.796875 
L 17.5 79.203125 
L 49.90625 79.203125 
z
" id="STHeitiTC-Medium-53"/>
     <path d="M 53.796875 79.203125 
L 14.59375 3.90625 
L 7.5 7.703125 
L 40.5 71 
L 6.5 71 
L 6.5 79.203125 
z
" id="STHeitiTC-Medium-55"/>
    </defs>
    <g transform="translate(181.897101 94.562362)scale(0.1 -0.1)">
     <use xlink:href="#STHeitiTC-Medium-53"/>
     <use x="55.399994" xlink:href="#STHeitiTC-Medium-46"/>
     <use x="83.099991" xlink:href="#STHeitiTC-Medium-55"/>
     <use x="138.499985" xlink:href="#STHeitiTC-Medium-37"/>
    </g>
   </g>
   <g id="text_5">
    <!-- 电子工业出版社 -->
    <defs>
     <path d="M 17 25.09375 
L 37.90625 25.09375 
L 37.90625 38.59375 
L 17 38.59375 
z
M 17 58.5 
L 17 45.296875 
L 37.90625 45.296875 
L 37.90625 58.5 
z
M 46.09375 65.703125 
Q 57.09375 65.796875 64.6875 66.09375 
Q 72.296875 66.40625 77.203125 66.90625 
Q 76.796875 64.703125 76.640625 61.84375 
Q 76.5 59 76.5 55.59375 
L 76.5 27.796875 
Q 76.5 24.296875 76.75 20.1875 
Q 77 16.09375 77.5 12.296875 
L 68.09375 12.296875 
L 68.09375 18.296875 
L 46.09375 18.296875 
L 46.09375 6 
Q 46.09375 4.5 46.546875 3.546875 
Q 47 2.59375 48.453125 2.046875 
Q 49.90625 1.5 52.59375 1.203125 
Q 55.296875 0.90625 59.796875 0.796875 
Q 61.09375 0.796875 63.34375 0.796875 
Q 65.59375 0.796875 67.9375 0.890625 
Q 70.296875 1 72.34375 1.09375 
Q 74.40625 1.203125 75.40625 1.296875 
Q 77.703125 1.59375 79.140625 2.046875 
Q 80.59375 2.5 81.5 3.75 
Q 82.40625 5 82.90625 7.25 
Q 83.40625 9.5 83.703125 13.40625 
Q 85.09375 10.203125 87.296875 8.75 
Q 89.5 7.296875 92.09375 7.296875 
Q 90.796875 3 89.6875 0.5 
Q 88.59375 -2 86.9375 -3.296875 
Q 85.296875 -4.59375 82.796875 -5.09375 
Q 80.296875 -5.59375 76.09375 -5.90625 
Q 74.40625 -6 72 -6.09375 
Q 69.59375 -6.203125 67.140625 -6.203125 
Q 64.703125 -6.203125 62.453125 -6.203125 
Q 60.203125 -6.203125 58.703125 -6.203125 
Q 51.703125 -6 47.546875 -5.546875 
Q 43.40625 -5.09375 41.25 -4.1875 
Q 39.09375 -3.296875 38.5 -1.75 
Q 37.90625 -0.203125 37.90625 2.203125 
L 37.90625 18.296875 
L 17 18.296875 
L 17 8.09375 
L 7.796875 8.09375 
Q 8.09375 10.40625 8.34375 12.296875 
Q 8.59375 14.203125 8.6875 16.046875 
Q 8.796875 17.90625 8.84375 19.953125 
Q 8.90625 22 8.90625 24.59375 
L 8.90625 55.59375 
Q 8.90625 59 8.703125 61.953125 
Q 8.5 64.90625 8.203125 66.90625 
Q 13.296875 66.40625 20.390625 66.09375 
Q 27.5 65.796875 37.90625 65.703125 
Q 37.90625 71.296875 37.59375 75.09375 
Q 37.296875 78.90625 36.796875 81.296875 
Q 37.90625 81.09375 39.34375 81 
Q 40.796875 80.90625 42.296875 80.796875 
Q 43.796875 80.703125 45.1875 80.703125 
Q 46.59375 80.703125 47.5 80.703125 
Q 49.09375 80.796875 49.25 79.890625 
Q 49.40625 79 48 78.5 
Q 47.203125 78.203125 46.640625 77.09375 
Q 46.09375 76 46.09375 75.09375 
z
M 68.09375 58.5 
L 46.09375 58.5 
L 46.09375 45.296875 
L 68.09375 45.296875 
z
M 68.09375 38.59375 
L 46.09375 38.59375 
L 46.09375 25.09375 
L 68.09375 25.09375 
z
" id="STHeitiTC-Medium-30005"/>
     <path d="M 55.09375 40.09375 
Q 67.703125 40.203125 76.640625 40.390625 
Q 85.59375 40.59375 92.796875 41.09375 
L 92.796875 31.40625 
Q 85.59375 31.796875 76.640625 32.046875 
Q 67.703125 32.296875 55.09375 32.40625 
L 55.09375 1.40625 
Q 55.09375 -0.90625 54.1875 -2.703125 
Q 53.296875 -4.5 51.09375 -5.75 
Q 48.90625 -7 45.25 -7.703125 
Q 41.59375 -8.40625 36.09375 -8.5 
Q 36 -6.296875 35.25 -3.9375 
Q 34.5 -1.59375 32.703125 1.59375 
Q 37.09375 1.203125 39.75 1.296875 
Q 42.40625 1.40625 43.84375 1.953125 
Q 45.296875 2.5 45.796875 3.453125 
Q 46.296875 4.40625 46.296875 5.703125 
L 46.296875 32.40625 
Q 33.203125 32.40625 23.84375 32.15625 
Q 14.5 31.90625 7.203125 31.40625 
L 7.203125 41.09375 
Q 14.59375 40.59375 23.890625 40.34375 
Q 33.203125 40.09375 46.296875 40.09375 
L 46.296875 53.703125 
Q 49.203125 55 51.546875 56.25 
Q 53.90625 57.5 56.203125 58.953125 
Q 58.5 60.40625 60.953125 62.25 
Q 63.40625 64.09375 66.40625 66.59375 
L 31.296875 66.59375 
Q 26.5 66.59375 23.203125 66.5 
Q 19.90625 66.40625 16.5 66.203125 
L 16.5 75 
Q 20.203125 74.796875 23.390625 74.640625 
Q 26.59375 74.5 30.34375 74.453125 
Q 34.09375 74.40625 38.75 74.34375 
Q 43.40625 74.296875 50 74.296875 
Q 58 74.296875 63.546875 74.34375 
Q 69.09375 74.40625 72.9375 74.453125 
Q 76.796875 74.5 79.25 74.640625 
Q 81.703125 74.796875 83.5 75 
L 83.5 66.296875 
Q 81 66.203125 79 65.5 
Q 77 64.796875 75.296875 63.59375 
L 55.09375 49.203125 
z
" id="STHeitiTC-Medium-23376"/>
     <path d="M 54.40625 6.703125 
Q 67.40625 6.703125 77 6.890625 
Q 86.59375 7.09375 93.90625 7.59375 
L 93.90625 -2.203125 
Q 86 -1.796875 75.34375 -1.546875 
Q 64.703125 -1.296875 50 -1.296875 
Q 35.296875 -1.296875 24.640625 -1.546875 
Q 14 -1.796875 6.09375 -2.203125 
L 6.09375 7.59375 
Q 13.296875 7.203125 22.75 7 
Q 32.203125 6.796875 44.90625 6.703125 
L 44.90625 60.796875 
Q 34.59375 60.703125 27.09375 60.5 
Q 19.59375 60.296875 13.703125 59.90625 
L 13.703125 69.40625 
Q 20.296875 68.90625 28.890625 68.703125 
Q 37.5 68.5 49.703125 68.5 
Q 61.90625 68.5 70.5 68.703125 
Q 79.09375 68.90625 85.703125 69.40625 
L 85.703125 59.90625 
Q 79.796875 60.296875 72.25 60.5 
Q 64.703125 60.703125 54.40625 60.796875 
z
" id="STHeitiTC-Medium-24037"/>
     <path d="M 35 64.59375 
Q 35 68.09375 34.796875 71.890625 
Q 34.59375 75.703125 34.203125 78.796875 
Q 36.5 78.296875 39.203125 78.09375 
Q 41.90625 77.90625 44.5 78 
Q 45.59375 78 45.796875 77.546875 
Q 46 77.09375 45.09375 76.296875 
Q 44.09375 75.5 43.75 74.84375 
Q 43.40625 74.203125 43.40625 73.09375 
L 43.40625 3.703125 
L 54.796875 3.703125 
L 54.796875 64.40625 
Q 54.796875 67.59375 54.59375 71.25 
Q 54.40625 74.90625 54 78.59375 
Q 56.203125 78.09375 58.953125 77.9375 
Q 61.703125 77.796875 64.296875 77.90625 
Q 65.40625 77.90625 65.59375 77.453125 
Q 65.796875 77 64.90625 76.203125 
Q 63.90625 75.40625 63.546875 74.703125 
Q 63.203125 74 63.203125 72.90625 
L 63.203125 3.703125 
Q 74.5 3.703125 82.25 3.953125 
Q 90 4.203125 93.203125 4.59375 
L 93.203125 -4.90625 
Q 91.40625 -4.703125 88.40625 -4.5 
Q 85.40625 -4.296875 80.296875 -4.1875 
Q 75.203125 -4.09375 67.59375 -4.046875 
Q 60 -4 49.09375 -4 
Q 39.203125 -4 32.140625 -4.046875 
Q 25.09375 -4.09375 20.1875 -4.1875 
Q 15.296875 -4.296875 12.09375 -4.5 
Q 8.90625 -4.703125 6.703125 -4.90625 
L 6.703125 4.59375 
Q 11.09375 4.09375 18.4375 3.890625 
Q 25.796875 3.703125 35 3.703125 
z
M 20.59375 19.40625 
Q 19.796875 24 18.59375 28.953125 
Q 17.40625 33.90625 15.796875 38.59375 
Q 14.203125 43.296875 12.34375 47.59375 
Q 10.5 51.90625 8.5 55.296875 
L 17.703125 59.203125 
Q 19 55.09375 20.5 50.546875 
Q 22 46 23.703125 41.296875 
Q 25.40625 36.59375 27.25 31.890625 
Q 29.09375 27.203125 30.90625 22.796875 
z
M 90 56.703125 
Q 89.5 56.40625 88.75 55.296875 
Q 88 54.203125 87.25 52.640625 
Q 86.5 51.09375 85.75 49.296875 
Q 85 47.5 84.5 45.796875 
Q 82.09375 37.296875 79.890625 30.84375 
Q 77.703125 24.40625 76.09375 20.296875 
Q 73.796875 21.59375 72 22 
Q 70.203125 22.40625 67.5 22.203125 
Q 69.40625 25.90625 71.046875 30.546875 
Q 72.703125 35.203125 74.140625 40.34375 
Q 75.59375 45.5 76.75 50.890625 
Q 77.90625 56.296875 78.796875 61.59375 
Q 81.09375 60.5 84.25 59.59375 
Q 87.40625 58.703125 90 58.5 
Q 91.09375 58.40625 91.09375 57.90625 
Q 91.09375 57.40625 90 56.703125 
z
" id="STHeitiTC-Medium-19994"/>
    </defs>
    <g transform="translate(54.973102 80.91674)scale(0.1 -0.1)">
     <use xlink:href="#STHeitiTC-Medium-30005"/>
     <use x="99.999985" xlink:href="#STHeitiTC-Medium-23376"/>
     <use x="199.999969" xlink:href="#STHeitiTC-Medium-24037"/>
     <use x="299.999954" xlink:href="#STHeitiTC-Medium-19994"/>
     <use x="399.999939" xlink:href="#STHeitiTC-Medium-20986"/>
     <use x="499.999924" xlink:href="#STHeitiTC-Medium-29256"/>
     <use x="599.999908" xlink:href="#STHeitiTC-Medium-31038"/>
    </g>
   </g>
   <g id="text_6">
    <!-- 3.8% -->
    <g transform="translate(165.1669 113.623465)scale(0.1 -0.1)">
     <use xlink:href="#STHeitiTC-Medium-51"/>
     <use x="55.399994" xlink:href="#STHeitiTC-Medium-46"/>
     <use x="83.099991" xlink:href="#STHeitiTC-Medium-56"/>
     <use x="138.499985" xlink:href="#STHeitiTC-Medium-37"/>
    </g>
   </g>
   <g id="text_7">
    <!-- 人民邮电出版社 -->
    <defs>
     <path d="M 92.203125 16.5 
Q 91.796875 12.59375 90.9375 9.9375 
Q 90.09375 7.296875 88.296875 5.5 
Q 86.5 3.703125 83.59375 2.59375 
Q 80.703125 1.5 76.203125 0.703125 
Q 75.703125 3.5 74.796875 5.890625 
Q 73.90625 8.296875 72.09375 10.90625 
Q 75.703125 10.796875 77.890625 11.09375 
Q 80.09375 11.40625 81.34375 12.25 
Q 82.59375 13.09375 83.09375 14.640625 
Q 83.59375 16.203125 83.703125 18.59375 
Q 83.796875 21.203125 83.1875 24.09375 
Q 82.59375 27 81.390625 29.890625 
Q 80.203125 32.796875 78.390625 35.5 
Q 76.59375 38.203125 74.296875 40.5 
L 80.296875 66.40625 
L 67.09375 66.40625 
L 67.09375 -12.296875 
L 58.90625 -12.296875 
Q 59.296875 -7.296875 59.4375 -2.796875 
Q 59.59375 1.703125 59.59375 7.40625 
L 59.59375 61.59375 
Q 59.59375 65.90625 59.4375 68.796875 
Q 59.296875 71.703125 59 73.90625 
Q 64.703125 73.296875 75 73.296875 
Q 80.296875 73.296875 83.890625 73.4375 
Q 87.5 73.59375 90.5 73.90625 
L 81.296875 41.40625 
Q 84.09375 38.5 86.296875 35.296875 
Q 88.5 32.09375 89.890625 28.796875 
Q 91.296875 25.5 91.890625 22.34375 
Q 92.5 19.203125 92.203125 16.5 
z
M 44.59375 30.796875 
L 33.796875 30.796875 
L 33.796875 11.203125 
L 44.59375 11.203125 
z
M 15.796875 -7.203125 
L 7.40625 -7.203125 
Q 7.90625 -3.09375 8.046875 0.84375 
Q 8.203125 4.796875 8.203125 9.296875 
L 8.203125 51.90625 
Q 8.203125 55.40625 8.046875 58.296875 
Q 7.90625 61.203125 7.59375 63.203125 
Q 8.796875 63 10.25 62.84375 
Q 11.703125 62.703125 13.890625 62.59375 
Q 16.09375 62.5 19.140625 62.390625 
Q 22.203125 62.296875 26.40625 62.296875 
Q 26.296875 70 26.09375 74.84375 
Q 25.90625 79.703125 25.59375 81.703125 
Q 27.90625 81.5 30.40625 81.34375 
Q 32.90625 81.203125 35 81.203125 
Q 35.90625 81.203125 36.046875 80.640625 
Q 36.203125 80.09375 35.296875 79.203125 
Q 33.796875 77.703125 33.796875 73.40625 
L 33.796875 62.296875 
Q 38.703125 62.296875 42 62.390625 
Q 45.296875 62.5 47.4375 62.640625 
Q 49.59375 62.796875 50.796875 62.890625 
Q 52 63 52.703125 63.203125 
Q 52.5 60.90625 52.34375 57.84375 
Q 52.203125 54.796875 52.203125 51.90625 
L 52.203125 12 
Q 52.203125 9.40625 52.203125 7.296875 
Q 52.203125 5.203125 52.296875 3.296875 
Q 52.40625 1.40625 52.453125 -0.4375 
Q 52.5 -2.296875 52.703125 -4.5 
L 44.59375 -4.5 
L 44.59375 4.296875 
L 15.796875 4.296875 
z
M 15.796875 11.203125 
L 26.40625 11.203125 
L 26.40625 30.796875 
L 15.796875 30.796875 
z
M 15.796875 55.40625 
L 15.796875 37.59375 
L 26.40625 37.59375 
L 26.40625 55.40625 
z
M 44.59375 55.40625 
L 33.796875 55.40625 
L 33.796875 37.59375 
L 44.59375 37.59375 
z
" id="STHeitiTC-Medium-37038"/>
    </defs>
    <g transform="translate(52.168266 113.689111)scale(0.1 -0.1)">
     <use xlink:href="#STHeitiTC-Medium-20154"/>
     <use x="99.999985" xlink:href="#STHeitiTC-Medium-27665"/>
     <use x="199.999969" xlink:href="#STHeitiTC-Medium-37038"/>
     <use x="299.999954" xlink:href="#STHeitiTC-Medium-30005"/>
     <use x="399.999939" xlink:href="#STHeitiTC-Medium-20986"/>
     <use x="499.999924" xlink:href="#STHeitiTC-Medium-29256"/>
     <use x="599.999908" xlink:href="#STHeitiTC-Medium-31038"/>
    </g>
   </g>
   <g id="text_8">
    <!-- 3.2% -->
    <defs>
     <path d="M 52.5 6 
L 1.40625 6 
L 29.90625 36.796875 
Q 37.09375 44.40625 40.09375 48.796875 
Q 43.09375 53.203125 43.09375 58.796875 
Q 43.09375 64.40625 38.75 68.59375 
Q 34.40625 72.796875 27.953125 72.796875 
Q 21.5 72.796875 17.203125 68.25 
Q 12.90625 63.703125 12.296875 55.296875 
L 4 55.296875 
Q 4.5 67.09375 11.5 74.046875 
Q 18.5 81 28.453125 81 
Q 38.40625 81 44.953125 74.546875 
Q 51.5 68.09375 51.5 58.796875 
Q 51.5 52 47.890625 46.09375 
Q 44.296875 40.203125 37 32.40625 
L 20.203125 14.296875 
L 52.5 14.296875 
z
" id="STHeitiTC-Medium-50"/>
    </defs>
    <g transform="translate(168.272861 134.472642)scale(0.1 -0.1)">
     <use xlink:href="#STHeitiTC-Medium-51"/>
     <use x="55.399994" xlink:href="#STHeitiTC-Medium-46"/>
     <use x="83.099991" xlink:href="#STHeitiTC-Medium-50"/>
     <use x="138.499985" xlink:href="#STHeitiTC-Medium-37"/>
    </g>
   </g>
   <g id="text_9">
    <!-- 青岛出版社 -->
    <defs>
     <path d="M 28.59375 -8.90625 
L 19.90625 -8.90625 
Q 20.296875 -4.796875 20.5 -1.1875 
Q 20.703125 2.40625 20.703125 5.40625 
L 20.703125 26.796875 
Q 20.703125 29.40625 20.59375 31.84375 
Q 20.5 34.296875 20.40625 35.5 
Q 23.796875 35.296875 30.6875 35.140625 
Q 37.59375 35 49.703125 35 
Q 61.796875 35 69.34375 35.140625 
Q 76.90625 35.296875 80.203125 35.5 
Q 80.09375 34.296875 80 31.84375 
Q 79.90625 29.40625 79.90625 26.796875 
L 79.90625 0.09375 
Q 79.90625 -3.203125 79.546875 -5.140625 
Q 79.203125 -7.09375 77.59375 -8.140625 
Q 76 -9.203125 72.75 -9.640625 
Q 69.5 -10.09375 63.703125 -10.40625 
Q 63.203125 -8.09375 62.34375 -5.84375 
Q 61.5 -3.59375 60.09375 -1.59375 
Q 64.296875 -1.90625 66.640625 -1.84375 
Q 69 -1.796875 70.140625 -1.296875 
Q 71.296875 -0.796875 71.59375 0.140625 
Q 71.90625 1.09375 71.90625 2.59375 
L 71.90625 4.90625 
L 28.59375 4.90625 
z
M 71.90625 29.203125 
L 28.59375 29.203125 
L 28.59375 22.90625 
L 71.90625 22.90625 
z
M 28.59375 10.40625 
L 71.90625 10.40625 
L 71.90625 17.40625 
L 28.59375 17.40625 
z
M 53.5 59.796875 
Q 57.90625 59.796875 62.203125 59.890625 
Q 66.5 60 70.390625 60.140625 
Q 74.296875 60.296875 77.59375 60.4375 
Q 80.90625 60.59375 83.203125 60.796875 
L 83.203125 52.703125 
Q 80.90625 52.90625 77.59375 53.09375 
Q 74.296875 53.296875 70.390625 53.390625 
Q 66.5 53.5 62.203125 53.59375 
Q 57.90625 53.703125 53.5 53.703125 
L 53.5 47 
Q 58.40625 47 64.34375 47.09375 
Q 70.296875 47.203125 75.84375 47.296875 
Q 81.40625 47.40625 86 47.59375 
Q 90.59375 47.796875 92.90625 48 
L 92.90625 39.90625 
Q 90.296875 40.203125 85.09375 40.34375 
Q 79.90625 40.5 73.65625 40.640625 
Q 67.40625 40.796875 61.046875 40.84375 
Q 54.703125 40.90625 49.90625 40.90625 
Q 45.09375 40.90625 38.75 40.84375 
Q 32.40625 40.796875 26.203125 40.640625 
Q 20 40.5 14.75 40.34375 
Q 9.5 40.203125 7 39.90625 
L 7 48 
Q 9.40625 47.796875 13.796875 47.640625 
Q 18.203125 47.5 23.59375 47.34375 
Q 29 47.203125 34.703125 47.09375 
Q 40.40625 47 45.296875 47 
L 45.296875 53.703125 
Q 41 53.703125 36.796875 53.59375 
Q 32.59375 53.5 28.75 53.390625 
Q 24.90625 53.296875 21.703125 53.09375 
Q 18.5 52.90625 16.296875 52.703125 
L 16.296875 60.796875 
Q 18.59375 60.59375 21.796875 60.4375 
Q 25 60.296875 28.796875 60.140625 
Q 32.59375 60 36.796875 59.890625 
Q 41 59.796875 45.296875 59.796875 
L 45.296875 65.90625 
Q 40.703125 65.90625 35.75 65.796875 
Q 30.796875 65.703125 26.25 65.59375 
Q 21.703125 65.5 17.890625 65.296875 
Q 14.09375 65.09375 11.90625 64.90625 
L 11.90625 73 
Q 14.203125 72.796875 18 72.59375 
Q 21.796875 72.40625 26.34375 72.296875 
Q 30.90625 72.203125 35.796875 72.09375 
Q 40.703125 72 45.296875 72 
Q 45.203125 74.296875 45.140625 76.75 
Q 45.09375 79.203125 44.90625 80.40625 
Q 47.09375 80.09375 49.546875 80.046875 
Q 52 80 54.40625 80.203125 
Q 55.59375 80.40625 55.75 79.90625 
Q 55.90625 79.40625 54.796875 78.59375 
Q 54.203125 78.09375 53.84375 77.046875 
Q 53.5 76 53.5 75.09375 
L 53.5 72 
Q 58.09375 72 63.140625 72.09375 
Q 68.203125 72.203125 72.796875 72.34375 
Q 77.40625 72.5 81.25 72.640625 
Q 85.09375 72.796875 87.40625 73 
L 87.40625 64.90625 
Q 85.09375 65.09375 81.25 65.25 
Q 77.40625 65.40625 72.796875 65.546875 
Q 68.203125 65.703125 63.140625 65.796875 
Q 58.09375 65.90625 53.5 65.90625 
z
" id="STHeitiTC-Medium-38738"/>
     <path d="M 35.09375 18.09375 
Q 35.09375 20.703125 34.796875 22.5 
Q 34.5 24.296875 34 25.703125 
Q 34.796875 25.5 35.9375 25.296875 
Q 37.09375 25.09375 38.390625 24.9375 
Q 39.703125 24.796875 41 24.640625 
Q 42.296875 24.5 43.296875 24.40625 
Q 44.59375 24.296875 44.75 23.9375 
Q 44.90625 23.59375 43.90625 22.59375 
Q 43.296875 21.90625 43.046875 17.203125 
Q 42.796875 12.5 42.796875 4.703125 
L 57.90625 5.09375 
L 57.90625 16.203125 
Q 57.90625 18.09375 57.796875 19.296875 
Q 57.703125 20.5 57.40625 21.703125 
Q 60 21.203125 62.390625 21 
Q 64.796875 20.796875 66.40625 20.90625 
Q 67.296875 21 67.4375 20.5 
Q 67.59375 20 66.796875 19.5 
Q 66 18.90625 65.796875 18.40625 
Q 65.59375 17.90625 65.59375 16.90625 
L 65.59375 2.203125 
Q 65.59375 0.5 65.75 -0.75 
Q 65.90625 -2 66.296875 -3.703125 
L 57.90625 -3.703125 
L 57.90625 -0.90625 
L 30.796875 -2.296875 
Q 23.90625 -2.703125 19.296875 -3 
Q 14.703125 -3.296875 11.5 -3.5 
Q 12 -1.90625 12.203125 -0.75 
Q 12.40625 0.40625 12.40625 1.796875 
L 12.40625 14.296875 
Q 12.40625 18 11.703125 20.203125 
Q 14.09375 19.703125 16.84375 19.5 
Q 19.59375 19.296875 21.5 19.5 
Q 22.703125 19.703125 22.75 19.203125 
Q 22.796875 18.703125 21.703125 18.09375 
Q 21.203125 17.796875 20.84375 16.75 
Q 20.5 15.703125 20.5 14.40625 
L 20.5 4 
L 35.09375 4.40625 
z
M 42.703125 41.09375 
Q 42.203125 45 41.09375 49.140625 
Q 40 53.296875 38.796875 55.90625 
L 47.703125 58 
Q 48 56.796875 48.453125 55.046875 
Q 48.90625 53.296875 49.546875 51.34375 
Q 50.203125 49.40625 50.890625 47.296875 
Q 51.59375 45.203125 52.40625 43.296875 
z
M 37.59375 68.796875 
Q 38.40625 72 38.84375 75.296875 
Q 39.296875 78.59375 39.09375 80.296875 
Q 44.90625 78.90625 50.90625 78.59375 
Q 52.296875 78.5 52.296875 78 
Q 52.296875 77.5 51 77 
Q 50.203125 76.59375 48.796875 74.25 
Q 47.40625 71.90625 46.296875 68.796875 
L 61.09375 68.796875 
Q 68.203125 68.796875 72.890625 69.046875 
Q 77.59375 69.296875 80 69.703125 
Q 79.703125 68.203125 79.390625 65.75 
Q 79.09375 63.296875 78.796875 60.34375 
Q 78.5 57.40625 78.203125 54.203125 
Q 77.90625 51 77.703125 48.09375 
Q 77.5 45.40625 76.796875 43.546875 
Q 76.09375 41.703125 74.34375 40.453125 
Q 72.59375 39.203125 69.4375 38.390625 
Q 66.296875 37.59375 61.296875 36.90625 
Q 61.09375 39.40625 60.25 42.25 
Q 59.40625 45.09375 57.796875 47.203125 
Q 63.296875 45.796875 66.34375 46.546875 
Q 69.40625 47.296875 69.703125 50.09375 
L 71 62 
L 28 62 
L 28 34.703125 
L 71.703125 35.703125 
Q 76.40625 35.703125 80.5 35.890625 
Q 84.59375 36.09375 88.40625 36.5 
Q 88.203125 35.09375 88.046875 32.25 
Q 87.90625 29.40625 87.75 25.796875 
Q 87.59375 22.203125 87.5 18.25 
Q 87.40625 14.296875 87.25 10.75 
Q 87.09375 7.203125 86.9375 4.390625 
Q 86.796875 1.59375 86.703125 0.203125 
Q 86.296875 -3.40625 85.4375 -5.40625 
Q 84.59375 -7.40625 82.9375 -8.546875 
Q 81.296875 -9.703125 78.6875 -10.296875 
Q 76.09375 -10.90625 72.296875 -11.59375 
Q 72.09375 -9.40625 70.9375 -6.65625 
Q 69.796875 -3.90625 68 -1.59375 
Q 71 -1.703125 72.953125 -1.640625 
Q 74.90625 -1.59375 76.09375 -1.09375 
Q 77.296875 -0.59375 77.796875 0.59375 
Q 78.296875 1.796875 78.296875 3.90625 
L 79.203125 28.796875 
L 35.703125 27.796875 
Q 30.90625 27.796875 26.75 27.59375 
Q 22.59375 27.40625 19 27 
Q 19.40625 29.5 19.546875 32 
Q 19.703125 34.5 19.703125 37.09375 
L 19.703125 60.703125 
Q 19.703125 65.5 19 69.59375 
Q 20.296875 69.40625 22.34375 69.296875 
Q 24.40625 69.203125 26.953125 69.046875 
Q 29.5 68.90625 32.25 68.84375 
Q 35 68.796875 37.59375 68.796875 
z
" id="STHeitiTC-Medium-23707"/>
    </defs>
    <g transform="translate(65.577834 139.485687)scale(0.1 -0.1)">
     <use xlink:href="#STHeitiTC-Medium-38738"/>
     <use x="99.999985" xlink:href="#STHeitiTC-Medium-23707"/>
     <use x="199.999969" xlink:href="#STHeitiTC-Medium-20986"/>
     <use x="299.999954" xlink:href="#STHeitiTC-Medium-29256"/>
     <use x="399.999939" xlink:href="#STHeitiTC-Medium-31038"/>
    </g>
   </g>
   <g id="text_10">
    <!-- 3.2% -->
    <g transform="translate(164.67808 148.543502)scale(0.1 -0.1)">
     <use xlink:href="#STHeitiTC-Medium-51"/>
     <use x="55.399994" xlink:href="#STHeitiTC-Medium-46"/>
     <use x="83.099991" xlink:href="#STHeitiTC-Medium-50"/>
     <use x="138.499985" xlink:href="#STHeitiTC-Medium-37"/>
    </g>
   </g>
   <g id="text_11">
    <!-- 北京航天航空大学出版社 -->
    <defs>
     <path d="M 61.90625 43.796875 
Q 70.203125 48.703125 75.25 52.5 
Q 80.296875 56.296875 83.703125 60.203125 
Q 85.09375 57.90625 86.84375 55.703125 
Q 88.59375 53.5 90.296875 51.90625 
Q 91.296875 51.09375 91.1875 50.640625 
Q 91.09375 50.203125 89.5 50 
Q 88.90625 49.90625 86.546875 48.796875 
Q 84.203125 47.703125 80.5 45.75 
Q 76.796875 43.796875 72.046875 41.1875 
Q 67.296875 38.59375 61.90625 35.5 
L 61.90625 7.09375 
Q 61.90625 5.40625 62.296875 4.25 
Q 62.703125 3.09375 63.75 2.4375 
Q 64.796875 1.796875 66.6875 1.546875 
Q 68.59375 1.296875 71.59375 1.296875 
Q 75 1.296875 77.09375 1.640625 
Q 79.203125 2 80.453125 3.390625 
Q 81.703125 4.796875 82.390625 7.75 
Q 83.09375 10.703125 83.59375 15.796875 
Q 86.703125 12.796875 89.09375 11.546875 
Q 91.5 10.296875 93.796875 10.09375 
Q 92 4.203125 90.453125 0.796875 
Q 88.90625 -2.59375 86.546875 -4.296875 
Q 84.203125 -6 80.640625 -6.453125 
Q 77.09375 -6.90625 71.40625 -6.90625 
Q 65.40625 -6.90625 61.84375 -6.5 
Q 58.296875 -6.09375 56.5 -4.890625 
Q 54.703125 -3.703125 54.140625 -1.34375 
Q 53.59375 1 53.59375 4.90625 
L 53.59375 65.90625 
Q 53.59375 69.703125 53.4375 72.953125 
Q 53.296875 76.203125 53.09375 77.90625 
Q 55.703125 77.703125 58.203125 77.59375 
Q 60.703125 77.5 62.796875 77.59375 
Q 64.203125 77.59375 64.453125 77.09375 
Q 64.703125 76.59375 63.40625 75.59375 
Q 61.90625 74.5 61.90625 72.796875 
z
M 15.203125 44.203125 
Q 13.296875 44.203125 11.84375 44.09375 
Q 10.40625 44 8.703125 43.703125 
L 8.703125 52.796875 
Q 10.40625 52.5 11.84375 52.390625 
Q 13.296875 52.296875 15.203125 52.296875 
L 31.796875 52.296875 
L 31.796875 63.09375 
Q 31.796875 68.203125 31.546875 72.046875 
Q 31.296875 75.90625 30.796875 77 
Q 33.703125 76.703125 36.203125 76.546875 
Q 38.703125 76.40625 40.703125 76.59375 
Q 44.40625 76.90625 41.40625 74.703125 
Q 40.59375 74.09375 40.296875 73.25 
Q 40 72.40625 40 71.5 
L 40 8.203125 
Q 40 0 40.59375 -8.09375 
L 30.90625 -8.09375 
Q 31.296875 -4.09375 31.546875 -0.046875 
Q 31.796875 4 31.796875 9.59375 
Q 25.40625 6.703125 20.5 4.203125 
Q 15.59375 1.703125 11.796875 -0.296875 
Q 10.796875 2 9.1875 5 
Q 7.59375 8 6.203125 10.203125 
Q 9.203125 10.59375 11.890625 11.09375 
Q 14.59375 11.59375 17.546875 12.34375 
Q 20.5 13.09375 23.890625 14.1875 
Q 27.296875 15.296875 31.796875 17 
L 31.796875 44.203125 
z
" id="STHeitiTC-Medium-21271"/>
     <path d="M 30 33.5 
L 71 33.5 
L 71 46.703125 
L 30 46.703125 
z
M 85.09375 -3.40625 
Q 81.40625 1.09375 76.90625 5.296875 
Q 72.40625 9.5 66.59375 13.796875 
L 72.40625 19.40625 
Q 75.796875 17 78.34375 15.140625 
Q 80.90625 13.296875 83.09375 11.546875 
Q 85.296875 9.796875 87.4375 8 
Q 89.59375 6.203125 92.296875 3.90625 
z
M 35.703125 16.09375 
Q 38.59375 14.703125 34.796875 13.59375 
Q 34.09375 13.40625 33.046875 12.546875 
Q 32 11.703125 29.40625 9.40625 
Q 26.09375 6.5 22.4375 3.5 
Q 18.796875 0.5 14.296875 -2.796875 
Q 13.5 -1.296875 11.703125 0.203125 
Q 9.90625 1.703125 7.09375 2.796875 
Q 13.40625 5.703125 18.453125 10.046875 
Q 23.5 14.40625 28.203125 20.90625 
Q 29.796875 19.59375 31.9375 18.25 
Q 34.09375 16.90625 35.703125 16.09375 
z
M 56 -2.09375 
Q 56 -4.203125 55.390625 -5.546875 
Q 54.796875 -6.90625 52.9375 -7.90625 
Q 51.09375 -8.90625 47.6875 -9.65625 
Q 44.296875 -10.40625 38.796875 -11.09375 
Q 38.5 -8.5 37.453125 -5.796875 
Q 36.40625 -3.09375 34.09375 -0.5 
Q 37.90625 -1 40.453125 -1.09375 
Q 43 -1.203125 44.5 -0.84375 
Q 46 -0.5 46.640625 0.296875 
Q 47.296875 1.09375 47.296875 2.40625 
L 47.296875 26.59375 
Q 38.296875 26.5 32.046875 26.34375 
Q 25.796875 26.203125 20.90625 25.90625 
Q 21.296875 29 21.5 32.546875 
Q 21.703125 36.09375 21.703125 40.09375 
Q 21.703125 43.90625 21.5 47.65625 
Q 21.296875 51.40625 20.90625 54.296875 
Q 23.59375 54.09375 26.640625 53.9375 
Q 29.703125 53.796875 33.296875 53.6875 
Q 36.90625 53.59375 41.15625 53.546875 
Q 45.40625 53.5 50.59375 53.5 
Q 55.796875 53.5 60.09375 53.546875 
Q 64.40625 53.59375 67.953125 53.6875 
Q 71.5 53.796875 74.5 53.9375 
Q 77.5 54.09375 80.203125 54.296875 
Q 80 53.09375 79.890625 51.390625 
Q 79.796875 49.703125 79.640625 47.796875 
Q 79.5 45.90625 79.453125 43.953125 
Q 79.40625 42 79.40625 40.203125 
Q 79.40625 36 79.59375 32.640625 
Q 79.796875 29.296875 80.09375 25.90625 
Q 75.40625 26.203125 69.75 26.34375 
Q 64.09375 26.5 56 26.59375 
z
M 47.40625 69.203125 
Q 46.90625 72.09375 46.34375 74.546875 
Q 45.796875 77 45.09375 79.59375 
L 55.09375 80.796875 
Q 55.59375 77.90625 56.09375 75.15625 
Q 56.59375 72.40625 57.09375 69.203125 
Q 68.796875 69.296875 77.4375 69.5 
Q 86.09375 69.703125 92.796875 70.203125 
L 92.796875 61.203125 
Q 85.09375 61.703125 74.84375 61.953125 
Q 64.59375 62.203125 50.296875 62.203125 
Q 36 62.203125 25.796875 61.953125 
Q 15.59375 61.703125 7.90625 61.203125 
L 7.90625 70.203125 
Q 15.296875 69.703125 24.75 69.453125 
Q 34.203125 69.203125 47.40625 69.203125 
z
" id="STHeitiTC-Medium-20140"/>
     <path d="M 21.40625 44.203125 
Q 21.703125 48.09375 21.703125 51 
Q 21.703125 53.90625 21.296875 57.09375 
L 27 57.09375 
Q 27 55.40625 27.09375 54 
Q 27.203125 52.59375 27.25 51.140625 
Q 27.296875 49.703125 27.4375 48.140625 
Q 27.59375 46.59375 27.796875 44.59375 
z
M 21.40625 11.90625 
Q 21.90625 16.09375 22.046875 19.59375 
Q 22.203125 23.09375 22 27 
L 27.796875 27 
Q 27.796875 23.40625 27.890625 19.75 
Q 28 16.09375 28.296875 11.90625 
z
M 96.09375 7.40625 
Q 94.703125 2.09375 93.640625 -0.796875 
Q 92.59375 -3.703125 91.1875 -5.09375 
Q 89.796875 -6.5 87.5 -6.796875 
Q 85.203125 -7.09375 81.203125 -7.09375 
Q 77.90625 -7.09375 75.953125 -6.84375 
Q 74 -6.59375 73 -5.390625 
Q 72 -4.203125 71.75 -1.84375 
Q 71.5 0.5 71.5 4.703125 
L 71.5 40.09375 
L 58.296875 40.09375 
Q 58.40625 34.59375 58.40625 30.75 
Q 58.40625 26.90625 58.25 24 
Q 58.09375 21.09375 57.84375 18.640625 
Q 57.59375 16.203125 57.203125 13.59375 
Q 56 6.09375 52.75 -0.453125 
Q 49.5 -7 44.5 -11.796875 
Q 43.296875 -10.59375 41.09375 -9.296875 
Q 38.90625 -8 36.203125 -7.5 
Q 42.296875 -3.40625 45.75 3.25 
Q 49.203125 9.90625 50 17.40625 
Q 50.296875 20.40625 50.4375 23.5 
Q 50.59375 26.59375 50.6875 30.1875 
Q 50.796875 33.796875 50.6875 38 
Q 50.59375 42.203125 50.5 47.5 
Q 57.5 46.90625 65.5 46.90625 
Q 73.40625 46.90625 80.203125 47.5 
Q 79.703125 44.59375 79.546875 41.390625 
Q 79.40625 38.203125 79.40625 35.90625 
L 79.40625 6.203125 
Q 79.40625 4.203125 79.5 3.046875 
Q 79.59375 1.90625 79.9375 1.34375 
Q 80.296875 0.796875 80.890625 0.640625 
Q 81.5 0.5 82.5 0.5 
Q 83.5 0.5 84.34375 1 
Q 85.203125 1.5 85.890625 2.890625 
Q 86.59375 4.296875 87.1875 6.796875 
Q 87.796875 9.296875 88.296875 13.40625 
Q 89.703125 10.90625 92.09375 9.296875 
Q 94.5 7.703125 96.09375 7.40625 
z
M 92.90625 56.59375 
Q 88.40625 57.09375 82.453125 57.1875 
Q 76.5 57.296875 68 57.296875 
Q 59.5 57.296875 53.5 57.25 
Q 47.5 57.203125 43 56.703125 
L 43 65.296875 
Q 47.5 64.796875 53.5 64.640625 
Q 59.5 64.5 68 64.5 
Q 76.5 64.5 82.453125 64.640625 
Q 88.40625 64.796875 92.90625 65.296875 
z
M 62.90625 66.703125 
Q 61.796875 69.59375 60.546875 72.59375 
Q 59.296875 75.59375 57.59375 78.40625 
L 66.703125 81.796875 
Q 69.90625 76.09375 72.59375 69.703125 
z
M 10.296875 57.703125 
Q 10.296875 61.59375 10.09375 64.9375 
Q 9.90625 68.296875 9.59375 70.59375 
Q 11.203125 70.40625 13.546875 70.25 
Q 15.90625 70.09375 18.703125 70 
Q 19.203125 72.796875 19.296875 75.34375 
Q 19.40625 77.90625 19.203125 81 
Q 21.796875 80.5 24.640625 80.09375 
Q 27.5 79.703125 28.90625 79.703125 
Q 31 79.703125 29.40625 78.296875 
Q 28.59375 77.59375 27.75 75.890625 
Q 26.90625 74.203125 25.5 69.90625 
Q 30 69.90625 34.09375 70.09375 
Q 38.203125 70.296875 40.59375 70.59375 
Q 40.203125 68.40625 40.046875 65.40625 
Q 39.90625 62.40625 39.90625 57.703125 
L 39.90625 3.203125 
Q 39.90625 1.5 39.453125 0.203125 
Q 39 -1.09375 37.640625 -2.1875 
Q 36.296875 -3.296875 33.84375 -4.1875 
Q 31.40625 -5.09375 27.5 -6.09375 
Q 27.296875 -3.90625 26.546875 -1.65625 
Q 25.796875 0.59375 24.703125 2.59375 
Q 28.90625 2.203125 30.84375 2.953125 
Q 32.796875 3.703125 32.796875 6.09375 
L 32.796875 32.703125 
L 17.40625 32.703125 
Q 17.40625 25 17.09375 18.890625 
Q 16.796875 12.796875 16.046875 7.546875 
Q 15.296875 2.296875 14.09375 -2.34375 
Q 12.90625 -7 11.09375 -11.59375 
Q 10.203125 -9.59375 8.25 -7.84375 
Q 6.296875 -6.09375 4.203125 -4.90625 
Q 6 -1.5 7.140625 2.046875 
Q 8.296875 5.59375 9 10 
Q 9.703125 14.40625 10 19.90625 
Q 10.296875 25.40625 10.296875 32.59375 
Q 8.59375 32.59375 7 32.4375 
Q 5.40625 32.296875 3.90625 32.09375 
L 3.90625 39.90625 
Q 6.90625 39.5 10.296875 39.296875 
z
M 32.796875 63.203125 
L 17.40625 63.203125 
L 17.40625 39.203125 
L 32.796875 39.203125 
z
" id="STHeitiTC-Medium-33322"/>
     <path d="M 45.203125 64.90625 
Q 35.5 64.796875 28.453125 64.59375 
Q 21.40625 64.40625 15.796875 64 
L 15.796875 73.203125 
Q 22.09375 72.796875 30.140625 72.640625 
Q 38.203125 72.5 49.59375 72.5 
Q 61 72.5 69.09375 72.703125 
Q 77.203125 72.90625 83.40625 73.40625 
L 83.40625 64 
Q 77.90625 64.40625 71 64.59375 
Q 64.09375 64.796875 54.703125 64.90625 
Q 54.5 59.09375 54.203125 53.9375 
Q 53.90625 48.796875 53.40625 44.09375 
Q 65.703125 44.09375 74.640625 44.296875 
Q 83.59375 44.5 90.5 45 
L 90.5 35.203125 
Q 84 35.59375 75.75 35.796875 
Q 67.5 36 56.296875 36.09375 
Q 58.5 28.90625 62.203125 22.84375 
Q 65.90625 16.796875 70.796875 12.390625 
Q 75.703125 8 81.640625 5.296875 
Q 87.59375 2.59375 94.40625 2.09375 
Q 93 1.09375 91.75 -0.25 
Q 90.5 -1.59375 89.390625 -3.046875 
Q 88.296875 -4.5 87.546875 -5.890625 
Q 86.796875 -7.296875 86.5 -8.40625 
Q 70.90625 -2.59375 62.296875 7.296875 
Q 53.703125 17.203125 51.40625 32.203125 
Q 49.5 23.796875 46.25 17.1875 
Q 43 10.59375 38.25 5.5 
Q 33.5 0.40625 27.09375 -3.4375 
Q 20.703125 -7.296875 12.5 -10.203125 
Q 11.40625 -8.203125 9.65625 -6.140625 
Q 7.90625 -4.09375 5.59375 -2.296875 
Q 14.09375 0.296875 20.4375 3.59375 
Q 26.796875 6.90625 31.296875 11.5 
Q 35.796875 16.09375 38.640625 22.09375 
Q 41.5 28.09375 43 36.09375 
Q 32.09375 36 24 35.796875 
Q 15.90625 35.59375 9.5 35.203125 
L 9.5 44.796875 
Q 16.296875 44.5 24.546875 44.296875 
Q 32.796875 44.09375 44.203125 44.09375 
Q 44.703125 48.703125 44.953125 53.84375 
Q 45.203125 59 45.203125 64.90625 
z
" id="STHeitiTC-Medium-22825"/>
     <path d="M 45.5 55.5 
Q 46.40625 55.203125 46.40625 54.5 
Q 46.40625 53.796875 45.5 53.59375 
Q 44.703125 53.40625 43.140625 52.5 
Q 41.59375 51.59375 39.90625 49.90625 
Q 37.5 47.5 34.59375 45.09375 
Q 31.703125 42.703125 28.453125 40.34375 
Q 25.203125 38 21.796875 35.890625 
Q 18.40625 33.796875 15.09375 32.203125 
Q 14.09375 34.203125 12.296875 36.203125 
Q 10.5 38.203125 8.5 39 
Q 17.296875 41.796875 24.59375 46.75 
Q 31.90625 51.703125 37.59375 60.203125 
Q 39.59375 58.296875 41.25 57.296875 
Q 42.90625 56.296875 45.5 55.5 
z
M 17.5 61.5 
L 17.5 48.90625 
L 9.5 48.90625 
L 9.5 69 
Q 11.90625 68.796875 15.15625 68.640625 
Q 18.40625 68.5 22.90625 68.390625 
Q 27.40625 68.296875 33.34375 68.25 
Q 39.296875 68.203125 47.203125 68.203125 
Q 46.40625 71.203125 45.59375 73.75 
Q 44.796875 76.296875 43.40625 79.40625 
L 52.90625 81.796875 
Q 56 74.90625 56.796875 68.203125 
Q 63.5 68.203125 68.640625 68.25 
Q 73.796875 68.296875 77.75 68.390625 
Q 81.703125 68.5 84.59375 68.640625 
Q 87.5 68.796875 89.796875 69 
L 89.796875 50.703125 
L 81.703125 50.703125 
L 81.703125 61.5 
L 65.09375 61.5 
L 65.09375 45 
Q 65.09375 43.5 66.25 42.953125 
Q 67.40625 42.40625 71.59375 42.40625 
Q 73.203125 42.40625 75.203125 42.546875 
Q 77.203125 42.703125 79.046875 42.953125 
Q 80.90625 43.203125 82.546875 43.5 
Q 84.203125 43.796875 85.203125 44.203125 
Q 85 43.40625 84.890625 42.34375 
Q 84.796875 41.296875 84.6875 40.140625 
Q 84.59375 39 84.59375 37.953125 
Q 84.59375 36.90625 84.703125 36.203125 
Q 83.203125 35.90625 81.59375 35.703125 
Q 80 35.5 77.890625 35.34375 
Q 75.796875 35.203125 73.046875 35.140625 
Q 70.296875 35.09375 66.59375 35.09375 
Q 61.296875 35.09375 59.390625 36.796875 
Q 57.5 38.5 57.5 42 
L 57.5 61.5 
z
M 44.703125 21.796875 
Q 42.296875 21.796875 39.34375 21.6875 
Q 36.40625 21.59375 33.40625 21.4375 
Q 30.40625 21.296875 27.65625 21.140625 
Q 24.90625 21 22.796875 20.796875 
L 22.796875 30 
Q 27.90625 29.5 34.546875 29.25 
Q 41.203125 29 50.59375 29 
Q 60 29 66.75 29.25 
Q 73.5 29.5 78.5 30 
L 78.5 20.796875 
Q 73.90625 21.296875 67.90625 21.546875 
Q 61.90625 21.796875 53.796875 21.796875 
L 53.796875 1.296875 
Q 66.40625 1.296875 75.40625 1.5 
Q 84.40625 1.703125 91.40625 2.203125 
L 91.40625 -7.09375 
Q 83.90625 -6.59375 73.59375 -6.390625 
Q 63.296875 -6.203125 49.09375 -6.203125 
Q 42.09375 -6.203125 36.296875 -6.25 
Q 30.5 -6.296875 25.546875 -6.390625 
Q 20.59375 -6.5 16.390625 -6.703125 
Q 12.203125 -6.90625 8.5 -7.09375 
L 8.5 2.203125 
Q 11.90625 2 16.453125 1.84375 
Q 21 1.703125 25.84375 1.546875 
Q 30.703125 1.40625 35.59375 1.34375 
Q 40.5 1.296875 44.703125 1.296875 
z
" id="STHeitiTC-Medium-31354"/>
     <path d="M 51.296875 35 
Q 50.703125 32.09375 50 29.640625 
Q 49.296875 27.203125 48.390625 25 
Q 47.5 22.796875 46.453125 20.640625 
Q 45.40625 18.5 44.203125 16.296875 
Q 40.59375 9.59375 33 3.1875 
Q 25.40625 -3.203125 14.5 -8.59375 
Q 12.796875 -6 10.84375 -4.296875 
Q 8.90625 -2.59375 6 -0.90625 
Q 10.796875 0.5 14.6875 2.09375 
Q 18.59375 3.703125 21.890625 5.703125 
Q 25.203125 7.703125 28.140625 10.25 
Q 31.09375 12.796875 34.09375 16.09375 
Q 38.296875 20.59375 41 28 
Q 43.703125 35.40625 44.5 46.296875 
Q 33.296875 46.203125 24.796875 46 
Q 16.296875 45.796875 10 45.40625 
L 10 55 
Q 16.5 54.5 25.046875 54.296875 
Q 33.59375 54.09375 44.90625 54 
Q 45.296875 63.296875 45.25 69.296875 
Q 45.203125 75.296875 44.796875 79.59375 
Q 47.703125 79.203125 50.703125 79 
Q 53.703125 78.796875 56.203125 79 
Q 57.40625 79.09375 57.546875 78.6875 
Q 57.703125 78.296875 56.59375 77.5 
Q 55.703125 76.796875 55.34375 75.34375 
Q 55 73.90625 54.796875 71.59375 
Q 54.5 66.59375 54.203125 62.046875 
Q 53.90625 57.5 53.59375 54 
Q 65.703125 54 74.75 54.25 
Q 83.796875 54.5 90.5 55 
L 90.5 45.40625 
Q 83.703125 45.90625 74.546875 46.09375 
Q 65.40625 46.296875 53.09375 46.296875 
Q 55.09375 37.203125 59.546875 29.140625 
Q 64 21.09375 70.59375 14.59375 
Q 75.203125 10.09375 81.453125 6.84375 
Q 87.703125 3.59375 94 2.703125 
Q 91 0.59375 89 -2 
Q 87 -4.59375 85.59375 -8 
Q 82.296875 -6.40625 78.890625 -4.09375 
Q 75.5 -1.796875 72.34375 0.796875 
Q 69.203125 3.40625 66.5 6.203125 
Q 63.796875 9 61.90625 11.59375 
Q 58.203125 16.59375 55.75 22.140625 
Q 53.296875 27.703125 51.296875 35 
z
" id="STHeitiTC-Medium-22823"/>
    </defs>
    <g transform="translate(4.139757 163.412721)scale(0.1 -0.1)">
     <use xlink:href="#STHeitiTC-Medium-21271"/>
     <use x="99.999985" xlink:href="#STHeitiTC-Medium-20140"/>
     <use x="199.999969" xlink:href="#STHeitiTC-Medium-33322"/>
     <use x="299.999954" xlink:href="#STHeitiTC-Medium-22825"/>
     <use x="399.999939" xlink:href="#STHeitiTC-Medium-33322"/>
     <use x="499.999924" xlink:href="#STHeitiTC-Medium-31354"/>
     <use x="599.999908" xlink:href="#STHeitiTC-Medium-22823"/>
     <use x="699.999893" xlink:href="#STHeitiTC-Medium-23398"/>
     <use x="799.999878" xlink:href="#STHeitiTC-Medium-20986"/>
     <use x="899.999863" xlink:href="#STHeitiTC-Medium-29256"/>
     <use x="999.999847" xlink:href="#STHeitiTC-Medium-31038"/>
    </g>
   </g>
   <g id="text_12">
    <!-- 2.5% -->
    <g transform="translate(163.893674 161.594612)scale(0.1 -0.1)">
     <use xlink:href="#STHeitiTC-Medium-50"/>
     <use x="55.399994" xlink:href="#STHeitiTC-Medium-46"/>
     <use x="83.099991" xlink:href="#STHeitiTC-Medium-53"/>
     <use x="138.499985" xlink:href="#STHeitiTC-Medium-37"/>
    </g>
   </g>
   <g id="text_13">
    <!-- 长江文艺出版社 -->
    <defs>
     <path d="M 82.796875 74.203125 
Q 84.703125 73.5 82.203125 72.203125 
Q 80.5 71.296875 78.390625 69.640625 
Q 76.296875 68 73.5 64.90625 
Q 72.296875 63.5 69.890625 61.203125 
Q 67.5 58.90625 64.640625 56.296875 
Q 61.796875 53.703125 58.84375 51.09375 
Q 55.90625 48.5 53.40625 46.59375 
Q 52.40625 47.703125 50.296875 49.296875 
Q 48.203125 50.90625 45.90625 52 
Q 50.5 54.703125 54.75 58.203125 
Q 59 61.703125 62.546875 65.453125 
Q 66.09375 69.203125 68.75 72.84375 
Q 71.40625 76.5 72.90625 79.59375 
Q 74.59375 78.296875 77.390625 76.796875 
Q 80.203125 75.296875 82.796875 74.203125 
z
M 35.09375 3.5 
Q 36.59375 4.296875 38.59375 5.6875 
Q 40.59375 7.09375 42.6875 8.640625 
Q 44.796875 10.203125 46.6875 11.703125 
Q 48.59375 13.203125 49.796875 14.296875 
Q 49.703125 12 50.390625 9.953125 
Q 51.09375 7.90625 52.40625 6.5 
Q 47.40625 3 43.59375 0.34375 
Q 39.796875 -2.296875 36.9375 -4.390625 
Q 34.09375 -6.5 32.140625 -8.140625 
Q 30.203125 -9.796875 29 -11.203125 
Q 27.5 -8.59375 25.796875 -6.4375 
Q 24.09375 -4.296875 22.5 -2.59375 
Q 23.59375 -1.5 24.390625 -0.09375 
Q 25.203125 1.296875 25.640625 3.25 
Q 26.09375 5.203125 26.296875 7.890625 
Q 26.5 10.59375 26.5 14.296875 
L 26.5 34.703125 
Q 22.09375 34.703125 18.84375 34.59375 
Q 15.59375 34.5 13.09375 34.453125 
Q 10.59375 34.40625 8.796875 34.25 
Q 7 34.09375 5.59375 34 
L 5.59375 42.796875 
Q 7 42.59375 8.796875 42.5 
Q 10.59375 42.40625 13.09375 42.34375 
Q 15.59375 42.296875 18.890625 42.1875 
Q 22.203125 42.09375 26.5 42.09375 
L 26.5 59.5 
Q 26.5 66.296875 26.390625 71.5 
Q 26.296875 76.703125 26.09375 79 
Q 27.296875 78.796875 28.796875 78.59375 
Q 30.296875 78.40625 31.75 78.34375 
Q 33.203125 78.296875 34.296875 78.25 
Q 35.40625 78.203125 35.90625 78.296875 
Q 37.09375 78.5 37.546875 77.953125 
Q 38 77.40625 37.203125 76.296875 
Q 35.09375 73.296875 35.09375 68.203125 
L 35.09375 42.09375 
L 65.203125 42.09375 
Q 71.203125 42.09375 75.75 42.140625 
Q 80.296875 42.203125 83.640625 42.25 
Q 87 42.296875 89.34375 42.4375 
Q 91.703125 42.59375 93.5 42.796875 
L 93.5 34 
Q 90.203125 34.40625 83.640625 34.546875 
Q 77.09375 34.703125 65.09375 34.703125 
L 57.296875 34.703125 
Q 59.40625 28.09375 63.5 23.046875 
Q 67.59375 18 72.75 14.34375 
Q 77.90625 10.703125 83.546875 8.5 
Q 89.203125 6.296875 94.296875 5.59375 
Q 89.40625 2.5 87.40625 -4.5 
Q 80.296875 -1.5 74.390625 2.09375 
Q 68.5 5.703125 63.84375 10.34375 
Q 59.203125 15 55.703125 20.953125 
Q 52.203125 26.90625 49.796875 34.703125 
L 35.09375 34.703125 
z
" id="STHeitiTC-Medium-38271"/>
     <path d="M 31.5 21 
Q 29.796875 18.40625 27.890625 14.90625 
Q 26 11.40625 23.5 6.296875 
Q 21.5 2.203125 19.640625 -2.140625 
Q 17.796875 -6.5 16.203125 -10.90625 
Q 13.59375 -8.59375 11.09375 -6.390625 
Q 8.59375 -4.203125 6.40625 -2.09375 
Q 7.59375 -0.5 8.6875 1.046875 
Q 9.796875 2.59375 10.9375 4.296875 
Q 12.09375 6 13.34375 8 
Q 14.59375 10 16.09375 12.5 
Q 18.40625 16.09375 20.453125 19.890625 
Q 22.5 23.703125 24.296875 27.703125 
Q 25.40625 25.59375 27.34375 23.890625 
Q 29.296875 22.203125 31.5 21 
z
M 22.90625 33.703125 
Q 21.40625 34.796875 19.34375 36.046875 
Q 17.296875 37.296875 14.9375 38.5 
Q 12.59375 39.703125 10.140625 40.84375 
Q 7.703125 42 5.5 42.90625 
L 10.796875 51.203125 
Q 12.703125 50.296875 15.046875 49.1875 
Q 17.40625 48.09375 19.75 46.890625 
Q 22.09375 45.703125 24.390625 44.5 
Q 26.703125 43.296875 28.59375 42.203125 
z
M 28.09375 57 
Q 27 58.296875 25.046875 60 
Q 23.09375 61.703125 20.796875 63.390625 
Q 18.5 65.09375 16.140625 66.59375 
Q 13.796875 68.09375 11.90625 69.203125 
L 18.59375 76.09375 
Q 20.40625 74.90625 22.65625 73.453125 
Q 24.90625 72 27.15625 70.5 
Q 29.40625 69 31.5 67.546875 
Q 33.59375 66.09375 35.09375 65 
z
M 67.90625 4 
Q 76.703125 4.09375 83.046875 4.296875 
Q 89.40625 4.5 94.40625 5 
L 94.40625 -4.296875 
Q 88.796875 -3.796875 81.25 -3.546875 
Q 73.703125 -3.296875 62.90625 -3.296875 
Q 52.296875 -3.296875 44.59375 -3.546875 
Q 36.90625 -3.796875 31.203125 -4.296875 
L 31.203125 5 
Q 36.296875 4.5 42.9375 4.296875 
Q 49.59375 4.09375 58.59375 4 
L 58.59375 64.40625 
Q 52.09375 64.296875 47.25 64.09375 
Q 42.40625 63.90625 38.5 63.40625 
L 38.5 72.59375 
Q 43.296875 72.09375 49.5 71.84375 
Q 55.703125 71.59375 64.59375 71.59375 
Q 73.5 71.59375 79.640625 71.84375 
Q 85.796875 72.09375 90.5 72.59375 
L 90.5 63.40625 
Q 86.203125 63.90625 80.796875 64.09375 
Q 75.40625 64.296875 67.90625 64.40625 
z
" id="STHeitiTC-Medium-27743"/>
     <path d="M 91.203125 8.5 
Q 89.203125 3.40625 87.546875 0.34375 
Q 85.90625 -2.703125 84 -4.296875 
Q 82.09375 -5.90625 79.6875 -6.5 
Q 77.296875 -7.09375 73.703125 -7.296875 
Q 70.40625 -7.59375 64.59375 -7.75 
Q 58.796875 -7.90625 52.5 -8 
Q 46.203125 -8.09375 40.390625 -8.09375 
Q 34.59375 -8.09375 31.296875 -7.90625 
Q 26.703125 -7.703125 23.703125 -7.203125 
Q 20.703125 -6.703125 18.953125 -5.75 
Q 17.203125 -4.796875 16.5 -3.25 
Q 15.796875 -1.703125 15.796875 0.703125 
Q 15.796875 3.796875 17.890625 7.09375 
Q 20 10.40625 25.296875 14.546875 
Q 30.59375 18.703125 39.75 24 
Q 48.90625 29.296875 63 36.40625 
L 45.90625 36.40625 
Q 33.5 36.40625 25.25 36.25 
Q 17 36.09375 12.90625 35.90625 
L 12.90625 44.5 
Q 21 43.90625 47.796875 43.90625 
Q 53.5 43.90625 58.890625 44 
Q 64.296875 44.09375 68.75 44.25 
Q 73.203125 44.40625 76.34375 44.546875 
Q 79.5 44.703125 80.59375 44.90625 
L 80.59375 35.09375 
Q 79 35.09375 77.640625 34.9375 
Q 76.296875 34.796875 74.796875 34.34375 
Q 73.296875 33.90625 71.25 33 
Q 69.203125 32.09375 66.203125 30.4375 
Q 63.203125 28.796875 58.953125 26.34375 
Q 54.703125 23.90625 48.703125 20.296875 
Q 37.203125 13.5 31.890625 9.640625 
Q 26.59375 5.796875 26.59375 3.40625 
Q 26.59375 2.59375 27.046875 2 
Q 27.5 1.40625 28.75 0.90625 
Q 30 0.40625 32.25 0.09375 
Q 34.5 -0.203125 38.09375 -0.40625 
Q 41 -0.59375 44.953125 -0.59375 
Q 48.90625 -0.59375 53.15625 -0.5 
Q 57.40625 -0.40625 61.59375 -0.15625 
Q 65.796875 0.09375 69.296875 0.40625 
Q 72.09375 0.703125 74.046875 1.390625 
Q 76 2.09375 77.34375 3.75 
Q 78.703125 5.40625 79.59375 8.25 
Q 80.5 11.09375 81.09375 15.59375 
Q 83.5 12.09375 86.203125 10.34375 
Q 88.90625 8.59375 91.203125 8.5 
z
M 58.296875 68.203125 
Q 58.296875 71.59375 58.296875 73.796875 
Q 58.296875 76 58.25 77.5 
Q 58.203125 79 58.09375 79.84375 
Q 58 80.703125 57.90625 81.40625 
Q 59.90625 81.203125 62.59375 80.953125 
Q 65.296875 80.703125 67.203125 80.703125 
Q 68.09375 80.703125 68.296875 80.296875 
Q 68.5 79.90625 67.59375 79.40625 
Q 66.90625 79 66.703125 78.59375 
Q 66.5 78.203125 66.5 77.296875 
L 66.5 68.203125 
Q 75 68.203125 82 68.34375 
Q 89 68.5 93.90625 69 
L 93.90625 60.09375 
Q 89 60.59375 82 60.796875 
Q 75 61 66.5 61 
L 66.5 50.09375 
L 58.296875 50.09375 
L 58.296875 61 
L 40 61 
L 40 49.296875 
L 31.796875 49.296875 
L 31.796875 61 
Q 24 61 17.34375 60.796875 
Q 10.703125 60.59375 6 60.09375 
L 6 69 
Q 10.796875 68.59375 17.34375 68.390625 
Q 23.90625 68.203125 31.796875 68.203125 
Q 31.796875 71.296875 31.796875 73.34375 
Q 31.796875 75.40625 31.75 76.796875 
Q 31.703125 78.203125 31.59375 79.046875 
Q 31.5 79.90625 31.40625 80.5 
Q 33.40625 80.296875 36.09375 80.09375 
Q 38.796875 79.90625 40.703125 79.90625 
Q 41.59375 79.90625 41.75 79.453125 
Q 41.90625 79 41.09375 78.5 
Q 40.40625 78.09375 40.203125 77.6875 
Q 40 77.296875 40 76.40625 
L 40 68.203125 
z
" id="STHeitiTC-Medium-33402"/>
    </defs>
    <g transform="translate(46.480634 184.59668)scale(0.1 -0.1)">
     <use xlink:href="#STHeitiTC-Medium-38271"/>
     <use x="99.999985" xlink:href="#STHeitiTC-Medium-27743"/>
     <use x="199.999969" xlink:href="#STHeitiTC-Medium-25991"/>
     <use x="299.999954" xlink:href="#STHeitiTC-Medium-33402"/>
     <use x="399.999939" xlink:href="#STHeitiTC-Medium-20986"/>
     <use x="499.999924" xlink:href="#STHeitiTC-Medium-29256"/>
     <use x="599.999908" xlink:href="#STHeitiTC-Medium-31038"/>
    </g>
   </g>
   <g id="text_14">
    <!-- 2.5% -->
    <g transform="translate(165.170516 173.149498)scale(0.1 -0.1)">
     <use xlink:href="#STHeitiTC-Medium-50"/>
     <use x="55.399994" xlink:href="#STHeitiTC-Medium-46"/>
     <use x="83.099991" xlink:href="#STHeitiTC-Medium-53"/>
     <use x="138.499985" xlink:href="#STHeitiTC-Medium-37"/>
    </g>
   </g>
   <g id="text_15">
    <!-- 清华大学出版社 -->
    <defs>
     <path d="M 77.09375 22.90625 
L 77.09375 29.296875 
L 46.90625 29.296875 
L 46.90625 22.90625 
z
M 65.59375 71.90625 
Q 69.09375 71.90625 72.9375 72.046875 
Q 76.796875 72.203125 80.34375 72.34375 
Q 83.90625 72.5 86.796875 72.703125 
Q 89.703125 72.90625 91.296875 73.09375 
L 91.296875 65 
Q 89.703125 65.203125 86.796875 65.34375 
Q 83.90625 65.5 80.34375 65.640625 
Q 76.796875 65.796875 72.9375 65.9375 
Q 69.09375 66.09375 65.59375 66.09375 
L 65.59375 58.796875 
Q 68.703125 58.90625 72.046875 59 
Q 75.40625 59.09375 78.40625 59.25 
Q 81.40625 59.40625 83.953125 59.546875 
Q 86.5 59.703125 88 59.90625 
L 88 52.203125 
Q 86.5 52.40625 83.953125 52.546875 
Q 81.40625 52.703125 78.40625 52.84375 
Q 75.40625 53 72.046875 53.140625 
Q 68.703125 53.296875 65.59375 53.296875 
L 65.59375 46.40625 
Q 69.296875 46.40625 73.640625 46.546875 
Q 78 46.703125 81.953125 46.84375 
Q 85.90625 47 89.15625 47.203125 
Q 92.40625 47.40625 94.09375 47.59375 
L 94.09375 39.59375 
Q 92.09375 39.90625 88.25 40.046875 
Q 84.40625 40.203125 79.84375 40.34375 
Q 75.296875 40.5 70.546875 40.546875 
Q 65.796875 40.59375 62.09375 40.59375 
Q 58.296875 40.59375 53.59375 40.546875 
Q 48.90625 40.5 44.296875 40.34375 
Q 39.703125 40.203125 35.84375 40.046875 
Q 32 39.90625 30 39.59375 
L 30 47.59375 
Q 31.5 47.40625 34.640625 47.203125 
Q 37.796875 47 41.6875 46.84375 
Q 45.59375 46.703125 49.84375 46.59375 
Q 54.09375 46.5 57.90625 46.40625 
L 57.90625 53.296875 
Q 55 53.296875 51.953125 53.140625 
Q 48.90625 53 46.09375 52.84375 
Q 43.296875 52.703125 41.046875 52.546875 
Q 38.796875 52.40625 37.40625 52.203125 
L 37.40625 59.90625 
Q 38.90625 59.703125 41.203125 59.5 
Q 43.5 59.296875 46.25 59.140625 
Q 49 59 52 58.890625 
Q 55 58.796875 57.90625 58.796875 
L 57.90625 66.09375 
Q 54.59375 66 51 65.890625 
Q 47.40625 65.796875 44.15625 65.640625 
Q 40.90625 65.5 38.25 65.34375 
Q 35.59375 65.203125 34.203125 65 
L 34.203125 73.09375 
Q 35.59375 72.90625 38.25 72.703125 
Q 40.90625 72.5 44.15625 72.34375 
Q 47.40625 72.203125 51 72.09375 
Q 54.59375 72 57.90625 71.90625 
Q 57.90625 75.40625 57.84375 77.34375 
Q 57.796875 79.296875 57.59375 80.59375 
Q 59.296875 80.296875 61.59375 80.1875 
Q 63.90625 80.09375 66.203125 80.296875 
Q 67.09375 80.40625 67.1875 79.953125 
Q 67.296875 79.5 66.5 78.703125 
Q 66 78.203125 65.796875 77.09375 
Q 65.59375 76 65.59375 75.09375 
z
M 26.90625 24 
Q 26.40625 23 25.953125 21.796875 
Q 25.5 20.59375 24.796875 18.796875 
Q 24.09375 17 23.25 14.5 
Q 22.40625 12 21.203125 8.40625 
Q 19.796875 4.203125 18.390625 -0.140625 
Q 17 -4.5 15.703125 -8.796875 
Q 13.40625 -6.796875 10.953125 -5.140625 
Q 8.5 -3.5 5.90625 -2.203125 
Q 7 -0.59375 7.953125 0.953125 
Q 8.90625 2.5 9.796875 4.25 
Q 10.703125 6 11.640625 8.140625 
Q 12.59375 10.296875 13.703125 13 
Q 15.203125 16.796875 16.546875 21.140625 
Q 17.90625 25.5 18.90625 29.59375 
Q 22.296875 25.703125 26.90625 24 
z
M 46.90625 5.59375 
L 46.90625 -9 
L 38.40625 -9 
Q 38.703125 -4.796875 38.84375 -1.140625 
Q 39 2.5 39 5.5 
L 39 26.796875 
Q 39 29.40625 38.953125 31.90625 
Q 38.90625 34.40625 38.703125 35.59375 
Q 41.5 35.40625 47.5 35.25 
Q 53.5 35.09375 62 35.09375 
Q 70.09375 35.09375 76.25 35.25 
Q 82.40625 35.40625 85 35.59375 
Q 84.90625 34.40625 84.84375 31.90625 
Q 84.796875 29.40625 84.796875 26.796875 
L 84.796875 0.796875 
Q 84.796875 -2.203125 84.5 -4.09375 
Q 84.203125 -6 82.796875 -7.203125 
Q 81.40625 -8.40625 78.453125 -9.15625 
Q 75.5 -9.90625 70.296875 -10.59375 
Q 70 -8.40625 69.296875 -6.34375 
Q 68.59375 -4.296875 67.09375 -1.40625 
Q 70.59375 -1.59375 72.59375 -1.546875 
Q 74.59375 -1.5 75.59375 -1.09375 
Q 76.59375 -0.703125 76.84375 0.1875 
Q 77.09375 1.09375 77.09375 2.59375 
L 77.09375 5.59375 
z
M 77.09375 11.296875 
L 77.09375 17.296875 
L 46.90625 17.296875 
L 46.90625 11.296875 
z
M 21.203125 36.203125 
Q 19.796875 37.5 17.84375 39 
Q 15.90625 40.5 13.84375 41.953125 
Q 11.796875 43.40625 9.75 44.65625 
Q 7.703125 45.90625 6 46.703125 
L 10.59375 53.796875 
Q 12.203125 52.59375 14.140625 51.296875 
Q 16.09375 50 18.140625 48.703125 
Q 20.203125 47.40625 22.203125 46.09375 
Q 24.203125 44.796875 26 43.796875 
z
M 25.5 58.40625 
Q 22.203125 62.5 18.5 65.796875 
Q 14.796875 69.09375 11.09375 71.203125 
L 16.296875 77.5 
Q 19.90625 74.796875 24 71.546875 
Q 28.09375 68.296875 31.296875 65.5 
z
" id="STHeitiTC-Medium-28165"/>
     <path d="M 55.296875 0.40625 
Q 55.296875 -0.703125 55.34375 -2.140625 
Q 55.40625 -3.59375 55.5 -5.1875 
Q 55.59375 -6.796875 55.75 -8.34375 
Q 55.90625 -9.90625 56.09375 -11.203125 
L 45.90625 -11.203125 
Q 46 -10 46.140625 -8.453125 
Q 46.296875 -6.90625 46.390625 -5.296875 
Q 46.5 -3.703125 46.546875 -2.203125 
Q 46.59375 -0.703125 46.59375 0.40625 
L 46.59375 10.59375 
Q 33.796875 10.59375 24.390625 10.390625 
Q 15 10.203125 7.796875 9.703125 
L 7.796875 18.59375 
Q 15 18.09375 24.390625 17.84375 
Q 33.796875 17.59375 46.59375 17.59375 
Q 46.5 21.5 46.296875 24.453125 
Q 46.09375 27.40625 45.703125 28.796875 
Q 48.59375 28.296875 50.9375 28.09375 
Q 53.296875 27.90625 56 27.90625 
Q 57.703125 27.90625 57.953125 27.296875 
Q 58.203125 26.703125 56.703125 25.90625 
Q 56 25.5 55.640625 23.796875 
Q 55.296875 22.09375 55.296875 17.59375 
Q 68.09375 17.59375 77.4375 17.84375 
Q 86.796875 18.09375 94 18.59375 
L 94 9.59375 
Q 86.796875 10.09375 77.4375 10.34375 
Q 68.09375 10.59375 55.296875 10.59375 
z
M 60.5 60.296875 
Q 64.40625 62.40625 67.75 64.65625 
Q 71.09375 66.90625 73.6875 69 
Q 76.296875 71.09375 78.140625 72.84375 
Q 80 74.59375 81 75.796875 
Q 82.703125 73.59375 84.390625 71.796875 
Q 86.09375 70 87.40625 69.09375 
Q 88.703125 68.203125 88.59375 67.390625 
Q 88.5 66.59375 86.203125 66.09375 
Q 85.703125 66 84.390625 65.453125 
Q 83.09375 64.90625 81.390625 64.09375 
Q 79.703125 63.296875 77.640625 62.1875 
Q 75.59375 61.09375 73.703125 59.90625 
Q 71.203125 58.296875 67.84375 56.4375 
Q 64.5 54.59375 60.5 52.59375 
L 60.5 44 
Q 60.5 42 60.75 40.703125 
Q 61 39.40625 62 38.65625 
Q 63 37.90625 65.046875 37.546875 
Q 67.09375 37.203125 70.703125 37.203125 
Q 75.5 37.203125 78.203125 37.453125 
Q 80.90625 37.703125 82.25 38.84375 
Q 83.59375 40 84.046875 42.25 
Q 84.5 44.5 84.703125 48.5 
Q 86.59375 46.40625 89.140625 44.953125 
Q 91.703125 43.5 93.40625 43.40625 
Q 92.203125 38.40625 91.046875 35.65625 
Q 89.90625 32.90625 87.453125 31.59375 
Q 85 30.296875 80.390625 30.046875 
Q 75.796875 29.796875 67.59375 29.796875 
Q 62.59375 29.796875 59.59375 30.390625 
Q 56.59375 31 55 32.390625 
Q 53.40625 33.796875 52.84375 36.25 
Q 52.296875 38.703125 52.296875 42.5 
L 52.296875 48.59375 
Q 49.296875 47.203125 46.1875 45.84375 
Q 43.09375 44.5 39.90625 43.09375 
Q 39.40625 45.203125 38.453125 46.84375 
Q 37.5 48.5 35.5 50.296875 
Q 39.796875 51.296875 44.09375 52.84375 
Q 48.40625 54.40625 52.296875 56.203125 
L 52.296875 70.40625 
Q 52.296875 73.90625 52.140625 76.546875 
Q 52 79.203125 51.5 80.796875 
Q 52.09375 80.5 53.34375 80.296875 
Q 54.59375 80.09375 56 80 
Q 57.40625 79.90625 58.796875 79.90625 
Q 60.203125 79.90625 61.203125 80 
Q 62.5 80.203125 62.796875 79.59375 
Q 63.09375 79 62.09375 78.203125 
Q 60.5 77 60.5 75.5 
z
M 23 55.5 
Q 20.203125 52 17.59375 48.84375 
Q 15 45.703125 12.40625 42.59375 
Q 10.5 46.59375 6 48.90625 
Q 8.296875 50.5 10.6875 52.796875 
Q 13.09375 55.09375 15.34375 57.640625 
Q 17.59375 60.203125 19.4375 62.640625 
Q 21.296875 65.09375 22.5 67 
Q 25.40625 71.5 27.09375 75.09375 
Q 28.796875 78.703125 29.5 81.296875 
Q 34 78 38.5 76.296875 
Q 41.90625 75 38.09375 73.296875 
Q 37.59375 73.09375 35.390625 70.796875 
Q 33.203125 68.5 30.59375 65.203125 
L 30.59375 25.90625 
L 21.90625 25.90625 
Q 22.40625 28 22.703125 30.890625 
Q 23 33.796875 23 36.5 
z
" id="STHeitiTC-Medium-21326"/>
    </defs>
    <g transform="translate(52.168268 205.136655)scale(0.1 -0.1)">
     <use xlink:href="#STHeitiTC-Medium-28165"/>
     <use x="99.999985" xlink:href="#STHeitiTC-Medium-21326"/>
     <use x="199.999969" xlink:href="#STHeitiTC-Medium-22823"/>
     <use x="299.999954" xlink:href="#STHeitiTC-Medium-23398"/>
     <use x="399.999939" xlink:href="#STHeitiTC-Medium-20986"/>
     <use x="499.999924" xlink:href="#STHeitiTC-Medium-29256"/>
     <use x="599.999908" xlink:href="#STHeitiTC-Medium-31038"/>
    </g>
   </g>
   <g id="text_16">
    <!-- 2.5% -->
    <g transform="translate(168.272862 184.353121)scale(0.1 -0.1)">
     <use xlink:href="#STHeitiTC-Medium-50"/>
     <use x="55.399994" xlink:href="#STHeitiTC-Medium-46"/>
     <use x="83.099991" xlink:href="#STHeitiTC-Medium-53"/>
     <use x="138.499985" xlink:href="#STHeitiTC-Medium-37"/>
    </g>
   </g>
   <g id="text_17">
    <!-- Others -->
    <defs>
     <path d="M 43 81 
Q 53.703125 81 62.703125 75.953125 
Q 71.703125 70.90625 76.84375 62 
Q 82 53.09375 82 42.640625 
Q 82 32.203125 76.890625 23.296875 
Q 71.796875 14.40625 62.890625 9.296875 
Q 54 4.203125 43.546875 4.203125 
Q 33.09375 4.203125 24.09375 9.25 
Q 15.09375 14.296875 10 23.140625 
Q 4.90625 32 4.90625 42.453125 
Q 4.90625 52.90625 10 61.84375 
Q 15.09375 70.796875 23.9375 75.890625 
Q 32.796875 81 43 81 
z
M 43.296875 12.59375 
Q 55.796875 12.59375 64.4375 21.09375 
Q 73.09375 29.59375 73.09375 42.390625 
Q 73.09375 55.203125 64.34375 63.890625 
Q 55.59375 72.59375 43.296875 72.59375 
Q 30.703125 72.59375 22.25 63.84375 
Q 13.796875 55.09375 13.796875 42.546875 
Q 13.796875 30 22.5 21.296875 
Q 31.203125 12.59375 43.296875 12.59375 
z
" id="STHeitiTC-Medium-79"/>
     <path d="M 32 53.296875 
L 21.203125 53.296875 
L 21.203125 15.09375 
Q 21.203125 13 21.796875 12.546875 
Q 22.40625 12.09375 24.796875 12.09375 
L 29.59375 12.09375 
L 29.59375 5 
Q 24.796875 4.203125 22.296875 4.203125 
Q 17.5 4.203125 15.203125 6.546875 
Q 12.90625 8.90625 12.90625 14 
L 12.90625 53.296875 
L 3.5 53.296875 
L 3.5 60.5 
L 12.90625 60.5 
L 12.90625 81 
L 21.203125 81 
L 21.203125 60.5 
L 32 60.5 
z
" id="STHeitiTC-Medium-116"/>
     <path d="M 54.703125 6 
L 46.40625 6 
L 46.40625 32 
Q 46.40625 39.59375 45.953125 42.6875 
Q 45.5 45.796875 43.890625 48.546875 
Q 42.296875 51.296875 39.546875 52.75 
Q 36.796875 54.203125 32.9375 54.203125 
Q 29.09375 54.203125 25.59375 52.390625 
Q 22.09375 50.59375 19.59375 47.390625 
Q 17.09375 44.203125 16.140625 40.59375 
Q 15.203125 37 15.203125 26.203125 
L 15.203125 6 
L 6.90625 6 
L 6.90625 81 
L 15.203125 81 
L 15.203125 52.296875 
Q 23.296875 61.90625 34.40625 61.90625 
Q 40.296875 61.90625 45.09375 58.84375 
Q 49.90625 55.796875 52.296875 50.4375 
Q 54.703125 45.09375 54.703125 34 
z
" id="STHeitiTC-Medium-104"/>
     <path d="M 60.59375 31.796875 
L 12.796875 31.796875 
Q 13.296875 22.796875 18.84375 17.34375 
Q 24.40625 11.90625 32.09375 11.90625 
Q 45.203125 11.90625 52.09375 24.796875 
L 59.09375 21.203125 
Q 54.40625 12.5 48 8.34375 
Q 41.59375 4.203125 32.703125 4.203125 
Q 20.40625 4.203125 12.40625 12.640625 
Q 4.40625 21.09375 4.40625 33 
Q 4.40625 44.90625 12.453125 53.40625 
Q 20.5 61.90625 32.390625 61.90625 
Q 44.296875 61.90625 52.296875 53.84375 
Q 60.296875 45.796875 60.59375 31.796875 
z
M 51.40625 39.09375 
Q 49.90625 46.09375 44.59375 50 
Q 39.296875 53.90625 32.40625 53.90625 
Q 18.40625 53.90625 13.796875 39.09375 
z
" id="STHeitiTC-Medium-101"/>
     <path d="M 29.90625 59.703125 
L 25.59375 52.703125 
Q 23.90625 53.59375 22.296875 53.59375 
Q 19.203125 53.59375 16.703125 50.546875 
Q 14.203125 47.5 12.953125 42.546875 
Q 11.703125 37.59375 11.703125 24.703125 
L 11.703125 6 
L 3.296875 6 
L 3.296875 60.5 
L 11.703125 60.5 
L 11.703125 54.59375 
Q 14.203125 58.296875 16.75 60.09375 
Q 19.296875 61.90625 22.546875 61.90625 
Q 25.796875 61.90625 29.90625 59.703125 
z
" id="STHeitiTC-Medium-114"/>
     <path d="M 35.296875 54.09375 
L 30 48.59375 
Q 24.09375 54.09375 19.203125 54.09375 
Q 16.09375 54.09375 14 52.140625 
Q 11.90625 50.203125 11.90625 47.34375 
Q 11.90625 44.5 14.25 42.34375 
Q 16.59375 40.203125 22.59375 37.046875 
Q 28.59375 33.90625 31.84375 30.09375 
Q 35.09375 26.296875 35.09375 20.796875 
Q 35.09375 13.796875 30.25 9 
Q 25.40625 4.203125 18.296875 4.203125 
Q 8.40625 4.203125 1.796875 12.59375 
L 7 18.40625 
Q 12.40625 12.09375 18 12.09375 
Q 21.796875 12.09375 24.5 14.59375 
Q 27.203125 17.09375 27.203125 20.4375 
Q 27.203125 23.796875 24.75 26.046875 
Q 22.296875 28.296875 16.34375 31.296875 
Q 10.40625 34.296875 7.34375 37.9375 
Q 4.296875 41.59375 4.296875 47.546875 
Q 4.296875 53.5 8.640625 57.703125 
Q 13 61.90625 20.140625 61.90625 
Q 27.296875 61.90625 35.296875 54.09375 
z
" id="STHeitiTC-Medium-115"/>
    </defs>
    <g transform="translate(359.548175 231.367664)scale(0.1 -0.1)">
     <use xlink:href="#STHeitiTC-Medium-79"/>
     <use x="86.899994" xlink:href="#STHeitiTC-Medium-116"/>
     <use x="120.799988" xlink:href="#STHeitiTC-Medium-104"/>
     <use x="181.799973" xlink:href="#STHeitiTC-Medium-101"/>
     <use x="246.799957" xlink:href="#STHeitiTC-Medium-114"/>
     <use x="276.899948" xlink:href="#STHeitiTC-Medium-115"/>
    </g>
   </g>
   <g id="text_18">
    <!-- 68.2% -->
    <defs>
     <path d="M 24.90625 48.40625 
Q 28.09375 49.296875 31 49.296875 
Q 39.296875 49.296875 45.5 42.6875 
Q 51.703125 36.09375 51.703125 26.6875 
Q 51.703125 17.296875 45 10.75 
Q 38.296875 4.203125 28.59375 4.203125 
Q 18.90625 4.203125 12.453125 10.796875 
Q 6 17.40625 6 26.90625 
Q 6 31.5 7.796875 36.34375 
Q 9.59375 41.203125 14.296875 48.203125 
L 36.5 81.296875 
L 43.703125 76.796875 
z
M 28.796875 12.59375 
Q 34.703125 12.59375 38.953125 16.796875 
Q 43.203125 21 43.203125 27 
Q 43.203125 33 39 37.203125 
Q 34.796875 41.40625 28.796875 41.40625 
Q 22.796875 41.40625 18.59375 37.203125 
Q 14.40625 33 14.40625 27 
Q 14.40625 21 18.65625 16.796875 
Q 22.90625 12.59375 28.796875 12.59375 
z
" id="STHeitiTC-Medium-54"/>
    </defs>
    <g transform="translate(294.982498 198.660944)scale(0.1 -0.1)">
     <use xlink:href="#STHeitiTC-Medium-54"/>
     <use x="55.399994" xlink:href="#STHeitiTC-Medium-56"/>
     <use x="110.799988" xlink:href="#STHeitiTC-Medium-46"/>
     <use x="138.499985" xlink:href="#STHeitiTC-Medium-50"/>
     <use x="193.899979" xlink:href="#STHeitiTC-Medium-37"/>
    </g>
   </g>
  </g>
 </g>
</svg>
