<?xml version="1.0" encoding="utf-8" standalone="no"?>
<!DOCTYPE svg PUBLIC "-//W3C//DTD SVG 1.1//EN"
  "http://www.w3.org/Graphics/SVG/1.1/DTD/svg11.dtd">
<!-- Created with matplotlib (https://matplotlib.org/) -->
<svg height="216pt" version="1.1" viewBox="0 0 576 216" width="576pt" xmlns="http://www.w3.org/2000/svg" xmlns:xlink="http://www.w3.org/1999/xlink">
 <defs>
  <style type="text/css">
*{stroke-linecap:butt;stroke-linejoin:round;}
  </style>
 </defs>
 <g id="figure_1">
  <g id="patch_1">
   <path d="M 0 216 
L 576 216 
L 576 0 
L 0 0 
z
" style="fill:none;opacity:0;"/>
  </g>
  <g id="axes_1">
   <g id="patch_2">
    <path d="M 47.315 170.8 
L 565.2 170.8 
L 565.2 10.8 
L 47.315 10.8 
z
" style="fill:#ffffff;"/>
   </g>
   <g id="patch_3">
    <path clip-path="url(#p73e10035fc)" d="M 70.855227 170.8 
L 142.67287 170.8 
L 142.67287 89.944801 
L 70.855227 89.944801 
z
" style="fill:#ffa500;stroke:#ff0000;stroke-linejoin:miter;"/>
   </g>
   <g id="patch_4">
    <path clip-path="url(#p73e10035fc)" d="M 150.652608 170.8 
L 222.47025 170.8 
L 222.47025 93.054616 
L 150.652608 93.054616 
z
" style="fill:#ffa500;stroke:#ff0000;stroke-linejoin:miter;"/>
   </g>
   <g id="patch_5">
    <path clip-path="url(#p73e10035fc)" d="M 230.449988 170.8 
L 302.267631 170.8 
L 302.267631 18.419048 
L 230.449988 18.419048 
z
" style="fill:#ffa500;stroke:#ff0000;stroke-linejoin:miter;"/>
   </g>
   <g id="patch_6">
    <path clip-path="url(#p73e10035fc)" d="M 310.247369 170.8 
L 382.065012 170.8 
L 382.065012 102.384062 
L 310.247369 102.384062 
z
" style="fill:#ffa500;stroke:#ff0000;stroke-linejoin:miter;"/>
   </g>
   <g id="patch_7">
    <path clip-path="url(#p73e10035fc)" d="M 390.04475 170.8 
L 461.862392 170.8 
L 461.862392 96.164431 
L 390.04475 96.164431 
z
" style="fill:#ffa500;stroke:#ff0000;stroke-linejoin:miter;"/>
   </g>
   <g id="patch_8">
    <path clip-path="url(#p73e10035fc)" d="M 469.84213 170.8 
L 541.659773 170.8 
L 541.659773 161.470554 
L 469.84213 161.470554 
z
" style="fill:#ffa500;stroke:#ff0000;stroke-linejoin:miter;"/>
   </g>
   <g id="matplotlib.axis_1">
    <g id="xtick_1">
     <g id="line2d_1">
      <defs>
       <path d="M 0 0 
L 0 3.5 
" id="mfbed4aedcf" style="stroke:#000000;stroke-width:0.8;"/>
      </defs>
      <g>
       <use style="stroke:#000000;stroke-width:0.8;" x="106.764049" xlink:href="#mfbed4aedcf" y="170.8"/>
      </g>
     </g>
     <g id="text_1">
      <!-- 2015 -->
      <defs>
       <path d="M 52.5 6 
L 1.40625 6 
L 29.90625 36.796875 
Q 37.09375 44.40625 40.09375 48.796875 
Q 43.09375 53.203125 43.09375 58.796875 
Q 43.09375 64.40625 38.75 68.59375 
Q 34.40625 72.796875 27.953125 72.796875 
Q 21.5 72.796875 17.203125 68.25 
Q 12.90625 63.703125 12.296875 55.296875 
L 4 55.296875 
Q 4.5 67.09375 11.5 74.046875 
Q 18.5 81 28.453125 81 
Q 38.40625 81 44.953125 74.546875 
Q 51.5 68.09375 51.5 58.796875 
Q 51.5 52 47.890625 46.09375 
Q 44.296875 40.203125 37 32.40625 
L 20.203125 14.296875 
L 52.5 14.296875 
z
" id="STHeitiTC-Medium-50"/>
       <path d="M 27.296875 81 
Q 39.09375 81 46 71.046875 
Q 52.90625 61.09375 52.90625 42.546875 
Q 52.90625 24 45.90625 14.09375 
Q 38.90625 4.203125 27.15625 4.203125 
Q 15.40625 4.203125 8.953125 13.953125 
Q 2.5 23.703125 2.5 42.640625 
Q 2.5 61.59375 8.953125 71.296875 
Q 15.40625 81 27.296875 81 
z
M 27.5 12.09375 
Q 35.703125 12.09375 40.25 20.046875 
Q 44.796875 28 44.796875 42.59375 
Q 44.796875 57.203125 40.09375 65 
Q 35.40625 72.796875 27.453125 72.796875 
Q 19.5 72.796875 15.09375 65 
Q 10.703125 57.203125 10.703125 42.40625 
Q 10.703125 12.09375 27.5 12.09375 
z
" id="STHeitiTC-Medium-48"/>
       <path d="M 33.296875 6 
L 24.796875 6 
L 24.796875 70.796875 
L 12.90625 70.796875 
L 18.09375 79.203125 
L 33.296875 79.203125 
z
" id="STHeitiTC-Medium-49"/>
       <path d="M 49.90625 71 
L 24.203125 71 
L 20.90625 53.09375 
Q 25.203125 54.203125 29 54.203125 
Q 38.703125 54.203125 45.203125 47.34375 
Q 51.703125 40.5 51.703125 29.890625 
Q 51.703125 19.296875 44.703125 11.75 
Q 37.703125 4.203125 26 4.203125 
Q 17 4.203125 10.796875 9.703125 
Q 4.59375 15.203125 3.296875 24.796875 
L 12 24.796875 
Q 13.296875 18.796875 17.296875 15.59375 
Q 21.296875 12.40625 26.40625 12.40625 
Q 33.203125 12.40625 38.09375 17.546875 
Q 43 22.703125 43 30.296875 
Q 43 37.09375 38.75 41.5 
Q 34.5 45.90625 27.296875 45.90625 
Q 20.09375 45.90625 10.5 41.796875 
L 17.5 79.203125 
L 49.90625 79.203125 
z
" id="STHeitiTC-Medium-53"/>
      </defs>
      <g transform="translate(95.682799 185.9)scale(0.1 -0.1)">
       <use xlink:href="#STHeitiTC-Medium-50"/>
       <use x="55.399994" xlink:href="#STHeitiTC-Medium-48"/>
       <use x="110.799988" xlink:href="#STHeitiTC-Medium-49"/>
       <use x="166.199982" xlink:href="#STHeitiTC-Medium-53"/>
      </g>
     </g>
    </g>
    <g id="xtick_2">
     <g id="line2d_2">
      <g>
       <use style="stroke:#000000;stroke-width:0.8;" x="186.561429" xlink:href="#mfbed4aedcf" y="170.8"/>
      </g>
     </g>
     <g id="text_2">
      <!-- 2016 -->
      <defs>
       <path d="M 24.90625 48.40625 
Q 28.09375 49.296875 31 49.296875 
Q 39.296875 49.296875 45.5 42.6875 
Q 51.703125 36.09375 51.703125 26.6875 
Q 51.703125 17.296875 45 10.75 
Q 38.296875 4.203125 28.59375 4.203125 
Q 18.90625 4.203125 12.453125 10.796875 
Q 6 17.40625 6 26.90625 
Q 6 31.5 7.796875 36.34375 
Q 9.59375 41.203125 14.296875 48.203125 
L 36.5 81.296875 
L 43.703125 76.796875 
z
M 28.796875 12.59375 
Q 34.703125 12.59375 38.953125 16.796875 
Q 43.203125 21 43.203125 27 
Q 43.203125 33 39 37.203125 
Q 34.796875 41.40625 28.796875 41.40625 
Q 22.796875 41.40625 18.59375 37.203125 
Q 14.40625 33 14.40625 27 
Q 14.40625 21 18.65625 16.796875 
Q 22.90625 12.59375 28.796875 12.59375 
z
" id="STHeitiTC-Medium-54"/>
      </defs>
      <g transform="translate(175.480179 185.9)scale(0.1 -0.1)">
       <use xlink:href="#STHeitiTC-Medium-50"/>
       <use x="55.399994" xlink:href="#STHeitiTC-Medium-48"/>
       <use x="110.799988" xlink:href="#STHeitiTC-Medium-49"/>
       <use x="166.199982" xlink:href="#STHeitiTC-Medium-54"/>
      </g>
     </g>
    </g>
    <g id="xtick_3">
     <g id="line2d_3">
      <g>
       <use style="stroke:#000000;stroke-width:0.8;" x="266.35881" xlink:href="#mfbed4aedcf" y="170.8"/>
      </g>
     </g>
     <g id="text_3">
      <!-- 2017 -->
      <defs>
       <path d="M 53.796875 79.203125 
L 14.59375 3.90625 
L 7.5 7.703125 
L 40.5 71 
L 6.5 71 
L 6.5 79.203125 
z
" id="STHeitiTC-Medium-55"/>
      </defs>
      <g transform="translate(255.27756 185.9)scale(0.1 -0.1)">
       <use xlink:href="#STHeitiTC-Medium-50"/>
       <use x="55.399994" xlink:href="#STHeitiTC-Medium-48"/>
       <use x="110.799988" xlink:href="#STHeitiTC-Medium-49"/>
       <use x="166.199982" xlink:href="#STHeitiTC-Medium-55"/>
      </g>
     </g>
    </g>
    <g id="xtick_4">
     <g id="line2d_4">
      <g>
       <use style="stroke:#000000;stroke-width:0.8;" x="346.15619" xlink:href="#mfbed4aedcf" y="170.8"/>
      </g>
     </g>
     <g id="text_4">
      <!-- 2018 -->
      <defs>
       <path d="M 39.796875 46.09375 
Q 52.703125 39.40625 52.703125 27.296875 
Q 52.703125 17.40625 45.75 10.796875 
Q 38.796875 4.203125 27.546875 4.203125 
Q 16.296875 4.203125 9.5 10.796875 
Q 2.703125 17.40625 2.703125 26.703125 
Q 2.703125 39.296875 15.90625 46.09375 
Q 6.09375 51.796875 6.09375 61.59375 
Q 6.09375 69.296875 12.5 75.140625 
Q 18.90625 81 27.84375 81 
Q 36.796875 81 43.09375 75.296875 
Q 49.40625 69.59375 49.40625 61.40625 
Q 49.40625 51.90625 39.796875 46.09375 
z
M 28 49.703125 
Q 33.09375 49.703125 36.9375 53.296875 
Q 40.796875 56.90625 40.796875 61.546875 
Q 40.796875 66.203125 37.1875 69.453125 
Q 33.59375 72.703125 27.890625 72.703125 
Q 22.203125 72.703125 18.5 69.453125 
Q 14.796875 66.203125 14.796875 61.546875 
Q 14.796875 56.90625 18.796875 53.296875 
Q 22.796875 49.703125 28 49.703125 
z
M 27.703125 12.40625 
Q 34.90625 12.40625 39.5 16.703125 
Q 44.09375 21 44.09375 27 
Q 44.09375 33 39.34375 37.390625 
Q 34.59375 41.796875 27.84375 41.796875 
Q 21.09375 41.796875 16.1875 37.25 
Q 11.296875 32.703125 11.296875 26.546875 
Q 11.296875 20.40625 15.84375 16.40625 
Q 20.40625 12.40625 27.703125 12.40625 
z
" id="STHeitiTC-Medium-56"/>
      </defs>
      <g transform="translate(335.07494 185.9)scale(0.1 -0.1)">
       <use xlink:href="#STHeitiTC-Medium-50"/>
       <use x="55.399994" xlink:href="#STHeitiTC-Medium-48"/>
       <use x="110.799988" xlink:href="#STHeitiTC-Medium-49"/>
       <use x="166.199982" xlink:href="#STHeitiTC-Medium-56"/>
      </g>
     </g>
    </g>
    <g id="xtick_5">
     <g id="line2d_5">
      <g>
       <use style="stroke:#000000;stroke-width:0.8;" x="425.953571" xlink:href="#mfbed4aedcf" y="170.8"/>
      </g>
     </g>
     <g id="text_5">
      <!-- 2019 -->
      <defs>
       <path d="M 31 36.796875 
Q 28.09375 36.09375 25.203125 36.09375 
Q 16.296875 36.09375 10.25 42.4375 
Q 4.203125 48.796875 4.203125 58.390625 
Q 4.203125 68 10.890625 74.5 
Q 17.59375 81 27.296875 81 
Q 37 81 43.390625 74.34375 
Q 49.796875 67.703125 49.796875 58.40625 
Q 49.796875 53.296875 47.6875 48.140625 
Q 45.59375 43 41.59375 37 
L 19.5 3.90625 
L 12.296875 8.5 
z
M 27 43.796875 
Q 33 43.796875 37.203125 48.046875 
Q 41.40625 52.296875 41.40625 58.1875 
Q 41.40625 64.09375 37.203125 68.34375 
Q 33 72.59375 27 72.59375 
Q 21 72.59375 16.796875 68.390625 
Q 12.59375 64.203125 12.59375 58.203125 
Q 12.59375 52.203125 16.796875 48 
Q 21 43.796875 27 43.796875 
z
" id="STHeitiTC-Medium-57"/>
      </defs>
      <g transform="translate(414.872321 185.9)scale(0.1 -0.1)">
       <use xlink:href="#STHeitiTC-Medium-50"/>
       <use x="55.399994" xlink:href="#STHeitiTC-Medium-48"/>
       <use x="110.799988" xlink:href="#STHeitiTC-Medium-49"/>
       <use x="166.199982" xlink:href="#STHeitiTC-Medium-57"/>
      </g>
     </g>
    </g>
    <g id="xtick_6">
     <g id="line2d_6">
      <g>
       <use style="stroke:#000000;stroke-width:0.8;" x="505.750951" xlink:href="#mfbed4aedcf" y="170.8"/>
      </g>
     </g>
     <g id="text_6">
      <!-- 2020 -->
      <g transform="translate(494.669701 185.9)scale(0.1 -0.1)">
       <use xlink:href="#STHeitiTC-Medium-50"/>
       <use x="55.399994" xlink:href="#STHeitiTC-Medium-48"/>
       <use x="110.799988" xlink:href="#STHeitiTC-Medium-50"/>
       <use x="166.199982" xlink:href="#STHeitiTC-Medium-48"/>
      </g>
     </g>
    </g>
    <g id="text_7">
     <!-- Year -->
     <defs>
      <path d="M 57.40625 79.203125 
L 34 40.796875 
L 34 6 
L 25.59375 6 
L 25.59375 40.796875 
L 1.796875 79.203125 
L 11.796875 79.203125 
L 29.703125 50.296875 
L 47.40625 79.203125 
z
" id="STHeitiTC-Medium-89"/>
      <path d="M 60.59375 31.796875 
L 12.796875 31.796875 
Q 13.296875 22.796875 18.84375 17.34375 
Q 24.40625 11.90625 32.09375 11.90625 
Q 45.203125 11.90625 52.09375 24.796875 
L 59.09375 21.203125 
Q 54.40625 12.5 48 8.34375 
Q 41.59375 4.203125 32.703125 4.203125 
Q 20.40625 4.203125 12.40625 12.640625 
Q 4.40625 21.09375 4.40625 33 
Q 4.40625 44.90625 12.453125 53.40625 
Q 20.5 61.90625 32.390625 61.90625 
Q 44.296875 61.90625 52.296875 53.84375 
Q 60.296875 45.796875 60.59375 31.796875 
z
M 51.40625 39.09375 
Q 49.90625 46.09375 44.59375 50 
Q 39.296875 53.90625 32.40625 53.90625 
Q 18.40625 53.90625 13.796875 39.09375 
z
" id="STHeitiTC-Medium-101"/>
      <path d="M 61.203125 6 
L 53.09375 6 
L 53.09375 14 
Q 44.203125 4.203125 32.59375 4.203125 
Q 21 4.203125 12.75 12.75 
Q 4.5 21.296875 4.5 33.140625 
Q 4.5 45 12.796875 53.453125 
Q 21.09375 61.90625 33.046875 61.90625 
Q 45 61.90625 53.09375 52.203125 
L 53.09375 60.5 
L 61.203125 60.5 
z
M 33.203125 11.90625 
Q 41.5 11.90625 47.5 17.90625 
Q 53.5 23.90625 53.5 32.84375 
Q 53.5 41.796875 47.59375 47.84375 
Q 41.703125 53.90625 33.140625 53.90625 
Q 24.59375 53.90625 18.6875 47.65625 
Q 12.796875 41.40625 12.796875 32.90625 
Q 12.796875 24.40625 18.796875 18.15625 
Q 24.796875 11.90625 33.203125 11.90625 
z
" id="STHeitiTC-Medium-97"/>
      <path d="M 29.90625 59.703125 
L 25.59375 52.703125 
Q 23.90625 53.59375 22.296875 53.59375 
Q 19.203125 53.59375 16.703125 50.546875 
Q 14.203125 47.5 12.953125 42.546875 
Q 11.703125 37.59375 11.703125 24.703125 
L 11.703125 6 
L 3.296875 6 
L 3.296875 60.5 
L 11.703125 60.5 
L 11.703125 54.59375 
Q 14.203125 58.296875 16.75 60.09375 
Q 19.296875 61.90625 22.546875 61.90625 
Q 25.796875 61.90625 29.90625 59.703125 
z
" id="STHeitiTC-Medium-114"/>
     </defs>
     <g transform="translate(288.45 204.189687)scale(0.16 -0.16)">
      <use xlink:href="#STHeitiTC-Medium-89"/>
      <use x="59.199997" xlink:href="#STHeitiTC-Medium-101"/>
      <use x="124.199982" xlink:href="#STHeitiTC-Medium-97"/>
      <use x="192.499969" xlink:href="#STHeitiTC-Medium-114"/>
     </g>
    </g>
   </g>
   <g id="matplotlib.axis_2">
    <g id="ytick_1">
     <g id="line2d_7">
      <defs>
       <path d="M 0 0 
L -3.5 0 
" id="m73316175e6" style="stroke:#000000;stroke-width:0.8;"/>
      </defs>
      <g>
       <use style="stroke:#000000;stroke-width:0.8;" x="47.315" xlink:href="#m73316175e6" y="170.8"/>
      </g>
     </g>
     <g id="text_8">
      <!-- 0 -->
      <g transform="translate(34.774375 174.85)scale(0.1 -0.1)">
       <use xlink:href="#STHeitiTC-Medium-48"/>
      </g>
     </g>
    </g>
    <g id="ytick_2">
     <g id="line2d_8">
      <g>
       <use style="stroke:#000000;stroke-width:0.8;" x="47.315" xlink:href="#m73316175e6" y="139.701846"/>
      </g>
     </g>
     <g id="text_9">
      <!-- 10 -->
      <g transform="translate(29.23375 143.751846)scale(0.1 -0.1)">
       <use xlink:href="#STHeitiTC-Medium-49"/>
       <use x="55.399994" xlink:href="#STHeitiTC-Medium-48"/>
      </g>
     </g>
    </g>
    <g id="ytick_3">
     <g id="line2d_9">
      <g>
       <use style="stroke:#000000;stroke-width:0.8;" x="47.315" xlink:href="#m73316175e6" y="108.603693"/>
      </g>
     </g>
     <g id="text_10">
      <!-- 20 -->
      <g transform="translate(29.23375 112.653693)scale(0.1 -0.1)">
       <use xlink:href="#STHeitiTC-Medium-50"/>
       <use x="55.399994" xlink:href="#STHeitiTC-Medium-48"/>
      </g>
     </g>
    </g>
    <g id="ytick_4">
     <g id="line2d_10">
      <g>
       <use style="stroke:#000000;stroke-width:0.8;" x="47.315" xlink:href="#m73316175e6" y="77.505539"/>
      </g>
     </g>
     <g id="text_11">
      <!-- 30 -->
      <defs>
       <path d="M 39.90625 47.203125 
Q 45.796875 44.296875 49.046875 39.1875 
Q 52.296875 34.09375 52.296875 28.09375 
Q 52.296875 18.296875 45.140625 11.25 
Q 38 4.203125 27.09375 4.203125 
Q 17.296875 4.203125 11.046875 9.84375 
Q 4.796875 15.5 2.59375 26.59375 
L 11.09375 26.59375 
Q 13 19.5 16.75 16.046875 
Q 20.5 12.59375 27.453125 12.59375 
Q 34.40625 12.59375 39.09375 16.9375 
Q 43.796875 21.296875 43.796875 27.890625 
Q 43.796875 34.5 38.4375 38.390625 
Q 33.09375 42.296875 22.703125 42.5 
L 22.703125 50.5 
Q 30.203125 50.5 34.796875 53.703125 
Q 39.40625 56.90625 39.40625 61.65625 
Q 39.40625 66.40625 35.84375 69.546875 
Q 32.296875 72.703125 27.25 72.703125 
Q 22.203125 72.703125 19.046875 69.84375 
Q 15.90625 67 13.703125 61.203125 
L 5 61.203125 
Q 7.203125 70.796875 13 75.890625 
Q 18.796875 81 27.296875 81 
Q 35.796875 81 42.046875 75.390625 
Q 48.296875 69.796875 48.296875 61.796875 
Q 48.296875 52.59375 39.90625 47.203125 
z
" id="STHeitiTC-Medium-51"/>
      </defs>
      <g transform="translate(29.23375 81.555539)scale(0.1 -0.1)">
       <use xlink:href="#STHeitiTC-Medium-51"/>
       <use x="55.399994" xlink:href="#STHeitiTC-Medium-48"/>
      </g>
     </g>
    </g>
    <g id="ytick_5">
     <g id="line2d_11">
      <g>
       <use style="stroke:#000000;stroke-width:0.8;" x="47.315" xlink:href="#m73316175e6" y="46.407386"/>
      </g>
     </g>
     <g id="text_12">
      <!-- 40 -->
      <defs>
       <path d="M 53.40625 22.703125 
L 44.703125 22.703125 
L 44.703125 6 
L 36.203125 6 
L 36.203125 22.703125 
L 1.09375 22.703125 
L 42.203125 81 
L 44.703125 81 
L 44.703125 31 
L 53.40625 31 
z
M 36.203125 31 
L 36.203125 58 
L 17.09375 31 
z
" id="STHeitiTC-Medium-52"/>
      </defs>
      <g transform="translate(29.23375 50.457386)scale(0.1 -0.1)">
       <use xlink:href="#STHeitiTC-Medium-52"/>
       <use x="55.399994" xlink:href="#STHeitiTC-Medium-48"/>
      </g>
     </g>
    </g>
    <g id="ytick_6">
     <g id="line2d_12">
      <g>
       <use style="stroke:#000000;stroke-width:0.8;" x="47.315" xlink:href="#m73316175e6" y="15.309232"/>
      </g>
     </g>
     <g id="text_13">
      <!-- 50 -->
      <g transform="translate(29.23375 19.359232)scale(0.1 -0.1)">
       <use xlink:href="#STHeitiTC-Medium-53"/>
       <use x="55.399994" xlink:href="#STHeitiTC-Medium-48"/>
      </g>
     </g>
    </g>
    <g id="text_14">
     <!-- Read Count -->
     <defs>
      <path d="M 56.59375 6 
L 45.796875 6 
L 20 39.40625 
L 17 39.40625 
L 17 6 
L 8.40625 6 
L 8.40625 79.203125 
L 23.40625 79.203125 
Q 35.40625 79.203125 39.90625 78.140625 
Q 44.40625 77.09375 47.703125 74.59375 
Q 51 72.09375 52.890625 68.140625 
Q 54.796875 64.203125 54.796875 59.40625 
Q 54.796875 50.296875 48.59375 44.84375 
Q 42.40625 39.40625 30.703125 39.40625 
z
M 17 47.796875 
L 28.703125 47.796875 
Q 37.5 47.703125 41.703125 50.453125 
Q 45.90625 53.203125 45.90625 59.25 
Q 45.90625 65.296875 41.796875 68.046875 
Q 37.703125 70.796875 29 70.796875 
L 17 70.796875 
z
" id="STHeitiTC-Medium-82"/>
      <path d="M 61.296875 6 
L 53.203125 6 
L 53.203125 14 
Q 44.296875 4.203125 32.640625 4.203125 
Q 21 4.203125 12.796875 12.703125 
Q 4.59375 21.203125 4.59375 33.09375 
Q 4.59375 45 12.890625 53.453125 
Q 21.203125 61.90625 33.140625 61.90625 
Q 45.09375 61.90625 53.203125 52.203125 
L 53.203125 81 
L 61.296875 81 
z
M 33.296875 11.90625 
Q 41.203125 11.90625 47.390625 17.796875 
Q 53.59375 23.703125 53.59375 32.75 
Q 53.59375 41.796875 47.84375 47.84375 
Q 42.09375 53.90625 33.34375 53.90625 
Q 24.59375 53.90625 18.75 47.65625 
Q 12.90625 41.40625 12.90625 32.953125 
Q 12.90625 24.5 18.90625 18.203125 
Q 24.90625 11.90625 33.296875 11.90625 
z
" id="STHeitiTC-Medium-100"/>
      <path id="STHeitiTC-Medium-32"/>
      <path d="M 76.703125 19.40625 
Q 64.90625 4.203125 44.296875 4.203125 
Q 26.90625 4.203125 15.796875 15.203125 
Q 4.703125 26.203125 4.703125 43 
Q 4.703125 53.40625 9.84375 62.203125 
Q 15 71 24.09375 76 
Q 33.203125 81 43.75 81 
Q 54.296875 81 62.640625 76.953125 
Q 71 72.90625 76.59375 65.09375 
L 70 60 
Q 59.59375 72.59375 44.296875 72.59375 
Q 31.796875 72.59375 22.75 63.796875 
Q 13.703125 55 13.703125 42.25 
Q 13.703125 29.5 22.546875 20.953125 
Q 31.40625 12.40625 45.5 12.40625 
Q 59.59375 12.40625 70 24.5 
z
" id="STHeitiTC-Medium-67"/>
      <path d="M 32.796875 61.90625 
Q 44.59375 61.90625 52.84375 53.40625 
Q 61.09375 44.90625 61.09375 33 
Q 61.09375 21.09375 52.9375 12.640625 
Q 44.796875 4.203125 32.796875 4.203125 
Q 20.796875 4.203125 12.59375 12.640625 
Q 4.40625 21.09375 4.40625 33 
Q 4.40625 44.90625 12.65625 53.40625 
Q 20.90625 61.90625 32.796875 61.90625 
z
M 32.796875 12.09375 
Q 41.09375 12.09375 46.9375 18.140625 
Q 52.796875 24.203125 52.796875 32.75 
Q 52.796875 41.296875 46.84375 47.546875 
Q 40.90625 53.796875 32.75 53.796875 
Q 24.59375 53.796875 18.6875 47.546875 
Q 12.796875 41.296875 12.796875 32.6875 
Q 12.796875 24.09375 18.5 18.09375 
Q 24.203125 12.09375 32.796875 12.09375 
z
" id="STHeitiTC-Medium-111"/>
      <path d="M 53.90625 6 
L 45.59375 6 
L 45.59375 14.203125 
Q 37.5 4.59375 26.40625 4.59375 
Q 20.5 4.59375 15.703125 7.640625 
Q 10.90625 10.703125 8.5 16.046875 
Q 6.09375 21.40625 6.09375 32.5 
L 6.09375 60.5 
L 14.296875 60.5 
L 14.296875 34.5 
Q 14.296875 25.5 15.140625 22.25 
Q 16 19 17.640625 16.75 
Q 19.296875 14.5 21.84375 13.390625 
Q 24.40625 12.296875 28.046875 12.296875 
Q 31.703125 12.296875 35.203125 14.09375 
Q 38.703125 15.90625 41.203125 19.09375 
Q 43.703125 22.296875 44.640625 25.890625 
Q 45.59375 29.5 45.59375 40.296875 
L 45.59375 60.5 
L 53.90625 60.5 
z
" id="STHeitiTC-Medium-117"/>
      <path d="M 54.703125 6 
L 46.5 6 
L 46.5 32 
Q 46.5 41 45.640625 44.25 
Q 44.796875 47.5 43.140625 49.75 
Q 41.5 52 38.953125 53.09375 
Q 36.40625 54.203125 32.75 54.203125 
Q 29.09375 54.203125 25.59375 52.390625 
Q 22.09375 50.59375 19.59375 47.390625 
Q 17.09375 44.203125 16.140625 40.59375 
Q 15.203125 37 15.203125 26.203125 
L 15.203125 6 
L 6.90625 6 
L 6.90625 60.5 
L 15.203125 60.5 
L 15.203125 52.296875 
Q 23.296875 61.90625 34.40625 61.90625 
Q 40.296875 61.90625 45.09375 58.84375 
Q 49.90625 55.796875 52.296875 50.4375 
Q 54.703125 45.09375 54.703125 34 
z
" id="STHeitiTC-Medium-110"/>
      <path d="M 32 53.296875 
L 21.203125 53.296875 
L 21.203125 15.09375 
Q 21.203125 13 21.796875 12.546875 
Q 22.40625 12.09375 24.796875 12.09375 
L 29.59375 12.09375 
L 29.59375 5 
Q 24.796875 4.203125 22.296875 4.203125 
Q 17.5 4.203125 15.203125 6.546875 
Q 12.90625 8.90625 12.90625 14 
L 12.90625 53.296875 
L 3.5 53.296875 
L 3.5 60.5 
L 12.90625 60.5 
L 12.90625 81 
L 21.203125 81 
L 21.203125 60.5 
L 32 60.5 
z
" id="STHeitiTC-Medium-116"/>
     </defs>
     <g transform="translate(23.10625 138)rotate(-90)scale(0.16 -0.16)">
      <use xlink:href="#STHeitiTC-Medium-82"/>
      <use x="60.699997" xlink:href="#STHeitiTC-Medium-101"/>
      <use x="125.699982" xlink:href="#STHeitiTC-Medium-97"/>
      <use x="193.999969" xlink:href="#STHeitiTC-Medium-100"/>
      <use x="262.499954" xlink:href="#STHeitiTC-Medium-32"/>
      <use x="287.499939" xlink:href="#STHeitiTC-Medium-67"/>
      <use x="368.799927" xlink:href="#STHeitiTC-Medium-111"/>
      <use x="434.299911" xlink:href="#STHeitiTC-Medium-117"/>
      <use x="495.099899" xlink:href="#STHeitiTC-Medium-110"/>
      <use x="556.099884" xlink:href="#STHeitiTC-Medium-116"/>
     </g>
    </g>
   </g>
   <g id="patch_9">
    <path d="M 47.315 170.8 
L 47.315 10.8 
" style="fill:none;stroke:#000000;stroke-linecap:square;stroke-linejoin:miter;stroke-width:0.8;"/>
   </g>
   <g id="patch_10">
    <path d="M 565.2 170.8 
L 565.2 10.8 
" style="fill:none;stroke:#000000;stroke-linecap:square;stroke-linejoin:miter;stroke-width:0.8;"/>
   </g>
   <g id="patch_11">
    <path d="M 47.315 170.8 
L 565.2 170.8 
" style="fill:none;stroke:#000000;stroke-linecap:square;stroke-linejoin:miter;stroke-width:0.8;"/>
   </g>
   <g id="patch_12">
    <path d="M 47.315 10.8 
L 565.2 10.8 
" style="fill:none;stroke:#000000;stroke-linecap:square;stroke-linejoin:miter;stroke-width:0.8;"/>
   </g>
  </g>
 </g>
 <defs>
  <clipPath id="p73e10035fc">
   <rect height="160" width="517.885" x="47.315" y="10.8"/>
  </clipPath>
 </defs>
</svg>
