<?xml version="1.0" encoding="utf-8" standalone="no"?>
<!DOCTYPE svg PUBLIC "-//W3C//DTD SVG 1.1//EN"
  "http://www.w3.org/Graphics/SVG/1.1/DTD/svg11.dtd">
<!-- Created with matplotlib (https://matplotlib.org/) -->
<svg height="345.6pt" version="1.1" viewBox="0 0 460.8 345.6" width="460.8pt" xmlns="http://www.w3.org/2000/svg" xmlns:xlink="http://www.w3.org/1999/xlink">
 <defs>
  <style type="text/css">
*{stroke-linecap:butt;stroke-linejoin:round;}
  </style>
 </defs>
 <g id="figure_1">
  <g id="patch_1">
   <path d="M 0 345.6 
L 460.8 345.6 
L 460.8 0 
L 0 0 
z
" style="fill:none;opacity:0;"/>
  </g>
  <g id="axes_1">
   <g id="patch_2">
    <path d="M 235.427551 26.034218 
C 224.463962 26.034218 213.538727 27.330575 202.879576 29.896269 
C 192.220425 32.461963 181.901936 36.279042 172.139192 41.26794 
L 235.427551 165.116524 
L 235.427551 26.034218 
z
" style="fill:#8dd3c7;"/>
   </g>
   <g id="patch_3">
    <path d="M 166.342595 44.230083 
C 156.579851 49.218981 147.441158 55.344795 139.117006 62.479834 
C 130.792855 69.614873 123.341486 77.709217 116.918219 86.594144 
L 229.630953 168.078666 
L 166.342595 44.230083 
z
" style="fill:#ffffb3;"/>
   </g>
   <g id="patch_4">
    <path d="M 114.149687 89.824073 
C 112.22474 92.486739 110.39475 95.216779 108.66316 98.009056 
C 106.931571 100.801332 105.29947 103.654091 103.76993 106.561963 
L 226.862422 171.308596 
L 114.149687 89.824073 
z
" style="fill:#bebada;"/>
   </g>
   <g id="patch_5">
    <path d="M 115.589856 113.891917 
C 114.060316 116.799788 112.634297 119.760946 111.314484 122.769817 
C 109.994671 125.778688 108.781892 128.833382 107.67843 131.928148 
L 238.682348 178.63855 
L 115.589856 113.891917 
z
" style="fill:#fb8072;"/>
   </g>
   <g id="patch_6">
    <path d="M 107.67843 131.928148 
C 106.574969 135.022915 105.581517 138.155812 104.699946 141.320941 
C 103.818375 144.48607 103.049237 147.681444 102.393981 150.901048 
L 238.682348 178.63855 
L 107.67843 131.928148 
z
" style="fill:#80b1d3;"/>
   </g>
   <g id="patch_7">
    <path d="M 102.393981 150.901048 
C 101.738725 154.120652 101.197762 157.362464 100.77211 160.620382 
C 100.346459 163.8783 100.036386 167.150278 99.842475 170.430158 
L 238.682348 178.63855 
L 102.393981 150.901048 
z
" style="fill:#fdb462;"/>
   </g>
   <g id="patch_8">
    <path d="M 99.842475 170.430158 
C 99.648564 173.710037 99.570938 176.995758 99.609741 180.281135 
C 99.648545 183.566512 99.803754 186.849483 100.075077 190.123868 
L 238.682348 178.63855 
L 99.842475 170.430158 
z
" style="fill:#b3de69;"/>
   </g>
   <g id="patch_9">
    <path d="M 100.075077 190.123868 
C 102.305991 217.04701 112.333651 242.745705 128.92686 264.064663 
C 145.52007 285.383622 167.970744 301.413098 193.522387 310.18499 
C 219.074031 318.956883 246.636275 320.096868 272.825025 313.464978 
C 299.013775 306.833088 322.711475 292.712326 341.008519 272.836442 
C 359.305562 252.960557 371.421158 228.177717 375.867751 201.530758 
C 380.314345 174.883799 376.902186 147.509833 366.050221 122.769836 
C 355.198255 98.02984 337.36957 76.979547 314.753172 62.203513 
C 292.136775 47.42748 265.697778 39.556246 238.682364 39.556243 
L 238.682348 178.63855 
L 100.075077 190.123868 
z
" style="fill:#fccde5;"/>
   </g>
   <g id="matplotlib.axis_1"/>
   <g id="matplotlib.axis_2"/>
   <g id="text_1">
    <!-- 村上春树 -->
    <defs>
     <path d="M 59.09375 19.796875 
Q 58 23.703125 56.046875 28.296875 
Q 54.09375 32.90625 51.703125 36.90625 
L 59.40625 39.703125 
Q 61.59375 35.796875 63.640625 31.296875 
Q 65.703125 26.796875 67.203125 22.203125 
z
M 37.90625 23.703125 
Q 36.5 27.90625 34.890625 31.40625 
Q 33.296875 34.90625 31.296875 38.40625 
L 37.5 41.5 
Q 39.90625 37.90625 41.75 34.453125 
Q 43.59375 31 45.09375 27.40625 
z
M 22.5 35.40625 
Q 19.09375 26.90625 15.5 20.09375 
Q 11.90625 13.296875 8.796875 9.09375 
Q 7.703125 11.5 6.703125 13.25 
Q 5.703125 15 4.09375 17 
Q 8.90625 22.59375 13.65625 31.1875 
Q 18.40625 39.796875 22.40625 52.59375 
Q 17.296875 52.59375 13.75 52.390625 
Q 10.203125 52.203125 7.296875 51.796875 
L 7.296875 60.703125 
Q 10.203125 60.203125 13.796875 60.046875 
Q 17.40625 59.90625 22.5 59.90625 
Q 22.5 64.40625 22.453125 67.59375 
Q 22.40625 70.796875 22.296875 73.09375 
Q 22.203125 75.40625 22.046875 77.046875 
Q 21.90625 78.703125 21.703125 80.09375 
Q 23.796875 79.703125 26 79.59375 
Q 28.203125 79.5 30.90625 79.59375 
Q 32.40625 79.703125 32.65625 79.140625 
Q 32.90625 78.59375 31.5 77.59375 
Q 30.40625 76.796875 30.40625 74.296875 
L 30.40625 59.90625 
Q 33.796875 60 36.4375 60.203125 
Q 39.09375 60.40625 41.296875 60.703125 
L 41.296875 51.796875 
Q 39.09375 52.09375 36.4375 52.25 
Q 33.796875 52.40625 30.40625 52.5 
L 30.40625 8.296875 
Q 30.40625 3.203125 30.546875 -1.140625 
Q 30.703125 -5.5 31.09375 -10.5 
L 21.5 -10.5 
Q 22 -5.5 22.25 -1.140625 
Q 22.5 3.203125 22.5 8.296875 
z
M 82.90625 58.5 
Q 85.296875 58.5 87.09375 58.5 
Q 88.90625 58.5 90.34375 58.59375 
Q 91.796875 58.703125 93.09375 58.84375 
Q 94.40625 59 95.796875 59.203125 
L 95.796875 50.296875 
Q 93.203125 50.59375 90.34375 50.75 
Q 87.5 50.90625 82.90625 50.90625 
L 82.90625 -1.203125 
Q 82.90625 -3.5 82.59375 -4.890625 
Q 82.296875 -6.296875 80.796875 -7.296875 
Q 79.296875 -8.296875 76.1875 -9.046875 
Q 73.09375 -9.796875 67.59375 -10.796875 
Q 67 -8.59375 65.796875 -5.890625 
Q 64.59375 -3.203125 63.09375 -0.59375 
Q 67 -0.59375 69.296875 -0.390625 
Q 71.59375 -0.203125 72.890625 0.25 
Q 74.203125 0.703125 74.59375 1.390625 
Q 75 2.09375 75 3.09375 
L 75 50.90625 
L 61.203125 50.90625 
Q 58.59375 50.90625 56.640625 50.90625 
Q 54.703125 50.90625 53.140625 50.796875 
Q 51.59375 50.703125 50.296875 50.59375 
Q 49 50.5 47.703125 50.40625 
L 47.703125 59.203125 
Q 49 59 50.296875 58.84375 
Q 51.59375 58.703125 53.140625 58.640625 
Q 54.703125 58.59375 56.640625 58.546875 
Q 58.59375 58.5 61.203125 58.5 
L 75 58.5 
Q 75 67.59375 74.890625 72.6875 
Q 74.796875 77.796875 74.59375 80.09375 
Q 77.09375 79.59375 79.296875 79.390625 
Q 81.5 79.203125 83.703125 79.296875 
Q 85.40625 79.40625 85.5 78.75 
Q 85.59375 78.09375 84.296875 77.5 
Q 82.90625 76.90625 82.90625 74.59375 
z
" id="STHeitiTC-Medium-26449"/>
     <path d="M 50.703125 5.09375 
Q 58 5.09375 64.140625 5.140625 
Q 70.296875 5.203125 75.546875 5.34375 
Q 80.796875 5.5 85.25 5.640625 
Q 89.703125 5.796875 93.703125 6.09375 
L 93.703125 -3.90625 
Q 89.59375 -3.59375 85.09375 -3.4375 
Q 80.59375 -3.296875 75.296875 -3.140625 
Q 70 -3 63.796875 -2.953125 
Q 57.59375 -2.90625 50.09375 -2.90625 
Q 35.203125 -2.90625 24.703125 -3.15625 
Q 14.203125 -3.40625 6.203125 -3.90625 
L 6.203125 6.09375 
Q 13.09375 5.59375 21.546875 5.390625 
Q 30 5.203125 41.40625 5.09375 
L 41.40625 53.5 
Q 41.40625 59.5 41.34375 63.796875 
Q 41.296875 68.09375 41.1875 71.046875 
Q 41.09375 74 40.9375 75.796875 
Q 40.796875 77.59375 40.59375 78.703125 
Q 43.09375 78.203125 46.1875 78 
Q 49.296875 77.796875 52.203125 77.796875 
Q 53.59375 77.796875 53.75 77.1875 
Q 53.90625 76.59375 52.59375 75.703125 
Q 51.796875 75.09375 51.25 72.546875 
Q 50.703125 70 50.703125 66.59375 
L 50.703125 53.40625 
L 63.90625 53.40625 
Q 70.703125 53.40625 75.84375 53.59375 
Q 81 53.796875 85.09375 54.203125 
L 85.09375 44.296875 
Q 81.09375 44.796875 75.890625 44.9375 
Q 70.703125 45.09375 63.90625 45.09375 
L 50.703125 45.09375 
z
" id="STHeitiTC-Medium-19978"/>
     <path d="M 34.203125 9.09375 
L 34.203125 0.796875 
L 67.90625 0.796875 
L 67.90625 9.09375 
z
M 67.90625 14.90625 
L 67.90625 22.703125 
L 34.203125 22.703125 
L 34.203125 14.90625 
z
M 40.703125 38.203125 
Q 39 35.703125 37 33.34375 
Q 35 31 32.703125 28.703125 
Q 36.09375 28.5 40.75 28.5 
Q 45.40625 28.5 51 28.5 
Q 56.09375 28.5 60.34375 28.546875 
Q 64.59375 28.59375 68.09375 28.703125 
Q 63.296875 33 60.90625 38.203125 
z
M 44.5 65.59375 
Q 34.40625 65.5 26.75 65.296875 
Q 19.09375 65.09375 13.296875 64.59375 
L 13.296875 72.09375 
Q 19.296875 71.59375 27.140625 71.390625 
Q 35 71.203125 45.40625 71.09375 
Q 45.796875 74.59375 45.84375 77.25 
Q 45.90625 79.90625 45.59375 81.09375 
Q 46.703125 80.703125 48.34375 80.453125 
Q 50 80.203125 51.703125 80.046875 
Q 53.40625 79.90625 54.84375 79.84375 
Q 56.296875 79.796875 57 79.90625 
Q 58.09375 80.09375 58.25 79.390625 
Q 58.40625 78.703125 56.90625 77.203125 
Q 56.40625 76.703125 55.546875 75 
Q 54.703125 73.296875 53.90625 71.09375 
Q 64.90625 71.09375 73.15625 71.34375 
Q 81.40625 71.59375 87.703125 72.09375 
L 87.703125 64.59375 
Q 81.296875 65.09375 72.640625 65.34375 
Q 64 65.59375 52.5 65.59375 
Q 51.59375 61.5 50.40625 57.796875 
L 57.703125 57.796875 
Q 65.203125 57.796875 71.640625 58 
Q 78.09375 58.203125 83.796875 58.796875 
L 83.796875 51.09375 
Q 78.203125 51.59375 71.640625 51.84375 
Q 65.09375 52.09375 57.59375 52.09375 
L 48.40625 52.09375 
Q 47.5 50 46.5 47.953125 
Q 45.5 45.90625 44.40625 43.90625 
L 63.59375 43.90625 
Q 67.59375 43.90625 71.1875 43.953125 
Q 74.796875 44 78.140625 44.09375 
Q 81.5 44.203125 84.75 44.34375 
Q 88 44.5 91.40625 44.796875 
L 91.40625 37.203125 
Q 85.703125 37.703125 80.453125 37.890625 
Q 75.203125 38.09375 68.90625 38.203125 
Q 70.703125 35.703125 73.5 33.59375 
Q 76.296875 31.5 79.796875 29.890625 
Q 83.296875 28.296875 87.390625 27.296875 
Q 91.5 26.296875 95.90625 26.09375 
Q 94.203125 23.203125 93.140625 20.796875 
Q 92.09375 18.40625 91.296875 15.796875 
Q 82.5 19.09375 76.09375 22.90625 
L 76.09375 3.59375 
Q 76.09375 -3.296875 77 -9.40625 
L 67.90625 -9.40625 
L 67.90625 -5.296875 
L 34.203125 -5.296875 
L 34.203125 -11 
L 25.296875 -11 
Q 25.796875 -7.90625 25.9375 -5.34375 
Q 26.09375 -2.796875 26.09375 0.703125 
L 26.09375 22.59375 
Q 22.796875 19.796875 19 17.09375 
Q 15.203125 14.40625 10.90625 11.703125 
Q 9.796875 13.703125 7.9375 15.640625 
Q 6.09375 17.59375 4.09375 18.90625 
Q 12.703125 23 19.640625 27.75 
Q 26.59375 32.5 31.703125 38.203125 
Q 25.40625 38.09375 20 37.890625 
Q 14.59375 37.703125 8.796875 37.203125 
L 8.796875 44.796875 
Q 12.203125 44.5 15.390625 44.34375 
Q 18.59375 44.203125 21.890625 44.09375 
Q 25.203125 44 28.640625 43.953125 
Q 32.09375 43.90625 36.203125 43.90625 
Q 39 47.90625 40.703125 52.09375 
Q 33.703125 52.09375 27.703125 51.84375 
Q 21.703125 51.59375 16.5 51.09375 
L 16.5 58.796875 
Q 22.203125 58.296875 28.59375 58 
Q 35 57.703125 42.703125 57.796875 
Q 43.203125 59.59375 43.640625 61.59375 
Q 44.09375 63.59375 44.5 65.59375 
z
" id="STHeitiTC-Medium-26149"/>
     <path d="M 30.5 41.296875 
Q 32.796875 38.5 34.796875 35.5 
Q 36.796875 32.5 38.5 29.5 
L 32.40625 25.59375 
Q 30.90625 28.796875 29.296875 32 
Q 27.703125 35.203125 25.59375 38.09375 
z
M 17.203125 30.90625 
Q 15.5 25.5 13.59375 20.640625 
Q 11.703125 15.796875 9.703125 11.5 
Q 8.5 13.703125 7.25 15.390625 
Q 6 17.09375 4.59375 18.703125 
Q 8.203125 24.296875 11.546875 32.9375 
Q 14.90625 41.59375 17 53 
Q 13.203125 52.90625 10.390625 52.75 
Q 7.59375 52.59375 5.296875 52.296875 
L 5.296875 60.203125 
Q 7.59375 59.90625 10.4375 59.75 
Q 13.296875 59.59375 17.203125 59.5 
Q 17.203125 64 17.140625 67.203125 
Q 17.09375 70.40625 17 72.703125 
Q 16.90625 75 16.75 76.703125 
Q 16.59375 78.40625 16.40625 79.796875 
Q 18.5 79.5 20.75 79.390625 
Q 23 79.296875 25.40625 79.296875 
Q 26.90625 79.296875 27.09375 78.84375 
Q 27.296875 78.40625 26 77.09375 
Q 25.203125 76.296875 25.046875 75.6875 
Q 24.90625 75.09375 24.90625 73.703125 
L 24.90625 59.59375 
Q 27.5 59.703125 29.5 59.84375 
Q 31.5 60 33.203125 60.203125 
L 33.203125 52.296875 
Q 31.5 52.5 29.5 52.640625 
Q 27.5 52.796875 24.90625 52.90625 
L 24.90625 8.09375 
Q 24.90625 3 25.046875 -1.34375 
Q 25.203125 -5.703125 25.59375 -10.703125 
L 16.203125 -10.703125 
Q 16.703125 -5.703125 16.953125 -1.34375 
Q 17.203125 3 17.203125 8.09375 
z
M 51.09375 22.796875 
Q 49.90625 19.796875 48.75 17.296875 
Q 47.59375 14.796875 46.1875 12.34375 
Q 44.796875 9.90625 42.890625 7.203125 
Q 41 4.5 38.5 1.09375 
Q 36.90625 2.5 35.40625 3.390625 
Q 33.90625 4.296875 31.5 5.5 
Q 34.5 8.59375 36.703125 11.546875 
Q 38.90625 14.5 40.65625 17.5 
Q 42.40625 20.5 43.796875 23.640625 
Q 45.203125 26.796875 46.5 30.40625 
Q 43.296875 35.796875 40.890625 39.4375 
Q 38.5 43.09375 37 45 
L 42.203125 48.59375 
Q 43.59375 46.5 45.34375 43.890625 
Q 47.09375 41.296875 49.09375 38.40625 
Q 50.40625 42.90625 51.203125 48 
Q 52 53.09375 52.5 59.796875 
L 43 59.796875 
Q 40.703125 59.796875 38.890625 59.75 
Q 37.09375 59.703125 35.09375 59.5 
L 35.09375 66.90625 
Q 36.796875 66.796875 38.140625 66.6875 
Q 39.5 66.59375 40.953125 66.546875 
Q 42.40625 66.5 44.09375 66.5 
Q 45.796875 66.5 48.203125 66.5 
Q 50.59375 66.5 52.296875 66.5 
Q 54 66.5 55.390625 66.546875 
Q 56.796875 66.59375 58.09375 66.640625 
Q 59.40625 66.703125 60.90625 66.90625 
Q 59.703125 55.796875 58.09375 47.1875 
Q 56.5 38.59375 54 31 
Q 56.09375 27.796875 57.75 25.296875 
Q 59.40625 22.796875 60.75 20.59375 
Q 62.09375 18.40625 63.25 16.453125 
Q 64.40625 14.5 65.5 12.59375 
L 58.5 7.90625 
Q 57.40625 10.90625 55.65625 14.40625 
Q 53.90625 17.90625 51.09375 22.796875 
z
M 69.09375 42.796875 
Q 70.296875 38.703125 71.390625 34.296875 
Q 72.5 29.90625 73.296875 25.09375 
L 66.296875 23.203125 
Q 65.703125 27.703125 64.703125 32.34375 
Q 63.703125 37 62.5 41.203125 
z
M 87.09375 59.703125 
Q 90.203125 59.703125 91.890625 59.796875 
Q 93.59375 59.90625 95.40625 60.40625 
L 95.40625 52.09375 
Q 93.703125 52.40625 91.890625 52.546875 
Q 90.09375 52.703125 87.09375 52.703125 
L 87.09375 0.09375 
Q 87.09375 -2 86.6875 -3.453125 
Q 86.296875 -4.90625 84.9375 -5.953125 
Q 83.59375 -7 80.890625 -7.84375 
Q 78.203125 -8.703125 73.59375 -9.703125 
Q 73 -7.5 72.203125 -5.59375 
Q 71.40625 -3.703125 69.796875 -0.90625 
Q 73.09375 -0.90625 74.890625 -0.703125 
Q 76.703125 -0.5 77.59375 -0.140625 
Q 78.5 0.203125 78.703125 0.703125 
Q 78.90625 1.203125 78.90625 1.90625 
L 78.90625 52.703125 
L 72.40625 52.703125 
Q 68.90625 52.703125 67 52.640625 
Q 65.09375 52.59375 63.40625 52.203125 
L 63.40625 60.40625 
Q 65.203125 60 67.046875 59.84375 
Q 68.90625 59.703125 72.40625 59.703125 
L 78.90625 59.703125 
Q 78.90625 68.5 78.796875 73.640625 
Q 78.703125 78.796875 78.5 81 
Q 81.09375 80.59375 83.546875 80.390625 
Q 86 80.203125 88 80.203125 
Q 89.703125 80.203125 89.84375 79.703125 
Q 90 79.203125 88.90625 78.5 
Q 87.796875 77.90625 87.4375 77.203125 
Q 87.09375 76.5 87.09375 75.5 
z
" id="STHeitiTC-Medium-26641"/>
    </defs>
    <g transform="translate(159.624778 19.7594)scale(0.1 -0.1)">
     <use xlink:href="#STHeitiTC-Medium-26449"/>
     <use x="99.999985" xlink:href="#STHeitiTC-Medium-19978"/>
     <use x="199.999969" xlink:href="#STHeitiTC-Medium-26149"/>
     <use x="299.999954" xlink:href="#STHeitiTC-Medium-26641"/>
    </g>
   </g>
   <g id="text_2">
    <!-- 7.5% -->
    <defs>
     <path d="M 53.796875 79.203125 
L 14.59375 3.90625 
L 7.5 7.703125 
L 40.5 71 
L 6.5 71 
L 6.5 79.203125 
z
" id="STHeitiTC-Medium-55"/>
     <path d="M 15.09375 23.09375 
Q 17.90625 23.09375 19.84375 21.140625 
Q 21.796875 19.203125 21.796875 16.34375 
Q 21.796875 13.5 19.84375 11.546875 
Q 17.90625 9.59375 15.15625 9.59375 
Q 12.40625 9.59375 10.40625 11.59375 
Q 8.40625 13.59375 8.40625 16.390625 
Q 8.40625 19.203125 10.40625 21.140625 
Q 12.40625 23.09375 15.09375 23.09375 
z
" id="STHeitiTC-Medium-46"/>
     <path d="M 49.90625 71 
L 24.203125 71 
L 20.90625 53.09375 
Q 25.203125 54.203125 29 54.203125 
Q 38.703125 54.203125 45.203125 47.34375 
Q 51.703125 40.5 51.703125 29.890625 
Q 51.703125 19.296875 44.703125 11.75 
Q 37.703125 4.203125 26 4.203125 
Q 17 4.203125 10.796875 9.703125 
Q 4.59375 15.203125 3.296875 24.796875 
L 12 24.796875 
Q 13.296875 18.796875 17.296875 15.59375 
Q 21.296875 12.40625 26.40625 12.40625 
Q 33.203125 12.40625 38.09375 17.546875 
Q 43 22.703125 43 30.296875 
Q 43 37.09375 38.75 41.5 
Q 34.5 45.90625 27.296875 45.90625 
Q 20.09375 45.90625 10.5 41.796875 
L 17.5 79.203125 
L 49.90625 79.203125 
z
" id="STHeitiTC-Medium-53"/>
     <path d="M 68.703125 87.40625 
L 15.5 6 
L 7.296875 6 
L 54.703125 78.5 
Q 47.203125 76.796875 35.59375 76.796875 
L 34.40625 76.796875 
Q 36.703125 72.90625 36.703125 68.703125 
Q 36.703125 61.203125 31.640625 55.953125 
Q 26.59375 50.703125 19.140625 50.703125 
Q 11.703125 50.703125 6.59375 55.796875 
Q 1.5 60.90625 1.5 68.34375 
Q 1.5 75.796875 6.75 80.84375 
Q 12 85.90625 18.90625 85.90625 
Q 21.59375 85.90625 26.59375 84.84375 
Q 31.59375 83.796875 38.90625 83.796875 
Q 50.5 83.796875 61.59375 87.40625 
z
M 19.09375 58.40625 
Q 23.296875 58.40625 26.25 61.296875 
Q 29.203125 64.203125 29.203125 68.390625 
Q 29.203125 72.59375 26.25 75.5 
Q 23.296875 78.40625 19.140625 78.40625 
Q 15 78.40625 12.046875 75.453125 
Q 9.09375 72.5 9.09375 68.390625 
Q 9.09375 64.296875 12.046875 61.34375 
Q 15 58.40625 19.09375 58.40625 
z
M 58.296875 44.09375 
Q 65.59375 44.09375 70.75 38.9375 
Q 75.90625 33.796875 75.90625 26.5 
Q 75.90625 19.203125 70.75 14.046875 
Q 65.59375 8.90625 58.34375 8.90625 
Q 51.09375 8.90625 45.9375 14.046875 
Q 40.796875 19.203125 40.796875 26.453125 
Q 40.796875 33.703125 45.9375 38.890625 
Q 51.09375 44.09375 58.296875 44.09375 
z
M 58.296875 16.5 
Q 62.5 16.5 65.453125 19.390625 
Q 68.40625 22.296875 68.40625 26.4375 
Q 68.40625 30.59375 65.453125 33.546875 
Q 62.5 36.5 58.34375 36.5 
Q 54.203125 36.5 51.296875 33.546875 
Q 48.40625 30.59375 48.40625 26.5 
Q 48.40625 22.40625 51.296875 19.453125 
Q 54.203125 16.5 58.296875 16.5 
z
" id="STHeitiTC-Medium-37"/>
    </defs>
    <g transform="translate(205.097985 87.369527)scale(0.1 -0.1)">
     <use xlink:href="#STHeitiTC-Medium-55"/>
     <use x="55.399994" xlink:href="#STHeitiTC-Medium-46"/>
     <use x="83.099991" xlink:href="#STHeitiTC-Medium-53"/>
     <use x="138.499985" xlink:href="#STHeitiTC-Medium-37"/>
    </g>
   </g>
   <g id="text_3">
    <!-- 渡边淳一 -->
    <defs>
     <path d="M 24.90625 26.296875 
Q 23.90625 23.59375 22.796875 19.59375 
Q 21.703125 15.59375 20.203125 9.59375 
Q 19.09375 5.203125 18 0.34375 
Q 16.90625 -4.5 16.203125 -9 
Q 13.796875 -7 11 -5.09375 
Q 8.203125 -3.203125 5.90625 -1.90625 
Q 7.90625 1.5 9.546875 5.09375 
Q 11.203125 8.703125 12.90625 13.703125 
Q 13.703125 16.09375 14.390625 18.140625 
Q 15.09375 20.203125 15.640625 22.140625 
Q 16.203125 24.09375 16.703125 26.09375 
Q 17.203125 28.09375 17.703125 30.40625 
Q 20.203125 27.703125 24.90625 26.296875 
z
M 20 38.296875 
Q 18.703125 39.40625 16.84375 40.703125 
Q 15 42 13 43.34375 
Q 11 44.703125 8.890625 46 
Q 6.796875 47.296875 4.90625 48.296875 
L 10.59375 55.09375 
Q 13.796875 53.09375 17.84375 50.75 
Q 21.90625 48.40625 25.09375 46.703125 
z
M 23.40625 59.203125 
Q 21.296875 61.59375 17.6875 64.59375 
Q 14.09375 67.59375 10.09375 70 
L 16.296875 76.59375 
Q 20.09375 73.90625 23.1875 71.59375 
Q 26.296875 69.296875 29.5 66.90625 
z
M 58.5 48.296875 
L 58.5 40.09375 
L 72.5 40.09375 
L 72.5 48.296875 
z
M 68.40625 72 
Q 73.90625 72 77.90625 72.09375 
Q 81.90625 72.203125 84.84375 72.34375 
Q 87.796875 72.5 89.75 72.59375 
Q 91.703125 72.703125 93.09375 72.90625 
L 93.09375 64.59375 
Q 91.5 64.796875 89.140625 64.9375 
Q 86.796875 65.09375 84.046875 65.1875 
Q 81.296875 65.296875 78.1875 65.34375 
Q 75.09375 65.40625 71.90625 65.40625 
L 41 65.40625 
Q 41.203125 62.5 41.296875 59.75 
Q 41.40625 57 41.40625 54.40625 
L 51.5 54.40625 
Q 51.40625 59.203125 50.59375 62.09375 
Q 52.59375 61.59375 55.09375 61.296875 
Q 57.59375 61 59.40625 61.203125 
Q 61 61.40625 59.703125 59.90625 
Q 58.796875 58.796875 58.5 54.40625 
L 72.5 54.40625 
Q 72.40625 57.296875 72.296875 59.140625 
Q 72.203125 61 71.90625 62.40625 
Q 74.5 61.59375 76.703125 61.390625 
Q 78.90625 61.203125 80.296875 61.40625 
Q 82.203125 61.703125 80.90625 60.296875 
Q 80 59.203125 79.703125 54.40625 
Q 84.203125 54.5 87.453125 54.703125 
Q 90.703125 54.90625 92.703125 55.203125 
L 92.703125 47.5 
Q 90.5 47.796875 87.25 48 
Q 84 48.203125 79.703125 48.296875 
L 79.703125 43.203125 
Q 79.703125 40.09375 79.84375 38.09375 
Q 80 36.09375 80.40625 33.5 
Q 78.09375 33.90625 74.640625 34.046875 
Q 71.203125 34.203125 65 34.203125 
Q 62.09375 34.203125 60 34.140625 
Q 57.90625 34.09375 56.25 34.046875 
Q 54.59375 34 53.296875 33.84375 
Q 52 33.703125 50.796875 33.5 
Q 51.203125 36.09375 51.34375 38.09375 
Q 51.5 40.09375 51.5 43 
L 51.5 48.296875 
L 41.5 48.296875 
Q 41.59375 37.703125 41.046875 29.34375 
Q 40.5 21 39.140625 14.046875 
Q 37.796875 7.09375 35.59375 1.1875 
Q 33.40625 -4.703125 30.296875 -10.203125 
Q 28.703125 -8.296875 26.703125 -6.59375 
Q 24.703125 -4.90625 22.703125 -3.796875 
Q 26.40625 1.90625 28.953125 8.546875 
Q 31.5 15.203125 32.75 24.140625 
Q 34 33.09375 34.046875 44.9375 
Q 34.09375 56.796875 32.796875 72.90625 
Q 34.40625 72.703125 36.546875 72.5 
Q 38.703125 72.296875 41.75 72.1875 
Q 44.796875 72.09375 49.09375 72.046875 
Q 53.40625 72 59.296875 72 
Q 58.5 75.703125 55.59375 80.09375 
L 65 81.90625 
Q 65.703125 79.5 66.546875 77.046875 
Q 67.40625 74.59375 68.40625 72 
z
M 57 21.703125 
Q 58.40625 17.796875 60.65625 14.140625 
Q 62.90625 10.5 65.796875 8.203125 
Q 68.703125 10.703125 71.25 14.25 
Q 73.796875 17.796875 75.40625 21.703125 
z
M 50.203125 21.40625 
Q 48.703125 21.296875 47.25 21.1875 
Q 45.796875 21.09375 44.40625 20.90625 
L 44.40625 29 
Q 48.90625 28.5 54.59375 28.34375 
Q 60.296875 28.203125 66.296875 28.203125 
Q 72.296875 28.203125 77.796875 28.390625 
Q 83.296875 28.59375 87.796875 29 
Q 80.796875 13.09375 71.40625 4.703125 
Q 75.90625 2.5 82.203125 1 
Q 88.5 -0.5 95.09375 -0.59375 
Q 92.796875 -2.90625 91.59375 -5 
Q 90.40625 -7.09375 89.59375 -9.796875 
Q 82.703125 -8.40625 76.640625 -6 
Q 70.59375 -3.59375 65.5 0.09375 
Q 62.40625 -2.09375 59.703125 -3.75 
Q 57 -5.40625 54.34375 -6.65625 
Q 51.703125 -7.90625 49 -8.90625 
Q 46.296875 -9.90625 43.203125 -10.90625 
Q 42.796875 -9.5 41.5 -7.5 
Q 40.203125 -5.5 38.203125 -3.703125 
Q 43.59375 -2.296875 49.5 -0.25 
Q 55.40625 1.796875 60.09375 4.40625 
Q 57.40625 7 54.796875 11.546875 
Q 52.203125 16.09375 50.203125 21.40625 
z
" id="STHeitiTC-Medium-28193"/>
     <path d="M 19.90625 54.59375 
Q 18.59375 58.796875 16.4375 63.796875 
Q 14.296875 68.796875 12 72.90625 
L 20.296875 76.796875 
Q 21.09375 74.90625 22.140625 72.546875 
Q 23.203125 70.203125 24.390625 67.75 
Q 25.59375 65.296875 26.84375 62.890625 
Q 28.09375 60.5 29.203125 58.40625 
z
M 17.796875 38 
Q 15.40625 38 13.703125 38 
Q 12 38 10.703125 37.953125 
Q 9.40625 37.90625 8.25 37.796875 
Q 7.09375 37.703125 5.796875 37.59375 
L 5.796875 46.203125 
Q 7.203125 46 10.09375 45.84375 
Q 13 45.703125 16.203125 45.703125 
Q 19.59375 45.703125 22.59375 45.84375 
Q 25.59375 46 26.796875 46.203125 
Q 26.5 43.5 26.390625 40.796875 
Q 26.296875 38.09375 26.296875 34 
L 26.296875 8.203125 
Q 32.296875 4.59375 38.1875 2.4375 
Q 44.09375 0.296875 49.40625 0 
Q 54.796875 -0.296875 60.09375 -0.1875 
Q 65.40625 -0.09375 70.84375 0.34375 
Q 76.296875 0.796875 82.046875 1.640625 
Q 87.796875 2.5 94.09375 3.703125 
Q 92.296875 0.296875 91.4375 -2.25 
Q 90.59375 -4.796875 90.296875 -7 
Q 76.5 -8 66.296875 -8.09375 
Q 56.09375 -8.203125 48.75 -7.5 
Q 41.40625 -6.796875 36.59375 -5.34375 
Q 31.796875 -3.90625 28.90625 -1.59375 
Q 26.09375 0.5 24.34375 1.390625 
Q 22.59375 2.296875 21.09375 1.546875 
Q 19.59375 0.796875 17.9375 -1.75 
Q 16.296875 -4.296875 13.796875 -9.09375 
Q 12.09375 -7.40625 10.34375 -6.09375 
Q 8.59375 -4.796875 6.09375 -3.40625 
Q 9.703125 1.296875 12.59375 4.09375 
Q 15.5 6.90625 17.796875 8.296875 
z
M 61.09375 55.09375 
Q 60.5 46.203125 59.09375 39.5 
Q 57.703125 32.796875 55.34375 27.34375 
Q 53 21.90625 49.546875 17.15625 
Q 46.09375 12.40625 41.40625 7.59375 
Q 38.296875 10.90625 32.796875 12.90625 
Q 37.703125 16.59375 41.296875 20.796875 
Q 44.90625 25 47.296875 30.09375 
Q 49.703125 35.203125 51.046875 41.34375 
Q 52.40625 47.5 52.796875 55.09375 
Q 49.296875 55.09375 46.796875 55 
Q 44.296875 54.90625 42.296875 54.84375 
Q 40.296875 54.796875 38.6875 54.640625 
Q 37.09375 54.5 35.59375 54.296875 
L 35.59375 63.09375 
Q 37.203125 63 38.796875 62.890625 
Q 40.40625 62.796875 42.34375 62.6875 
Q 44.296875 62.59375 46.890625 62.546875 
Q 49.5 62.5 53 62.5 
Q 53.09375 70.5 53.09375 74.796875 
Q 53.09375 79.09375 52.703125 81.5 
Q 55.203125 81 57.546875 80.75 
Q 59.90625 80.5 63.09375 80.40625 
Q 64.09375 80.40625 64.1875 80.046875 
Q 64.296875 79.703125 63.5 78.59375 
Q 63.203125 78.09375 62.953125 77.34375 
Q 62.703125 76.59375 62.453125 74.9375 
Q 62.203125 73.296875 62 70.34375 
Q 61.796875 67.40625 61.5 62.5 
Q 67 62.5 70.953125 62.5 
Q 74.90625 62.5 77.796875 62.59375 
Q 80.703125 62.703125 82.890625 62.796875 
Q 85.09375 62.90625 87 63.09375 
L 85.296875 22 
Q 85.09375 18.5 84.4375 16.25 
Q 83.796875 14 81.75 12.453125 
Q 79.703125 10.90625 76 9.90625 
Q 72.296875 8.90625 66.09375 7.90625 
Q 66 9.203125 65.796875 10.296875 
Q 65.59375 11.40625 65.09375 12.59375 
Q 64.59375 13.796875 63.75 15.1875 
Q 62.90625 16.59375 61.59375 18.40625 
Q 66.203125 17.90625 69.140625 17.953125 
Q 72.09375 18 73.796875 18.84375 
Q 75.5 19.703125 76.140625 21.296875 
Q 76.796875 22.90625 76.90625 25.5 
L 77.90625 55.09375 
z
" id="STHeitiTC-Medium-36793"/>
     <path d="M 78 51.703125 
L 45.59375 51.703125 
L 45.59375 44.09375 
L 78 44.09375 
z
M 86.40625 37.203125 
Q 82.09375 37.59375 76.34375 37.75 
Q 70.59375 37.90625 61.796875 37.90625 
Q 53.09375 37.90625 47.1875 37.75 
Q 41.296875 37.59375 37 37.296875 
Q 37.296875 39.296875 37.5 42.1875 
Q 37.703125 45.09375 37.703125 48 
Q 37.703125 51 37.59375 53.640625 
Q 37.5 56.296875 37 58.59375 
Q 41.5 58.09375 47.34375 57.890625 
Q 53.203125 57.703125 61.796875 57.703125 
Q 66.203125 57.703125 69.75 57.75 
Q 73.296875 57.796875 76.1875 57.890625 
Q 79.09375 58 81.59375 58.140625 
Q 84.09375 58.296875 86.40625 58.59375 
Q 86.203125 56.296875 86.046875 53.640625 
Q 85.90625 51 85.90625 48 
Q 85.796875 45.09375 85.9375 42.296875 
Q 86.09375 39.5 86.40625 37.203125 
z
M 27.40625 26.796875 
Q 26.296875 23.703125 24.9375 19.5 
Q 23.59375 15.296875 22.09375 10.59375 
Q 20.09375 4.40625 18.6875 -0.390625 
Q 17.296875 -5.203125 16.296875 -9.296875 
Q 13.5 -6.796875 11.140625 -5.296875 
Q 8.796875 -3.796875 5.90625 -2.796875 
Q 8 0.40625 10.140625 5 
Q 12.296875 9.59375 13.90625 13.796875 
Q 17.90625 24.40625 18.796875 31.90625 
Q 20.90625 29.59375 22.703125 28.59375 
Q 24.5 27.59375 27.40625 26.796875 
z
M 22 37.296875 
Q 19.40625 39.5 14.75 41.953125 
Q 10.09375 44.40625 5 46.5 
L 9.296875 54.09375 
Q 13.796875 52.296875 18.4375 50.046875 
Q 23.09375 47.796875 26.90625 45.703125 
z
M 24.796875 61.796875 
Q 21.296875 64.796875 17.796875 67.34375 
Q 14.296875 69.90625 10.5 72 
L 15.90625 78.59375 
Q 19.796875 76.296875 23.75 73.796875 
Q 27.703125 71.296875 30.59375 68.90625 
z
M 66.09375 -2.203125 
Q 66.09375 -3.703125 65.4375 -4.890625 
Q 64.796875 -6.09375 63.046875 -7.09375 
Q 61.296875 -8.09375 58.09375 -8.9375 
Q 54.90625 -9.796875 49.796875 -10.703125 
Q 49.703125 -8.09375 48.953125 -5.796875 
Q 48.203125 -3.5 46.296875 -0.90625 
Q 50.296875 -1.09375 52.640625 -1.09375 
Q 55 -1.09375 56.203125 -0.6875 
Q 57.40625 -0.296875 57.75 0.390625 
Q 58.09375 1.09375 58.09375 2.203125 
L 58.09375 7.703125 
Q 49.296875 7.59375 41.546875 7.296875 
Q 33.796875 7 28.703125 6.59375 
L 28.703125 15.09375 
Q 33.796875 14.703125 41.546875 14.390625 
Q 49.296875 14.09375 58.09375 14 
L 58.09375 18.59375 
L 71.296875 25.703125 
L 51.796875 25.703125 
Q 46.703125 25.703125 41.75 25.5 
Q 36.796875 25.296875 33.5 25 
L 33.5 33 
Q 36.90625 32.59375 43.453125 32.390625 
Q 50 32.203125 60.703125 32.203125 
Q 71.09375 32.203125 77.84375 32.453125 
Q 84.59375 32.703125 87.59375 33.09375 
L 87.59375 25.296875 
Q 85 25.296875 82.59375 24.640625 
Q 80.203125 24 78.296875 22.90625 
L 66.09375 15.40625 
L 66.09375 14 
Q 70.296875 14 74.4375 14.09375 
Q 78.59375 14.203125 82.34375 14.34375 
Q 86.09375 14.5 89.34375 14.703125 
Q 92.59375 14.90625 95 15.09375 
L 95 6.59375 
Q 92.59375 6.796875 89.34375 6.9375 
Q 86.09375 7.09375 82.34375 7.25 
Q 78.59375 7.40625 74.4375 7.546875 
Q 70.296875 7.703125 66.09375 7.703125 
z
M 58.40625 70 
Q 57.5 72.09375 56.546875 74.25 
Q 55.59375 76.40625 54.5 78.296875 
L 63.09375 80.90625 
Q 64.296875 78.90625 65.6875 75.75 
Q 67.09375 72.59375 68 70 
Q 71.59375 70.09375 75.140625 70.1875 
Q 78.703125 70.296875 82 70.4375 
Q 85.296875 70.59375 88.140625 70.75 
Q 91 70.90625 93 71.09375 
L 93 62.59375 
Q 87.5 63.203125 80.453125 63.453125 
Q 73.40625 63.703125 63.203125 63.703125 
Q 53.09375 63.703125 46.046875 63.453125 
Q 39 63.203125 33.5 62.59375 
L 33.5 71.09375 
Q 35.59375 70.90625 38.390625 70.703125 
Q 41.203125 70.5 44.453125 70.34375 
Q 47.703125 70.203125 51.25 70.09375 
Q 54.796875 70 58.40625 70 
z
" id="STHeitiTC-Medium-28147"/>
     <path d="M 92.59375 31.296875 
Q 84.90625 31.796875 74.59375 32.046875 
Q 64.296875 32.296875 49.90625 32.296875 
Q 35.5 32.296875 25.25 32.046875 
Q 15 31.796875 7.296875 31.296875 
L 7.296875 42.703125 
Q 15.09375 42.203125 25.296875 41.953125 
Q 35.5 41.703125 49.90625 41.703125 
Q 64.296875 41.703125 74.59375 41.953125 
Q 84.90625 42.203125 92.59375 42.703125 
z
" id="STHeitiTC-Medium-19968"/>
    </defs>
    <g transform="translate(90.065612 55.305107)scale(0.1 -0.1)">
     <use xlink:href="#STHeitiTC-Medium-28193"/>
     <use x="99.999985" xlink:href="#STHeitiTC-Medium-36793"/>
     <use x="199.999969" xlink:href="#STHeitiTC-Medium-28147"/>
     <use x="299.999954" xlink:href="#STHeitiTC-Medium-19968"/>
    </g>
   </g>
   <g id="text_4">
    <!-- 7.5% -->
    <g transform="translate(164.521804 108.104523)scale(0.1 -0.1)">
     <use xlink:href="#STHeitiTC-Medium-55"/>
     <use x="55.399994" xlink:href="#STHeitiTC-Medium-46"/>
     <use x="83.099991" xlink:href="#STHeitiTC-Medium-53"/>
     <use x="138.499985" xlink:href="#STHeitiTC-Medium-37"/>
    </g>
   </g>
   <g id="text_5">
    <!-- 马克西姆·高尔基 -->
    <defs>
     <path d="M 73 34.203125 
Q 77.40625 34.296875 82.046875 34.546875 
Q 86.703125 34.796875 89.296875 35 
Q 88.796875 26.90625 88.296875 19.15625 
Q 87.796875 11.40625 87.296875 5 
Q 87 0.5 86.046875 -2.34375 
Q 85.09375 -5.203125 82.9375 -6.890625 
Q 80.796875 -8.59375 77.1875 -9.4375 
Q 73.59375 -10.296875 68.09375 -10.90625 
Q 67.59375 -8.90625 66.546875 -5.84375 
Q 65.5 -2.796875 63.90625 -0.5 
Q 68.703125 -1 71.453125 -1 
Q 74.203125 -1 75.703125 0.046875 
Q 77.203125 1.09375 77.796875 3.390625 
Q 78.40625 5.703125 78.796875 9.90625 
Q 79.09375 13 79.390625 17.203125 
Q 79.703125 21.40625 80.203125 27.296875 
Q 68.59375 27.296875 59.046875 27.25 
Q 49.5 27.203125 42.34375 27.046875 
Q 35.203125 26.90625 30.640625 26.75 
Q 26.09375 26.59375 24.59375 26.5 
Q 25.203125 28.09375 25.59375 32.390625 
Q 26 36.703125 26.25 41.75 
Q 26.5 46.796875 26.546875 51.75 
Q 26.59375 56.703125 26.296875 59.59375 
Q 28.203125 59.09375 31.140625 58.75 
Q 34.09375 58.40625 36.09375 58.59375 
Q 38.59375 58.796875 36.5 56.703125 
Q 36.203125 56.40625 35.890625 55.40625 
Q 35.59375 54.40625 35.34375 52 
Q 35.09375 49.59375 34.796875 45.34375 
Q 34.5 41.09375 34.09375 34.203125 
L 64.796875 34.203125 
L 67.90625 65.203125 
L 41.59375 65.203125 
Q 35.5 65.203125 29.5 65 
Q 23.5 64.796875 16.90625 64.296875 
L 16.90625 73.59375 
Q 20.09375 73.40625 23.890625 73.203125 
Q 27.703125 73 31.640625 72.890625 
Q 35.59375 72.796875 39.640625 72.75 
Q 43.703125 72.703125 47.40625 72.703125 
Q 51.09375 72.703125 55.09375 72.75 
Q 59.09375 72.796875 63.046875 72.890625 
Q 67 73 70.796875 73.203125 
Q 74.59375 73.40625 77.796875 73.59375 
z
M 40.5 8.5 
Q 30.5 8.5 23.296875 8.25 
Q 16.09375 8 10.703125 7.703125 
L 10.703125 16.5 
Q 16 16 23.25 15.84375 
Q 30.5 15.703125 40.5 15.703125 
Q 50.40625 15.703125 58.203125 15.890625 
Q 66 16.09375 71.296875 16.5 
L 71.296875 7.703125 
Q 66 8.09375 58.203125 8.296875 
Q 50.40625 8.5 40.5 8.5 
z
" id="STHeitiTC-Medium-39532"/>
     <path d="M 26.90625 30.296875 
L 71.90625 30.296875 
L 71.90625 44.09375 
L 26.90625 44.09375 
z
M 45 61 
Q 38.796875 61 33.640625 60.890625 
Q 28.5 60.796875 24.046875 60.640625 
Q 19.59375 60.5 15.75 60.34375 
Q 11.90625 60.203125 8.296875 60 
L 8.296875 68.796875 
Q 11.90625 68.59375 15.75 68.4375 
Q 19.59375 68.296875 24.046875 68.1875 
Q 28.5 68.09375 33.640625 68 
Q 38.796875 67.90625 45 67.90625 
Q 45 73.203125 44.890625 76.390625 
Q 44.796875 79.59375 44.59375 81.09375 
Q 48.90625 80.5 54.203125 80.5 
Q 55.40625 80.5 55.5 80 
Q 55.59375 79.5 54.59375 78.90625 
Q 53.296875 78 53.296875 73.09375 
L 53.296875 67.90625 
Q 59.796875 67.90625 65.1875 67.953125 
Q 70.59375 68 75.1875 68.09375 
Q 79.796875 68.203125 83.75 68.390625 
Q 87.703125 68.59375 91.40625 68.796875 
L 91.40625 60.09375 
Q 87.703125 60.296875 83.75 60.5 
Q 79.796875 60.703125 75.1875 60.796875 
Q 70.59375 60.90625 65.1875 60.953125 
Q 59.796875 61 53.296875 61 
L 53.296875 50.703125 
Q 58.09375 50.703125 61.9375 50.703125 
Q 65.796875 50.703125 69.09375 50.796875 
Q 72.40625 50.90625 75.25 50.953125 
Q 78.09375 51 80.703125 51.203125 
Q 80.5 49 80.34375 45.25 
Q 80.203125 41.5 80.203125 37.40625 
Q 80.203125 33.296875 80.34375 29.5 
Q 80.5 25.703125 80.703125 23.40625 
Q 78.703125 23.5 73.25 23.59375 
Q 67.796875 23.703125 61 23.703125 
L 61 3.796875 
Q 61 2.59375 61.34375 1.6875 
Q 61.703125 0.796875 62.796875 0.1875 
Q 63.90625 -0.40625 66 -0.703125 
Q 68.09375 -1 71.703125 -1 
Q 75 -1 77 -0.703125 
Q 79 -0.40625 80.296875 0.6875 
Q 81.59375 1.796875 82.390625 3.84375 
Q 83.203125 5.90625 84 9.40625 
Q 85.90625 7.5 88.25 6.203125 
Q 90.59375 4.90625 92.90625 4.40625 
Q 91 -0.296875 89.546875 -2.890625 
Q 88.09375 -5.5 86 -6.703125 
Q 83.90625 -7.90625 80.546875 -8.15625 
Q 77.203125 -8.40625 71.40625 -8.40625 
Q 64.90625 -8.40625 61.15625 -8 
Q 57.40625 -7.59375 55.546875 -6.59375 
Q 53.703125 -5.59375 53.25 -4.09375 
Q 52.796875 -2.59375 52.796875 -0.296875 
L 52.796875 23.703125 
L 42.796875 23.703125 
Q 42.5 16.09375 40.84375 10.84375 
Q 39.203125 5.59375 35.703125 1.6875 
Q 32.203125 -2.203125 26.34375 -5.140625 
Q 20.5 -8.09375 11.796875 -11 
Q 10.703125 -9 9.59375 -7.140625 
Q 8.5 -5.296875 7 -3.59375 
Q 13.90625 -1.59375 19.046875 0.546875 
Q 24.203125 2.703125 27.640625 5.703125 
Q 31.09375 8.703125 32.890625 13 
Q 34.703125 17.296875 35 23.703125 
Q 29 23.703125 24.453125 23.640625 
Q 19.90625 23.59375 18.09375 23.5 
Q 18.296875 25.703125 18.4375 29.546875 
Q 18.59375 33.40625 18.59375 37.40625 
Q 18.59375 41.59375 18.4375 45.25 
Q 18.296875 48.90625 18.09375 51.203125 
Q 23.203125 50.90625 29.5 50.796875 
Q 35.796875 50.703125 45 50.703125 
z
" id="STHeitiTC-Medium-20811"/>
     <path d="M 44 45.09375 
Q 43.796875 39.40625 42.890625 35 
Q 42 30.59375 40.296875 27 
Q 38.59375 23.40625 36.140625 20.296875 
Q 33.703125 17.203125 30.5 14 
Q 29.59375 15.296875 27.59375 16.796875 
Q 25.59375 18.296875 23.796875 19.09375 
Q 27.09375 21.5 29.4375 24.140625 
Q 31.796875 26.796875 33.34375 29.890625 
Q 34.90625 33 35.703125 36.703125 
Q 36.5 40.40625 36.59375 45.09375 
L 22.796875 45.09375 
L 22.796875 7 
L 76.09375 7 
L 76.09375 45.09375 
L 62.09375 45.09375 
L 62.09375 29.703125 
Q 62.09375 27.90625 62.59375 26.796875 
Q 63.09375 25.703125 64.34375 25.25 
Q 65.59375 24.796875 67.75 25 
Q 69.90625 25.203125 73.203125 25.90625 
Q 72.40625 23.90625 72.15625 22 
Q 71.90625 20.09375 72 18.296875 
Q 71 18.203125 69.453125 18.140625 
Q 67.90625 18.09375 66.296875 18.09375 
Q 64.703125 18.09375 63.203125 18.09375 
Q 61.703125 18.09375 60.796875 18.09375 
Q 57.296875 18.296875 55.9375 19.9375 
Q 54.59375 21.59375 54.59375 25.09375 
L 54.59375 45.09375 
z
M 36.59375 65.796875 
Q 28.40625 65.796875 20.703125 65.640625 
Q 13 65.5 7.203125 65.09375 
L 7.203125 74.203125 
Q 10.296875 73.90625 14.1875 73.703125 
Q 18.09375 73.5 23.1875 73.34375 
Q 28.296875 73.203125 34.796875 73.09375 
Q 41.296875 73 49.796875 73 
Q 59.40625 73 66.09375 73.046875 
Q 72.796875 73.09375 77.59375 73.25 
Q 82.40625 73.40625 85.953125 73.65625 
Q 89.5 73.90625 92.796875 74.203125 
L 92.796875 65.09375 
Q 90.40625 65.296875 87.546875 65.4375 
Q 84.703125 65.59375 81.09375 65.640625 
Q 77.5 65.703125 72.84375 65.75 
Q 68.203125 65.796875 62.09375 65.796875 
L 62.09375 52 
Q 65.203125 52 68.453125 52.046875 
Q 71.703125 52.09375 74.703125 52.1875 
Q 77.703125 52.296875 80.34375 52.390625 
Q 83 52.5 84.90625 52.703125 
Q 84.703125 51.703125 84.59375 50.296875 
Q 84.5 48.90625 84.453125 47.34375 
Q 84.40625 45.796875 84.34375 44.25 
Q 84.296875 42.703125 84.296875 41.40625 
L 84.296875 17.40625 
Q 84.296875 10.5 84.546875 3.796875 
Q 84.796875 -2.90625 85.203125 -7.296875 
L 76.09375 -7.296875 
L 76.09375 -0.09375 
L 22.796875 -0.09375 
L 22.796875 -9 
L 13.90625 -9 
Q 14 -6.796875 14.140625 -3.6875 
Q 14.296875 -0.59375 14.4375 2.953125 
Q 14.59375 6.5 14.640625 10.25 
Q 14.703125 14 14.703125 17.40625 
L 14.703125 41.40625 
Q 14.703125 44 14.5 47.34375 
Q 14.296875 50.703125 14.09375 52.703125 
Q 16 52.5 18.546875 52.390625 
Q 21.09375 52.296875 24.046875 52.1875 
Q 27 52.09375 30.203125 52.046875 
Q 33.40625 52 36.59375 52 
z
M 54.59375 65.796875 
L 44 65.796875 
L 44 52 
L 54.59375 52 
z
" id="STHeitiTC-Medium-35199"/>
     <path d="M 62.09375 17.296875 
Q 62.09375 20 61.796875 23.25 
Q 61.5 26.5 60.90625 29.59375 
L 68.59375 30.5 
Q 69.09375 27.703125 69.5 24.453125 
Q 69.90625 21.203125 70.203125 18.203125 
z
M 63.5 47.59375 
Q 63.09375 50.90625 62.5 54.453125 
Q 61.90625 58 61.09375 61.203125 
L 68.59375 62.296875 
Q 69.40625 59 70.046875 55.890625 
Q 70.703125 52.796875 71.40625 48.796875 
z
M 15.703125 59 
Q 16.796875 69.296875 17.203125 78.703125 
Q 20 77.90625 22.203125 77.546875 
Q 24.40625 77.203125 26.90625 77.296875 
Q 28.40625 77.40625 28.5 76.90625 
Q 28.59375 76.40625 27.203125 75 
Q 26.796875 74.703125 26.5 74.046875 
Q 26.203125 73.40625 25.796875 71.75 
Q 25.40625 70.09375 24.84375 67.09375 
Q 24.296875 64.09375 23.5 59 
Q 30.09375 59 33.4375 59.203125 
Q 36.796875 59.40625 38.59375 59.703125 
Q 38.09375 52.09375 37.546875 46.046875 
Q 37 40 36.25 35.046875 
Q 35.5 30.09375 34.453125 26.046875 
Q 33.40625 22 32.09375 18.296875 
Q 34.5 16.59375 36.703125 14.9375 
Q 38.90625 13.296875 41 11.59375 
Q 39.296875 9.796875 38.1875 8.25 
Q 37.09375 6.703125 36.09375 4.59375 
Q 32.90625 7.59375 28.90625 10.90625 
Q 26.296875 5.796875 22.34375 1.140625 
Q 18.40625 -3.5 12.5 -8.59375 
Q 11.296875 -6.703125 9.34375 -4.84375 
Q 7.40625 -3 4.796875 -1.40625 
Q 11.203125 2.09375 15.5 6.140625 
Q 19.796875 10.203125 22.703125 15.59375 
Q 19.59375 18 16.4375 20 
Q 13.296875 22 9.90625 23.90625 
Q 11.703125 31.296875 12.84375 38.34375 
Q 14 45.40625 14.796875 51.796875 
Q 12.203125 51.703125 10.546875 51.5 
Q 8.90625 51.296875 7.203125 51 
L 7.203125 59.703125 
Q 8.703125 59.40625 10.453125 59.25 
Q 12.203125 59.09375 15.703125 59 
z
M 22.40625 51.796875 
Q 21.59375 47 20.640625 40.84375 
Q 19.703125 34.703125 18.59375 26.796875 
Q 20.5 25.703125 22.25 24.640625 
Q 24 23.59375 25.59375 22.5 
Q 27.59375 28.203125 28.640625 35.296875 
Q 29.703125 42.40625 30.40625 51.796875 
z
M 45 35.296875 
Q 43.59375 35.203125 42.1875 35.09375 
Q 40.796875 35 39.40625 34.796875 
L 39.40625 43.296875 
Q 40.796875 43.09375 42.296875 43 
Q 43.796875 42.90625 45.296875 42.796875 
L 46.796875 75.203125 
Q 52 75 57.59375 74.84375 
Q 63.203125 74.703125 68.296875 74.703125 
Q 73.09375 74.703125 77.640625 74.796875 
Q 82.203125 74.90625 87.59375 75.296875 
L 87.09375 42.703125 
Q 91.40625 42.90625 95.09375 43.296875 
L 95.09375 34.796875 
Q 91.40625 35.203125 87 35.40625 
L 86.59375 11.90625 
Q 88.5 11.90625 90 12.046875 
Q 91.5 12.203125 93.296875 12.59375 
L 93.296875 4.296875 
Q 91.296875 4.59375 89.796875 4.6875 
Q 88.296875 4.796875 86.5 4.796875 
Q 86.296875 0.203125 85.9375 -2.546875 
Q 85.59375 -5.296875 84.1875 -6.84375 
Q 82.796875 -8.40625 79.9375 -9.203125 
Q 77.09375 -10 72 -10.59375 
Q 71.703125 -7.59375 70.59375 -5.34375 
Q 69.5 -3.09375 67.59375 -0.59375 
Q 71 -0.90625 73.140625 -0.90625 
Q 75.296875 -0.90625 76.5 -0.34375 
Q 77.703125 0.203125 78.140625 1.453125 
Q 78.59375 2.703125 78.59375 4.796875 
Q 72.703125 4.796875 68.140625 4.75 
Q 63.59375 4.703125 59.59375 4.640625 
Q 55.59375 4.59375 51.75 4.390625 
Q 47.90625 4.203125 43.59375 3.90625 
z
M 52.796875 35.5 
L 51.796875 11.90625 
L 78.90625 11.90625 
L 79.203125 35.5 
z
M 79.296875 42.59375 
L 79.703125 67.5 
L 54.203125 67.5 
L 53.09375 42.59375 
z
" id="STHeitiTC-Medium-22982"/>
     <path d="M 27.09375 27.203125 
L 14.5 27.203125 
L 14.5 40 
L 27.09375 40 
z
" id="STHeitiTC-Medium-183"/>
     <path d="M 31.703125 45.90625 
L 68.90625 45.90625 
L 68.90625 52.40625 
L 31.703125 52.40625 
z
M 77.203125 59.09375 
Q 76.59375 54.59375 76.640625 49.5 
Q 76.703125 44.40625 77.296875 39.203125 
Q 71.203125 39.59375 64.34375 39.6875 
Q 57.5 39.796875 50 39.796875 
Q 43 39.796875 36.09375 39.640625 
Q 29.203125 39.5 22.90625 39 
Q 23.296875 40.90625 23.5 43.34375 
Q 23.703125 45.796875 23.703125 48.390625 
Q 23.703125 51 23.546875 53.703125 
Q 23.40625 56.40625 23.09375 58.90625 
Q 26.09375 58.59375 29.09375 58.4375 
Q 32.09375 58.296875 35.34375 58.1875 
Q 38.59375 58.09375 42.25 58.046875 
Q 45.90625 58 50.09375 58 
Q 57.296875 58 64.25 58.296875 
Q 71.203125 58.59375 77.203125 59.09375 
z
M 38.59375 7.203125 
L 61.40625 7.203125 
L 61.40625 14.5 
L 38.59375 14.5 
z
M 69.5 21.5 
Q 69 16.703125 69 11.5 
Q 69 6.296875 69.59375 0.703125 
Q 67.296875 0.796875 65.25 0.890625 
Q 63.203125 1 61 1.046875 
Q 58.796875 1.09375 56.1875 1.09375 
Q 53.59375 1.09375 50.203125 1.09375 
Q 38.59375 1.09375 30.5 0.5 
Q 31 5.59375 31.046875 10.75 
Q 31.09375 15.90625 30.59375 21.296875 
Q 32.5 21 34.25 20.84375 
Q 36 20.703125 38.203125 20.640625 
Q 40.40625 20.59375 43.25 20.546875 
Q 46.09375 20.5 50.09375 20.5 
Q 53.296875 20.5 55.890625 20.546875 
Q 58.5 20.59375 60.75 20.6875 
Q 63 20.796875 65.09375 21 
Q 67.203125 21.203125 69.5 21.5 
z
M 56.09375 71.203125 
Q 70.09375 71.296875 78.84375 71.4375 
Q 87.59375 71.59375 91.796875 72 
L 91.796875 63.796875 
Q 87 64.296875 76.75 64.390625 
Q 66.5 64.5 50 64.40625 
Q 35.09375 64.296875 24.6875 64.09375 
Q 14.296875 63.90625 8.203125 63.40625 
L 8.203125 72 
Q 13.90625 71.59375 23.25 71.390625 
Q 32.59375 71.203125 46.5 71.203125 
Q 45.703125 73.796875 44.796875 76.046875 
Q 43.90625 78.296875 43 79.703125 
L 55.296875 81.09375 
Q 55.296875 79.40625 55.5 76.75 
Q 55.703125 74.09375 56.09375 71.203125 
z
M 69.90625 -10.703125 
Q 70.5 -8.703125 69.953125 -6.703125 
Q 69.40625 -4.703125 67.09375 -1.703125 
Q 71.203125 -2.09375 73.5 -2.046875 
Q 75.796875 -2 76.9375 -1.546875 
Q 78.09375 -1.09375 78.390625 -0.140625 
Q 78.703125 0.796875 78.703125 2.203125 
L 78.703125 27.296875 
L 21.59375 27.296875 
L 21.59375 -10 
L 12.59375 -10 
Q 12.90625 -7.796875 13.046875 -6 
Q 13.203125 -4.203125 13.296875 -2.59375 
Q 13.40625 -1 13.453125 0.59375 
Q 13.5 2.203125 13.5 4 
L 13.5 25 
Q 13.5 27.296875 13.296875 29.9375 
Q 13.09375 32.59375 12.703125 34.59375 
Q 18.703125 34.09375 28.046875 33.84375 
Q 37.40625 33.59375 50.5 33.59375 
Q 57.59375 33.59375 63.34375 33.640625 
Q 69.09375 33.703125 73.640625 33.84375 
Q 78.203125 34 81.75 34.203125 
Q 85.296875 34.40625 88.09375 34.703125 
Q 87.59375 32.90625 87.390625 30.15625 
Q 87.203125 27.40625 87.203125 25 
L 87.203125 1.296875 
Q 87.203125 -2 86.84375 -4.09375 
Q 86.5 -6.203125 84.796875 -7.5 
Q 83.09375 -8.796875 79.59375 -9.546875 
Q 76.09375 -10.296875 69.90625 -10.703125 
z
" id="STHeitiTC-Medium-39640"/>
     <path d="M 36.40625 30.90625 
Q 37.796875 30.40625 37.6875 29.59375 
Q 37.59375 28.796875 36.09375 28.296875 
Q 35.40625 28.09375 33.90625 26.390625 
Q 32.40625 24.703125 31.203125 22.703125 
Q 27.703125 16.90625 23.84375 11.59375 
Q 20 6.296875 15.5 0.90625 
Q 13.796875 2.5 11.4375 3.5 
Q 9.09375 4.5 6.09375 5.09375 
Q 9.203125 7.796875 12.546875 11.546875 
Q 15.90625 15.296875 18.90625 19.4375 
Q 21.90625 23.59375 24.15625 27.6875 
Q 26.40625 31.796875 27.40625 35.09375 
Q 28.296875 34.5 29.4375 33.84375 
Q 30.59375 33.203125 31.890625 32.59375 
Q 33.203125 32 34.34375 31.546875 
Q 35.5 31.09375 36.40625 30.90625 
z
M 84.296875 1.90625 
Q 79.796875 9.59375 74.296875 16.6875 
Q 68.796875 23.796875 63.203125 29 
L 70 34.203125 
Q 76 28.203125 81.953125 21.796875 
Q 87.90625 15.40625 93.90625 8.796875 
z
M 57.5 48.90625 
Q 56.703125 48.40625 56.203125 47.203125 
Q 55.703125 46 55.703125 44.5 
L 55.703125 -1.796875 
Q 55.703125 -4 55.203125 -5.453125 
Q 54.703125 -6.90625 52.890625 -7.953125 
Q 51.09375 -9 47.6875 -9.703125 
Q 44.296875 -10.40625 38.5 -11.09375 
Q 38.203125 -8.09375 37.453125 -5.796875 
Q 36.703125 -3.5 34.59375 -0.203125 
Q 38.59375 -1 41.09375 -1.203125 
Q 43.59375 -1.40625 44.9375 -1.09375 
Q 46.296875 -0.796875 46.75 0.09375 
Q 47.203125 1 47.203125 2.40625 
L 47.203125 35.59375 
Q 47.203125 40.703125 46.890625 44.640625 
Q 46.59375 48.59375 46.09375 51 
Q 48.09375 50.5 50.890625 50.34375 
Q 53.703125 50.203125 56.09375 50.40625 
Q 57.5 50.59375 58 50.046875 
Q 58.5 49.5 57.5 48.90625 
z
M 67.5 63.796875 
Q 76.796875 63.796875 82.1875 63.9375 
Q 87.59375 64.09375 90.59375 64.40625 
L 81.40625 43.40625 
L 71.796875 44.5 
L 77.40625 55.703125 
L 29.59375 55.703125 
Q 27 51.40625 24.25 47.40625 
Q 21.5 43.40625 18 38.703125 
Q 15.703125 41.59375 8.796875 42.796875 
Q 12.59375 46.40625 16.046875 50.84375 
Q 19.5 55.296875 22.5 60.1875 
Q 25.5 65.09375 27.890625 70.34375 
Q 30.296875 75.59375 32 80.90625 
Q 34.90625 79.703125 38.15625 78.59375 
Q 41.40625 77.5 43.203125 77.203125 
Q 44.90625 76.90625 44.90625 76.25 
Q 44.90625 75.59375 43.203125 75 
Q 42.296875 74.703125 41.390625 74.046875 
Q 40.5 73.40625 39.453125 72.09375 
Q 38.40625 70.796875 37.09375 68.796875 
Q 35.796875 66.796875 34.203125 63.796875 
z
" id="STHeitiTC-Medium-23572"/>
     <path d="M 55.40625 14.59375 
Q 60.796875 14.703125 64.640625 14.84375 
Q 68.5 15 71.59375 15.296875 
L 71.59375 8.203125 
Q 68.5 8.5 64.640625 8.703125 
Q 60.796875 8.90625 55.40625 8.90625 
L 55.40625 0.40625 
Q 66.09375 0.40625 73.890625 0.59375 
Q 81.703125 0.796875 87.59375 1.203125 
L 87.59375 -6.703125 
Q 81.296875 -6.296875 72.6875 -6.09375 
Q 64.09375 -5.90625 52 -5.90625 
Q 39.90625 -5.90625 31.296875 -6.09375 
Q 22.703125 -6.296875 16.40625 -6.703125 
L 16.40625 1.203125 
Q 22.296875 0.796875 30 0.59375 
Q 37.703125 0.40625 48.296875 0.40625 
L 48.296875 9 
Q 42.90625 8.90625 39 8.703125 
Q 35.09375 8.5 31.90625 8.203125 
L 31.90625 15.296875 
Q 35.09375 15 39 14.84375 
Q 42.90625 14.703125 48.296875 14.59375 
Q 48.296875 17.5 48.09375 20.203125 
Q 47.90625 22.90625 47.5 24.796875 
Q 49.703125 24.5 51.703125 24.34375 
Q 53.703125 24.203125 56.296875 24.203125 
Q 58.90625 24.203125 56.703125 22.59375 
Q 56.09375 22.09375 55.75 21.046875 
Q 55.40625 20 55.40625 19.09375 
z
M 36.09375 34.796875 
L 66.296875 34.796875 
L 66.296875 41.296875 
L 36.09375 41.296875 
z
M 66.296875 58.203125 
L 66.296875 64.296875 
L 36.09375 64.296875 
L 36.09375 58.203125 
z
M 36.09375 53.09375 
L 36.09375 46.40625 
L 66.296875 46.40625 
L 66.296875 53.09375 
z
M 41.703125 29 
Q 40 26.09375 37.046875 23 
Q 34.09375 19.90625 30.296875 16.75 
Q 26.5 13.59375 21.953125 10.59375 
Q 17.40625 7.59375 12.40625 4.90625 
Q 10.703125 9.90625 5.90625 11.59375 
Q 13.5 13.90625 20.296875 18.25 
Q 27.09375 22.59375 34.09375 28.90625 
Q 28.796875 28.90625 25 28.796875 
Q 21.203125 28.703125 18.296875 28.546875 
Q 15.40625 28.40625 13.203125 28.25 
Q 11 28.09375 8.90625 27.90625 
L 8.90625 35.703125 
Q 18.296875 34.90625 28.703125 34.796875 
L 28.703125 64.296875 
Q 24.5 64.203125 20.390625 64.046875 
Q 16.296875 63.90625 12.40625 63.5 
L 12.40625 71.5 
Q 20.203125 70.90625 28.59375 70.59375 
Q 28.5 73.5 28.296875 75.5 
Q 28.09375 77.5 27.59375 79.203125 
Q 29.90625 78.703125 32.09375 78.5 
Q 34.296875 78.296875 36.40625 78.40625 
Q 37.5 78.5 37.75 78 
Q 38 77.5 37.203125 76.796875 
Q 36.5 76.09375 36.296875 75.1875 
Q 36.09375 74.296875 36.09375 72.703125 
L 36.09375 70.59375 
L 66.203125 70.59375 
Q 66.203125 74.09375 66 76.5 
Q 65.796875 78.90625 65.5 80.296875 
Q 70.296875 79.40625 74.703125 79.40625 
Q 75.796875 79.40625 76.046875 78.90625 
Q 76.296875 78.40625 75.5 77.703125 
Q 74.296875 76.796875 73.890625 75.84375 
Q 73.5 74.90625 73.5 73.59375 
L 73.5 70.59375 
Q 82.703125 70.796875 91.09375 71.5 
L 91.09375 63.5 
Q 86.90625 63.90625 82.5 64.046875 
Q 78.09375 64.203125 73.5 64.296875 
L 73.5 34.796875 
Q 78.796875 34.90625 83.84375 35.15625 
Q 88.90625 35.40625 93.703125 35.703125 
L 93.703125 27.90625 
Q 91.796875 28.09375 89.796875 28.25 
Q 87.796875 28.40625 85.25 28.5 
Q 82.703125 28.59375 79.390625 28.6875 
Q 76.09375 28.796875 71.59375 28.90625 
Q 73.40625 26.40625 75.5 24.40625 
Q 77.59375 22.40625 80.25 20.75 
Q 82.90625 19.09375 86.25 17.890625 
Q 89.59375 16.703125 94 15.796875 
Q 89.703125 11.90625 88.90625 6.5 
Q 84.90625 8.59375 81 11.140625 
Q 77.09375 13.703125 73.75 16.546875 
Q 70.40625 19.40625 67.953125 22.5 
Q 65.5 25.59375 64.296875 29 
z
" id="STHeitiTC-Medium-22522"/>
    </defs>
    <g transform="translate(16.843234 94.064258)scale(0.1 -0.1)">
     <use xlink:href="#STHeitiTC-Medium-39532"/>
     <use x="99.999985" xlink:href="#STHeitiTC-Medium-20811"/>
     <use x="199.999969" xlink:href="#STHeitiTC-Medium-35199"/>
     <use x="299.999954" xlink:href="#STHeitiTC-Medium-22982"/>
     <use x="399.999939" xlink:href="#STHeitiTC-Medium-183"/>
     <use x="499.999924" xlink:href="#STHeitiTC-Medium-39640"/>
     <use x="599.999908" xlink:href="#STHeitiTC-Medium-23572"/>
     <use x="699.999893" xlink:href="#STHeitiTC-Medium-22522"/>
    </g>
   </g>
   <g id="text_6">
    <!-- 2.3% -->
    <defs>
     <path d="M 52.5 6 
L 1.40625 6 
L 29.90625 36.796875 
Q 37.09375 44.40625 40.09375 48.796875 
Q 43.09375 53.203125 43.09375 58.796875 
Q 43.09375 64.40625 38.75 68.59375 
Q 34.40625 72.796875 27.953125 72.796875 
Q 21.5 72.796875 17.203125 68.25 
Q 12.90625 63.703125 12.296875 55.296875 
L 4 55.296875 
Q 4.5 67.09375 11.5 74.046875 
Q 18.5 81 28.453125 81 
Q 38.40625 81 44.953125 74.546875 
Q 51.5 68.09375 51.5 58.796875 
Q 51.5 52 47.890625 46.09375 
Q 44.296875 40.203125 37 32.40625 
L 20.203125 14.296875 
L 52.5 14.296875 
z
" id="STHeitiTC-Medium-50"/>
     <path d="M 39.90625 47.203125 
Q 45.796875 44.296875 49.046875 39.1875 
Q 52.296875 34.09375 52.296875 28.09375 
Q 52.296875 18.296875 45.140625 11.25 
Q 38 4.203125 27.09375 4.203125 
Q 17.296875 4.203125 11.046875 9.84375 
Q 4.796875 15.5 2.59375 26.59375 
L 11.09375 26.59375 
Q 13 19.5 16.75 16.046875 
Q 20.5 12.59375 27.453125 12.59375 
Q 34.40625 12.59375 39.09375 16.9375 
Q 43.796875 21.296875 43.796875 27.890625 
Q 43.796875 34.5 38.4375 38.390625 
Q 33.09375 42.296875 22.703125 42.5 
L 22.703125 50.5 
Q 30.203125 50.5 34.796875 53.703125 
Q 39.40625 56.90625 39.40625 61.65625 
Q 39.40625 66.40625 35.84375 69.546875 
Q 32.296875 72.703125 27.25 72.703125 
Q 22.203125 72.703125 19.046875 69.84375 
Q 15.90625 67 13.703125 61.203125 
L 5 61.203125 
Q 7.203125 70.796875 13 75.890625 
Q 18.796875 81 27.296875 81 
Q 35.796875 81 42.046875 75.390625 
Q 48.296875 69.796875 48.296875 61.796875 
Q 48.296875 52.59375 39.90625 47.203125 
z
" id="STHeitiTC-Medium-51"/>
    </defs>
    <g transform="translate(145.142084 130.714028)scale(0.1 -0.1)">
     <use xlink:href="#STHeitiTC-Medium-50"/>
     <use x="55.399994" xlink:href="#STHeitiTC-Medium-46"/>
     <use x="83.099991" xlink:href="#STHeitiTC-Medium-51"/>
     <use x="138.499985" xlink:href="#STHeitiTC-Medium-37"/>
    </g>
   </g>
   <g id="text_7">
    <!-- 冯友兰 -->
    <defs>
     <path d="M 75.09375 8.296875 
Q 71.203125 8.59375 65.25 8.84375 
Q 59.296875 9.09375 51.796875 9.09375 
Q 44.296875 9.09375 38.9375 8.9375 
Q 33.59375 8.796875 29.40625 8.296875 
L 29.40625 16.90625 
Q 33.5 16.5 38.890625 16.34375 
Q 44.296875 16.203125 51.796875 16.203125 
Q 59.296875 16.203125 65.25 16.390625 
Q 71.203125 16.59375 75.09375 16.90625 
z
M 30.5 35.59375 
Q 29.90625 34.5 29.34375 33.34375 
Q 28.796875 32.203125 28.140625 30.75 
Q 27.5 29.296875 26.703125 27.390625 
Q 25.90625 25.5 24.90625 22.90625 
Q 22.703125 17.40625 21.34375 13.75 
Q 20 10.09375 19.09375 7.59375 
Q 18.203125 5.09375 17.640625 3.390625 
Q 17.09375 1.703125 16.703125 0.203125 
Q 14 2.5 11.59375 4.140625 
Q 9.203125 5.796875 6.703125 7.203125 
Q 7.796875 8.40625 8.75 9.65625 
Q 9.703125 10.90625 10.953125 13.046875 
Q 12.203125 15.203125 14 18.75 
Q 15.796875 22.296875 18.5 28.09375 
Q 19.90625 31 21 34 
Q 22.09375 37 22.703125 40.09375 
Q 24.09375 39 26.25 37.796875 
Q 28.40625 36.59375 30.5 35.59375 
z
M 19.5 49.296875 
Q 18.5 51.59375 17.203125 54.1875 
Q 15.90625 56.796875 14.5 59.296875 
Q 13.09375 61.796875 11.75 64.046875 
Q 10.40625 66.296875 9.203125 68 
L 16.90625 72.40625 
Q 18.09375 70.59375 19.546875 68.1875 
Q 21 65.796875 22.546875 63.25 
Q 24.09375 60.703125 25.546875 58.203125 
Q 27 55.703125 28.09375 53.703125 
z
M 79.40625 34.09375 
Q 83.40625 34.203125 87.046875 34.390625 
Q 90.703125 34.59375 93.296875 34.90625 
Q 92.90625 32.296875 92.59375 29.84375 
Q 92.296875 27.40625 92 24.046875 
Q 91.703125 20.703125 91.34375 16.046875 
Q 91 11.40625 90.5 4.40625 
Q 90.203125 0.09375 89.59375 -2.40625 
Q 89 -4.90625 87.140625 -6.40625 
Q 85.296875 -7.90625 81.59375 -8.75 
Q 77.90625 -9.59375 71.5 -10.59375 
Q 71 -8.5 70 -5.796875 
Q 69 -3.09375 67.59375 -0.5 
Q 72.296875 -1.09375 75.09375 -1 
Q 77.90625 -0.90625 79.453125 0.1875 
Q 81 1.296875 81.59375 3.5 
Q 82.203125 5.703125 82.59375 9.296875 
Q 82.90625 12.296875 83.15625 16.890625 
Q 83.40625 21.5 83.59375 27.203125 
Q 72 27.203125 64.5 27.140625 
Q 57 27.09375 52.296875 26.9375 
Q 47.59375 26.796875 45.09375 26.640625 
Q 42.59375 26.5 41.09375 26.40625 
Q 41.40625 26.796875 41.59375 29.890625 
Q 41.796875 33 41.9375 37.75 
Q 42.09375 42.5 42.140625 48.25 
Q 42.203125 54 42.09375 59.796875 
Q 43 59.59375 44.546875 59.34375 
Q 46.09375 59.09375 47.640625 58.890625 
Q 49.203125 58.703125 50.59375 58.59375 
Q 52 58.5 52.59375 58.5 
Q 53.703125 58.59375 53.84375 58.046875 
Q 54 57.5 53 56.5 
Q 52.59375 56.09375 52.1875 54.75 
Q 51.796875 53.40625 51.390625 50.75 
Q 51 48.09375 50.59375 44 
Q 50.203125 39.90625 49.796875 34.09375 
L 71.40625 34.09375 
L 74.5 67.296875 
L 57.5 67.296875 
Q 55.40625 67.296875 52.34375 67.25 
Q 49.296875 67.203125 46 67.09375 
Q 42.703125 67 39.453125 66.84375 
Q 36.203125 66.703125 33.703125 66.5 
L 33.703125 75.40625 
Q 36.203125 75.203125 39.453125 75 
Q 42.703125 74.796875 46.140625 74.640625 
Q 49.59375 74.5 53.046875 74.453125 
Q 56.5 74.40625 59.40625 74.40625 
Q 62.296875 74.40625 65.546875 74.453125 
Q 68.796875 74.5 72.046875 74.640625 
Q 75.296875 74.796875 78.34375 75 
Q 81.40625 75.203125 84 75.40625 
z
" id="STHeitiTC-Medium-20911"/>
     <path d="M 38.40625 36.40625 
Q 33 25.203125 26.796875 16.390625 
Q 20.59375 7.59375 14.59375 2.203125 
Q 12.703125 4.203125 10.25 5.34375 
Q 7.796875 6.5 5.703125 6.90625 
Q 18.59375 18.09375 27 31.09375 
Q 35.40625 44.09375 38.90625 58.703125 
Q 30.5 58.59375 23.5 58.390625 
Q 16.5 58.203125 11.09375 57.796875 
L 11.09375 67.203125 
Q 16.796875 66.796875 24.140625 66.59375 
Q 31.5 66.40625 40.296875 66.296875 
Q 41.09375 71.5 41.390625 75.296875 
Q 41.703125 79.09375 41.40625 82 
Q 44.296875 81.5 47.296875 81.296875 
Q 50.296875 81.09375 52.703125 81.203125 
Q 53.5 81.203125 53.75 80.546875 
Q 54 79.90625 53 79.09375 
Q 52.40625 78.59375 51.953125 77.390625 
Q 51.5 76.203125 51.09375 74 
Q 50.703125 72 50.296875 70.25 
Q 49.90625 68.5 49.09375 66.203125 
Q 59 66.203125 65.796875 66.25 
Q 72.59375 66.296875 77.640625 66.390625 
Q 82.703125 66.5 86.546875 66.703125 
Q 90.40625 66.90625 94.296875 67.203125 
L 94.296875 57.796875 
Q 91.59375 58 89.09375 58.140625 
Q 86.59375 58.296875 83.890625 58.390625 
Q 81.203125 58.5 77.953125 58.59375 
Q 74.703125 58.703125 70.390625 58.75 
Q 66.09375 58.796875 60.546875 58.796875 
Q 55 58.796875 47.59375 58.796875 
Q 46.5 55.296875 45.390625 52.546875 
Q 44.296875 49.796875 43 46.90625 
L 72.40625 46.90625 
Q 77.203125 46.90625 80.5 47.046875 
Q 83.796875 47.203125 85.796875 47.40625 
Q 83.796875 37.703125 78.9375 28.546875 
Q 74.09375 19.40625 66.09375 10.203125 
Q 73 5.796875 79.546875 3.5 
Q 86.09375 1.203125 93.90625 0.5 
Q 92 -1.703125 90.75 -4.390625 
Q 89.5 -7.09375 88.703125 -10.40625 
Q 80.296875 -7.90625 72.796875 -4.046875 
Q 65.296875 -0.203125 59.703125 4.203125 
Q 57 2.09375 53.84375 0.046875 
Q 50.703125 -2 46.75 -3.890625 
Q 42.796875 -5.796875 37.890625 -7.546875 
Q 33 -9.296875 26.90625 -10.90625 
Q 26.09375 -9 24.546875 -6.453125 
Q 23 -3.90625 21.59375 -2.5 
Q 26.296875 -1.5 30.546875 -0.34375 
Q 34.796875 0.796875 38.796875 2.25 
Q 42.796875 3.703125 46.546875 5.59375 
Q 50.296875 7.5 54.09375 10 
Q 49.296875 15.296875 45.140625 22.09375 
Q 41 28.90625 38.40625 36.40625 
z
M 45.5 39.59375 
Q 47.59375 32.796875 51.296875 26.640625 
Q 55 20.5 59.90625 15.40625 
Q 64.703125 20.59375 68.34375 26.390625 
Q 72 32.203125 74.5 39.59375 
z
" id="STHeitiTC-Medium-21451"/>
     <path d="M 92.5 -4.09375 
Q 84.796875 -3.703125 74.75 -3.5 
Q 64.703125 -3.296875 50.09375 -3.296875 
Q 42.796875 -3.296875 36.6875 -3.34375 
Q 30.59375 -3.40625 25.4375 -3.5 
Q 20.296875 -3.59375 15.84375 -3.75 
Q 11.40625 -3.90625 7.5 -4.09375 
L 7.5 5.296875 
Q 11.5 5 15.890625 4.796875 
Q 20.296875 4.59375 25.5 4.5 
Q 30.703125 4.40625 36.75 4.34375 
Q 42.796875 4.296875 50.09375 4.296875 
Q 64.703125 4.296875 74.75 4.5 
Q 84.796875 4.703125 92.5 5.296875 
z
M 83.09375 23.59375 
Q 77.203125 23.796875 69.453125 23.890625 
Q 61.703125 24 50.296875 24 
Q 39 24 31.140625 23.796875 
Q 23.296875 23.59375 17.296875 23.203125 
L 17.296875 32.203125 
Q 23.40625 31.703125 31.203125 31.5 
Q 39 31.296875 50.296875 31.296875 
Q 61.59375 31.296875 69.390625 31.5 
Q 77.203125 31.703125 83.09375 32.203125 
z
M 56.203125 56 
Q 58.09375 58.59375 59.890625 61.796875 
Q 61.703125 65 63.203125 68.140625 
Q 64.703125 71.296875 65.75 74.140625 
Q 66.796875 77 67.09375 78.796875 
Q 68.296875 78.09375 70.046875 77.390625 
Q 71.796875 76.703125 73.59375 76.09375 
Q 75.40625 75.5 77 75 
Q 78.59375 74.5 79.5 74.40625 
Q 80.59375 74.203125 80.640625 73.546875 
Q 80.703125 72.90625 79.296875 72.40625 
Q 78.59375 72.203125 76.84375 70.75 
Q 75.09375 69.296875 73.703125 67.59375 
Q 71.09375 64.09375 69.09375 61.5 
Q 67.09375 58.90625 64.703125 56 
Q 67.90625 56 71.703125 56.09375 
Q 75.5 56.203125 79.09375 56.296875 
Q 82.703125 56.40625 85.59375 56.546875 
Q 88.5 56.703125 89.796875 56.90625 
L 89.796875 47.90625 
Q 86.703125 48.203125 76.75 48.453125 
Q 66.796875 48.703125 51 48.703125 
Q 34.5 48.703125 25.296875 48.5 
Q 16.09375 48.296875 12.203125 47.90625 
L 12.203125 56.90625 
Q 16 56.40625 22.453125 56.203125 
Q 28.90625 56 37.703125 56 
z
M 35 57.90625 
Q 33 61.703125 30.34375 65.25 
Q 27.703125 68.796875 25.203125 71.40625 
L 32.796875 76.296875 
Q 35.40625 73.59375 38.40625 69.75 
Q 41.40625 65.90625 43.90625 62.203125 
z
" id="STHeitiTC-Medium-20848"/>
    </defs>
    <g transform="translate(68.577698 120.5681)scale(0.1 -0.1)">
     <use xlink:href="#STHeitiTC-Medium-20911"/>
     <use x="99.999985" xlink:href="#STHeitiTC-Medium-21451"/>
     <use x="199.999969" xlink:href="#STHeitiTC-Medium-20848"/>
    </g>
   </g>
   <g id="text_8">
    <!-- 2.3% -->
    <g transform="translate(151.460849 148.502466)scale(0.1 -0.1)">
     <use xlink:href="#STHeitiTC-Medium-50"/>
     <use x="55.399994" xlink:href="#STHeitiTC-Medium-46"/>
     <use x="83.099991" xlink:href="#STHeitiTC-Medium-51"/>
     <use x="138.499985" xlink:href="#STHeitiTC-Medium-37"/>
    </g>
   </g>
   <g id="text_9">
    <!-- 鲁迅 -->
    <defs>
     <path d="M 46.703125 45.703125 
L 25.5 45.703125 
L 25.5 40.40625 
L 46.703125 40.40625 
z
M 75.296875 45.703125 
L 53.5 45.703125 
L 53.5 40.40625 
L 75.296875 40.40625 
z
M 25.5 55.296875 
L 25.5 50.703125 
L 46.703125 50.703125 
L 46.703125 55.296875 
z
M 75.296875 50.703125 
L 75.296875 55.296875 
L 53.5 55.296875 
L 53.5 50.703125 
z
M 72.40625 15.09375 
L 27.296875 15.09375 
L 27.296875 10.5 
L 72.40625 10.5 
z
M 72.40625 5.09375 
L 27.296875 5.09375 
L 27.296875 0.203125 
L 72.40625 0.203125 
z
M 27.296875 -10.296875 
L 19.40625 -10.296875 
Q 20.296875 -3.40625 20.296875 2 
L 20.296875 13.40625 
Q 20.296875 16 20.1875 17.59375 
Q 20.09375 19.203125 19.703125 20.90625 
Q 21.796875 20.796875 23.9375 20.6875 
Q 26.09375 20.59375 29.390625 20.546875 
Q 32.703125 20.5 37.59375 20.5 
Q 42.5 20.5 50 20.5 
Q 57.5 20.5 62.390625 20.5 
Q 67.296875 20.5 70.59375 20.546875 
Q 73.90625 20.59375 76.046875 20.6875 
Q 78.203125 20.796875 80.09375 20.90625 
Q 79.703125 19.59375 79.546875 17.9375 
Q 79.40625 16.296875 79.40625 13.40625 
L 79.40625 2.90625 
Q 79.40625 -0.5 79.546875 -3.796875 
Q 79.703125 -7.09375 80 -9.59375 
L 72.40625 -9.59375 
L 72.40625 -5.203125 
L 27.296875 -5.203125 
z
M 58.796875 72.5 
Q 60.203125 72.5 62.203125 72.546875 
Q 64.203125 72.59375 66.25 72.640625 
Q 68.296875 72.703125 70.1875 72.796875 
Q 72.09375 72.90625 73.296875 73 
L 63.203125 60.703125 
Q 68.40625 60.703125 72.84375 60.84375 
Q 77.296875 61 82.703125 61.296875 
Q 82.5 58.703125 82.453125 55.25 
Q 82.40625 51.796875 82.40625 48.09375 
Q 82.40625 44.40625 82.453125 40.953125 
Q 82.5 37.5 82.703125 34.90625 
Q 79.5 35 76.140625 35.046875 
Q 72.796875 35.09375 68.75 35.140625 
Q 64.703125 35.203125 59.84375 35.203125 
Q 55 35.203125 48.90625 35.203125 
Q 42.90625 35.203125 38.453125 35.203125 
Q 34 35.203125 30.5 35.140625 
Q 27 35.09375 24.046875 35.046875 
Q 21.09375 35 18.09375 34.90625 
Q 18.296875 36.796875 18.390625 39.046875 
Q 18.5 41.296875 18.5 44 
L 18.5 54.703125 
Q 16.5 53.296875 14.640625 52.046875 
Q 12.796875 50.796875 11.203125 49.90625 
Q 10.203125 51.296875 8.796875 52.6875 
Q 7.40625 54.09375 6.09375 54.90625 
Q 11.5 57.40625 15.75 60.25 
Q 20 63.09375 23.453125 66.25 
Q 26.90625 69.40625 29.796875 73 
Q 32.703125 76.59375 35.40625 80.796875 
Q 37.5 79.296875 38.84375 78.59375 
Q 40.203125 77.90625 41.796875 77.296875 
Q 43.796875 76.5 41.90625 75.5 
Q 41.5 75.296875 40.890625 74.6875 
Q 40.296875 74.09375 39 72.5 
z
M 60.703125 66.90625 
L 33.796875 66.90625 
Q 32.296875 65.5 30.4375 63.953125 
Q 28.59375 62.40625 26.5 60.703125 
L 55.09375 60.703125 
z
M 50.296875 25.203125 
Q 42.59375 25.203125 36.34375 25.140625 
Q 30.09375 25.09375 24.84375 25 
Q 19.59375 24.90625 15.09375 24.75 
Q 10.59375 24.59375 6.5 24.40625 
L 6.5 31.40625 
Q 10.59375 31.203125 15.09375 31.046875 
Q 19.59375 30.90625 24.84375 30.796875 
Q 30.09375 30.703125 36.34375 30.640625 
Q 42.59375 30.59375 50.296875 30.59375 
Q 57.90625 30.59375 64.15625 30.640625 
Q 70.40625 30.703125 75.59375 30.75 
Q 80.796875 30.796875 85.25 30.9375 
Q 89.703125 31.09375 93.796875 31.40625 
L 93.796875 24.40625 
Q 89.703125 24.703125 85.25 24.84375 
Q 80.796875 25 75.59375 25.046875 
Q 70.40625 25.09375 64.15625 25.140625 
Q 57.90625 25.203125 50.296875 25.203125 
z
" id="STHeitiTC-Medium-40065"/>
     <path d="M 20 2.703125 
Q 18.296875 -0.203125 16.140625 -2.84375 
Q 14 -5.5 11.40625 -8.40625 
Q 10.203125 -7 8.703125 -5.84375 
Q 7.203125 -4.703125 4.5 -3.296875 
Q 7.796875 -0.5 10.4375 2.5 
Q 13.09375 5.5 15.09375 8.890625 
Q 17.09375 12.296875 18.5 16.34375 
Q 19.90625 20.40625 20.90625 25.40625 
L 17.90625 25.40625 
Q 15.703125 25.40625 13.59375 25.046875 
Q 11.5 24.703125 9.5 23.59375 
Q 9.09375 26.796875 8.546875 28.59375 
Q 8 30.40625 6.90625 32.203125 
Q 9.09375 32.703125 10.390625 33.75 
Q 11.703125 34.796875 12.90625 36.90625 
L 18.796875 47.296875 
L 13.796875 47.296875 
Q 12.203125 47.296875 9.84375 47.09375 
Q 7.5 46.90625 6 46.59375 
L 6 54.5 
Q 7.5 54.40625 8.640625 54.296875 
Q 9.796875 54.203125 11.046875 54.140625 
Q 12.296875 54.09375 13.9375 54.09375 
Q 15.59375 54.09375 18 54.09375 
Q 20.90625 54.09375 22.953125 54.140625 
Q 25 54.203125 26.5 54.25 
Q 28 54.296875 29.09375 54.390625 
Q 30.203125 54.5 31.296875 54.703125 
L 17.796875 31.59375 
L 23.203125 31.59375 
Q 24.796875 31.59375 26.6875 31.6875 
Q 28.59375 31.796875 30 32 
Q 28.09375 24.09375 26.546875 18.75 
Q 25 13.40625 23.5 9.703125 
Q 27.5 6.90625 33.09375 5 
Q 38.703125 3.09375 47.046875 2.25 
Q 55.40625 1.40625 67 1.65625 
Q 78.59375 1.90625 94.703125 3.59375 
Q 92.703125 0.703125 91.84375 -1.4375 
Q 91 -3.59375 90.703125 -6.59375 
Q 74.203125 -7.203125 62.59375 -6.953125 
Q 51 -6.703125 42.890625 -5.5 
Q 34.796875 -4.296875 29.390625 -2.25 
Q 24 -0.203125 20 2.703125 
z
M 20.5 59.203125 
Q 15.796875 67.796875 10.59375 74.09375 
L 18 78.59375 
Q 20.40625 75.40625 23.046875 71.453125 
Q 25.703125 67.5 28.296875 63.5 
z
M 54.59375 21.09375 
Q 54.59375 16.90625 54.75 13.65625 
Q 54.90625 10.40625 55.296875 6.796875 
L 45.90625 6.796875 
Q 46.40625 10.40625 46.546875 13.703125 
Q 46.703125 17 46.703125 21.203125 
L 46.703125 39 
Q 41.90625 39 37.90625 38.75 
Q 33.90625 38.5 31.203125 38.09375 
L 31.203125 46.703125 
Q 33.796875 46.296875 37.796875 46.09375 
Q 41.796875 45.90625 46.703125 45.90625 
L 46.703125 68.09375 
Q 43.59375 68.09375 41.390625 68.046875 
Q 39.203125 68 37.59375 67.890625 
Q 36 67.796875 34.84375 67.640625 
Q 33.703125 67.5 32.796875 67.296875 
L 32.796875 76.40625 
Q 34.203125 76.09375 36.140625 75.890625 
Q 38.09375 75.703125 40.9375 75.546875 
Q 43.796875 75.40625 47.6875 75.296875 
Q 51.59375 75.203125 56.796875 75.203125 
Q 62.296875 75.203125 66.046875 75.296875 
Q 69.796875 75.40625 72.390625 75.546875 
Q 75 75.703125 76.640625 75.890625 
Q 78.296875 76.09375 79.703125 76.40625 
Q 79.40625 74.40625 79.15625 71.046875 
Q 78.90625 67.703125 78.703125 64.203125 
Q 78.203125 54.40625 78.09375 47.5 
Q 78 40.59375 78.296875 35.9375 
Q 78.59375 31.296875 79.140625 28.390625 
Q 79.703125 25.5 80.59375 23.703125 
Q 83.59375 17.40625 85.59375 17.953125 
Q 87.59375 18.5 88.40625 26 
Q 90.296875 23.90625 91.84375 22.84375 
Q 93.40625 21.796875 95.5 21.09375 
Q 94.09375 16.59375 93.1875 14 
Q 92.296875 11.40625 91.4375 10.046875 
Q 90.59375 8.703125 89.6875 8.296875 
Q 88.796875 7.90625 87.5 7.90625 
Q 85.5 7.90625 83.25 9.09375 
Q 81 10.296875 78.890625 12.390625 
Q 76.796875 14.5 75 17.390625 
Q 73.203125 20.296875 72.203125 23.796875 
Q 71.203125 27.203125 70.703125 32.140625 
Q 70.203125 37.09375 70.046875 43 
Q 69.90625 48.90625 70.09375 55.34375 
Q 70.296875 61.796875 70.90625 68.09375 
L 54.59375 68.09375 
L 54.59375 45.90625 
Q 57.59375 45.90625 60.75 46.09375 
Q 63.90625 46.296875 66.5 46.703125 
L 66.5 38.09375 
Q 64.5 38.5 61.046875 38.75 
Q 57.59375 39 54.59375 39 
z
" id="STHeitiTC-Medium-36805"/>
    </defs>
    <g transform="translate(71.301706 140.974336)scale(0.1 -0.1)">
     <use xlink:href="#STHeitiTC-Medium-40065"/>
     <use x="99.999985" xlink:href="#STHeitiTC-Medium-36805"/>
    </g>
   </g>
   <g id="text_10">
    <!-- 2.3% -->
    <g transform="translate(147.492126 159.633141)scale(0.1 -0.1)">
     <use xlink:href="#STHeitiTC-Medium-50"/>
     <use x="55.399994" xlink:href="#STHeitiTC-Medium-46"/>
     <use x="83.099991" xlink:href="#STHeitiTC-Medium-51"/>
     <use x="138.499985" xlink:href="#STHeitiTC-Medium-37"/>
    </g>
   </g>
   <g id="text_11">
    <!-- 赫尔曼·黑塞 -->
    <defs>
     <path d="M 87.09375 9.703125 
Q 86.703125 12 86 14.84375 
Q 85.296875 17.703125 84.390625 20.59375 
Q 83.5 23.5 82.5 26.203125 
Q 81.5 28.90625 80.5 31 
L 85.796875 33.296875 
Q 86.90625 31.296875 88.203125 28.75 
Q 89.5 26.203125 90.796875 23.453125 
Q 92.09375 20.703125 93.296875 18.046875 
Q 94.5 15.40625 95.40625 13.296875 
z
M 57.5 31.296875 
Q 57 30.90625 56.5 29.546875 
Q 56 28.203125 55.40625 25.5 
Q 55.09375 24 54.640625 22.09375 
Q 54.203125 20.203125 53.640625 18.203125 
Q 53.09375 16.203125 52.546875 14.390625 
Q 52 12.59375 51.59375 11.40625 
Q 50 11.796875 48.203125 12.046875 
Q 46.40625 12.296875 44.90625 12.5 
Q 46.203125 15.09375 47.296875 18.046875 
Q 48.40625 21 49.15625 23.953125 
Q 49.90625 26.90625 50.296875 29.59375 
Q 50.703125 32.296875 50.703125 34.5 
Q 52.203125 33.703125 54 33.34375 
Q 55.796875 33 57 32.90625 
Q 58.90625 32.59375 57.5 31.296875 
z
M 15 30.59375 
Q 14.59375 30.203125 14.34375 28.953125 
Q 14.09375 27.703125 13.59375 24.90625 
Q 13.09375 22 12.640625 19.59375 
Q 12.203125 17.203125 11.40625 14.90625 
Q 8 15.5 4.5 15.40625 
Q 6.5 19.90625 7.34375 24.65625 
Q 8.203125 29.40625 8.40625 33.203125 
Q 9.90625 32.703125 11.59375 32.453125 
Q 13.296875 32.203125 14.59375 32.203125 
Q 16.296875 32.203125 15 30.59375 
z
M 43.203125 21.296875 
Q 42.40625 23.40625 41.34375 25.453125 
Q 40.296875 27.5 38.90625 29.90625 
L 43.09375 33.09375 
Q 44.703125 31.09375 46.09375 28.890625 
Q 47.5 26.703125 48.59375 24.703125 
z
M 74 49.5 
Q 80.203125 49.59375 84.5 49.796875 
Q 88.796875 50 92.40625 50.40625 
L 92.40625 42.296875 
Q 89 42.796875 85.453125 42.9375 
Q 81.90625 43.09375 80.09375 43.09375 
L 80.09375 3.59375 
Q 80.09375 -0.703125 79.796875 -3.09375 
Q 79.5 -5.5 78.296875 -6.796875 
Q 77.09375 -8.09375 74.59375 -8.640625 
Q 72.09375 -9.203125 67.796875 -9.796875 
Q 67.59375 -7.5 66.890625 -5.546875 
Q 66.203125 -3.59375 64.796875 -1.40625 
Q 67.59375 -1.59375 69.25 -1.5 
Q 70.90625 -1.40625 71.796875 -0.90625 
Q 72.703125 -0.40625 72.953125 0.390625 
Q 73.203125 1.203125 73.203125 2.296875 
L 73.203125 43.09375 
L 66.59375 43.09375 
Q 66.796875 31.703125 66.140625 23.453125 
Q 65.5 15.203125 63.75 8.953125 
Q 62 2.703125 59.203125 -2.09375 
Q 56.40625 -6.90625 52.296875 -11.40625 
Q 50.59375 -10 48.59375 -9 
Q 46.59375 -8 44.59375 -7.203125 
Q 49.203125 -3.703125 52.296875 0.4375 
Q 55.40625 4.59375 57.25 10.34375 
Q 59.09375 16.09375 59.6875 24.046875 
Q 60.296875 32 60 43 
Q 57.5 42.90625 54.953125 42.75 
Q 52.40625 42.59375 50.09375 42.296875 
L 50.09375 50.40625 
Q 53.40625 50 57.453125 49.796875 
Q 61.5 49.59375 67.203125 49.5 
L 67.203125 60.59375 
Q 62.09375 60.5 58.296875 60.296875 
Q 54.5 60.09375 51.59375 59.796875 
L 51.59375 67.796875 
Q 54.703125 67.5 58.390625 67.296875 
Q 62.09375 67.09375 67.203125 67 
Q 67.203125 72.796875 66.953125 76.09375 
Q 66.703125 79.40625 66.40625 81.09375 
Q 68.5 80.59375 70.953125 80.390625 
Q 73.40625 80.203125 75.796875 80.203125 
Q 77.90625 80.203125 76.40625 78.90625 
Q 75.296875 78 74.640625 75.703125 
Q 74 73.40625 74 71.40625 
L 74 67 
Q 79.5 67.09375 83.34375 67.296875 
Q 87.203125 67.5 90.40625 67.796875 
L 90.40625 59.796875 
Q 87.203125 60.09375 83.34375 60.296875 
Q 79.5 60.5 74 60.59375 
z
M 32 49.296875 
Q 36.296875 49.40625 39.4375 49.546875 
Q 42.59375 49.703125 45.40625 50 
L 45.40625 42 
Q 43.5 42.203125 41.59375 42.34375 
Q 39.703125 42.5 38 42.59375 
L 38 4.296875 
Q 38 0.703125 37.703125 -1.390625 
Q 37.40625 -3.5 36.203125 -4.703125 
Q 35 -5.90625 32.59375 -6.546875 
Q 30.203125 -7.203125 25.90625 -7.796875 
Q 25.59375 -5.703125 24.9375 -3.59375 
Q 24.296875 -1.5 23 0.796875 
Q 26 0.59375 27.703125 0.640625 
Q 29.40625 0.703125 30.25 1.046875 
Q 31.09375 1.40625 31.34375 2.203125 
Q 31.59375 3 31.59375 4.40625 
L 31.59375 42.796875 
L 25.796875 42.796875 
Q 25.59375 32 24.9375 24.5 
Q 24.296875 17 22.84375 11.296875 
Q 21.40625 5.59375 19.046875 0.890625 
Q 16.703125 -3.796875 13.09375 -9 
Q 11.296875 -7.90625 9.59375 -7.203125 
Q 7.90625 -6.5 5.90625 -5.796875 
Q 9.40625 -2.40625 11.90625 1.59375 
Q 14.40625 5.59375 16.046875 11.140625 
Q 17.703125 16.703125 18.5 24.34375 
Q 19.296875 32 19.40625 42.796875 
Q 16.09375 42.796875 12.34375 42.640625 
Q 8.59375 42.5 5.09375 42 
L 5.09375 50 
Q 8.703125 49.59375 13.640625 49.390625 
Q 18.59375 49.203125 25.40625 49.203125 
L 25.40625 60.5 
Q 20.296875 60.40625 16.75 60.25 
Q 13.203125 60.09375 10.40625 59.703125 
L 10.40625 67.703125 
Q 13.296875 67.296875 16.84375 67.140625 
Q 20.40625 67 25.40625 66.90625 
Q 25.40625 71.59375 25.203125 74.75 
Q 25 77.90625 24.5 80.296875 
Q 26.703125 80 29.046875 79.84375 
Q 31.40625 79.703125 33.703125 79.90625 
Q 34.703125 80 34.890625 79.59375 
Q 35.09375 79.203125 34.296875 78.59375 
Q 33.90625 78.203125 33.5 77.34375 
Q 33.09375 76.5 32.75 75.453125 
Q 32.40625 74.40625 32.203125 73.25 
Q 32 72.09375 32 71.09375 
L 32 66.90625 
Q 36 67 38.953125 67.203125 
Q 41.90625 67.40625 44.40625 67.703125 
L 44.40625 59.703125 
Q 41.90625 60 38.953125 60.203125 
Q 36 60.40625 32 60.5 
z
" id="STHeitiTC-Medium-36203"/>
     <path d="M 27.5 65 
L 72.296875 65 
L 72.296875 70.5 
L 27.5 70.5 
z
M 50 75.703125 
Q 55.5 75.703125 59.84375 75.75 
Q 64.203125 75.796875 67.75 75.84375 
Q 71.296875 75.90625 74.296875 76 
Q 77.296875 76.09375 80.203125 76.296875 
Q 79.90625 73.796875 79.75 69.9375 
Q 79.59375 66.09375 79.59375 62.5 
Q 79.59375 54.90625 80.203125 48.59375 
Q 77.40625 48.796875 74.34375 48.890625 
Q 71.296875 49 67.6875 49.09375 
Q 64.09375 49.203125 59.75 49.203125 
Q 55.40625 49.203125 50 49.203125 
Q 44.59375 49.203125 40.1875 49.140625 
Q 35.796875 49.09375 32.140625 49 
Q 28.5 48.90625 25.453125 48.796875 
Q 22.40625 48.703125 19.59375 48.59375 
Q 20 51.40625 20.203125 55.046875 
Q 20.40625 58.703125 20.40625 62.5 
Q 20.40625 66.296875 20.203125 69.9375 
Q 20 73.59375 19.59375 76.296875 
Q 22.40625 76.09375 25.5 76 
Q 28.59375 75.90625 32.25 75.796875 
Q 35.90625 75.703125 40.25 75.703125 
Q 44.59375 75.703125 50 75.703125 
z
M 41.703125 38.90625 
L 41.703125 30 
L 57.59375 30 
L 57.59375 38.90625 
z
M 49.5 44.09375 
Q 60.59375 44.09375 69.75 44.296875 
Q 78.90625 44.5 88 45 
Q 87.703125 43.09375 87.59375 40.25 
Q 87.5 37.40625 87.5 34.40625 
Q 87.5 31.40625 87.59375 28.59375 
Q 87.703125 25.796875 88 23.90625 
Q 79.09375 24.296875 69.84375 24.546875 
Q 60.59375 24.796875 49.5 24.796875 
Q 41.90625 24.796875 36.59375 24.75 
Q 31.296875 24.703125 27.09375 24.59375 
Q 22.90625 24.5 19.15625 24.34375 
Q 15.40625 24.203125 11.09375 23.90625 
Q 11.40625 25.90625 11.5 28.703125 
Q 11.59375 31.5 11.59375 34.5 
Q 11.59375 37.5 11.5 40.25 
Q 11.40625 43 11.09375 45 
Q 15.40625 44.703125 19.296875 44.546875 
Q 23.203125 44.40625 27.546875 44.296875 
Q 31.90625 44.203125 37.15625 44.140625 
Q 42.40625 44.09375 49.5 44.09375 
z
M 18.90625 38.90625 
L 18.90625 30 
L 34.59375 30 
L 34.59375 38.90625 
z
M 27.5 54.09375 
L 72.296875 54.09375 
L 72.296875 59.796875 
L 27.5 59.796875 
z
M 64.703125 38.90625 
L 64.703125 30 
L 80.09375 30 
L 80.09375 38.90625 
z
M 24.703125 14.09375 
Q 21.796875 14 19.4375 13.890625 
Q 17.09375 13.796875 15.09375 13.59375 
L 15.09375 20.90625 
Q 19.703125 20.5 27.546875 20.34375 
Q 35.40625 20.203125 48.09375 20.203125 
Q 60.59375 20.203125 68.34375 20.34375 
Q 76.09375 20.5 80.796875 20.90625 
Q 77.09375 15.5 70.59375 10.25 
Q 64.09375 5 55.296875 0.796875 
Q 58.59375 0 62.84375 -0.546875 
Q 67.09375 -1.09375 71.890625 -1.390625 
Q 76.703125 -1.703125 81.890625 -1.796875 
Q 87.09375 -1.90625 92.296875 -1.59375 
Q 90.59375 -3.703125 89.84375 -5.953125 
Q 89.09375 -8.203125 89.203125 -10.203125 
Q 81.203125 -9.40625 74.890625 -8.546875 
Q 68.59375 -7.703125 63.59375 -6.796875 
Q 58.59375 -5.90625 54.6875 -4.796875 
Q 50.796875 -3.703125 47.59375 -2.40625 
Q 43.703125 -3.90625 39.296875 -5.15625 
Q 34.90625 -6.40625 30.296875 -7.453125 
Q 25.703125 -8.5 21.09375 -9.34375 
Q 16.5 -10.203125 12.296875 -10.703125 
Q 11.703125 -8.90625 10.59375 -7.296875 
Q 9.5 -5.703125 7.59375 -3.703125 
Q 15.796875 -3.5 23.890625 -2 
Q 32 -0.5 39.5 1.5 
Q 38 2.40625 36.046875 3.75 
Q 34.09375 5.09375 32.046875 6.75 
Q 30 8.40625 28.09375 10.25 
Q 26.203125 12.09375 24.703125 14.09375 
z
M 33 14.5 
Q 35.90625 11.296875 39.34375 8.640625 
Q 42.796875 6 47.203125 3.796875 
Q 49.796875 4.796875 52.546875 6.09375 
Q 55.296875 7.40625 57.890625 8.84375 
Q 60.5 10.296875 62.640625 11.75 
Q 64.796875 13.203125 66.203125 14.5 
z
" id="STHeitiTC-Medium-26364"/>
     <path d="M 32.90625 50.703125 
Q 32.40625 54.09375 31.75 56.59375 
Q 31.09375 59.09375 29.90625 61.703125 
L 37.703125 63.703125 
Q 38.203125 61.40625 39.046875 58.59375 
Q 39.90625 55.796875 40.90625 53 
z
M 72.796875 61.09375 
Q 72 60.203125 71.453125 59.390625 
Q 70.90625 58.59375 70.296875 57.4375 
Q 69.703125 56.296875 68.953125 54.640625 
Q 68.203125 53 67 50.296875 
L 59.40625 52.90625 
Q 61.296875 56.796875 62.296875 59.296875 
Q 63.296875 61.796875 64 64.703125 
z
M 35.59375 -8.40625 
Q 36.296875 -5.09375 35.84375 -1.296875 
Q 35.40625 2.5 34.296875 5.40625 
L 42.90625 7.5 
Q 43.59375 4.09375 44.25 0.25 
Q 44.90625 -3.59375 45.296875 -6.796875 
z
M 58.09375 -8.40625 
Q 58.09375 -6.90625 57.796875 -5 
Q 57.5 -3.09375 57.09375 -1.140625 
Q 56.703125 0.796875 56.203125 2.546875 
Q 55.703125 4.296875 55.203125 5.703125 
L 63.296875 7.40625 
Q 64.09375 4.296875 65.09375 0.75 
Q 66.09375 -2.796875 67.09375 -6 
z
M 23.09375 6.296875 
Q 22.59375 4.796875 21.6875 2.6875 
Q 20.796875 0.59375 19.75 -1.59375 
Q 18.703125 -3.796875 17.59375 -5.84375 
Q 16.5 -7.90625 15.59375 -9.296875 
L 6.90625 -5.296875 
Q 9.703125 -2.40625 11.84375 1.296875 
Q 14 5 15.09375 9.09375 
z
M 82.296875 -9.09375 
Q 81.203125 -5.796875 79.140625 -1.59375 
Q 77.09375 2.59375 75.09375 6 
L 82.796875 9.09375 
Q 84.59375 5.796875 87 1.84375 
Q 89.40625 -2.09375 91.703125 -5.59375 
z
M 54.203125 47.09375 
L 76.796875 47.09375 
L 76.796875 68.40625 
L 54.203125 68.40625 
z
M 46.796875 68.40625 
L 24.796875 68.40625 
L 24.796875 47.09375 
L 46.796875 47.09375 
z
M 54.203125 19 
Q 66.796875 19 76.296875 19.140625 
Q 85.796875 19.296875 93 19.703125 
L 93 11.703125 
Q 85.296875 12 74.796875 12.140625 
Q 64.296875 12.296875 50.296875 12.296875 
Q 36.203125 12.296875 25.75 12.09375 
Q 15.296875 11.90625 7.59375 11.59375 
L 7.59375 19.703125 
Q 14.796875 19.296875 24.390625 19.140625 
Q 34 19 46.796875 19 
L 46.796875 26.59375 
Q 36.796875 26.59375 29.296875 26.4375 
Q 21.796875 26.296875 16.09375 25.90625 
L 16.09375 33.296875 
Q 21.90625 32.90625 29.34375 32.75 
Q 36.796875 32.59375 46.796875 32.59375 
L 46.796875 40.90625 
Q 36.5 40.90625 29.296875 40.75 
Q 22.09375 40.59375 16.40625 40.203125 
Q 16.796875 43.40625 16.9375 48.09375 
Q 17.09375 52.796875 17.09375 57.90625 
Q 17.09375 63 16.9375 67.703125 
Q 16.796875 72.40625 16.40625 75.59375 
Q 22.59375 75.203125 30.75 75.046875 
Q 38.90625 74.90625 50.90625 74.90625 
Q 62.90625 74.90625 71 75.046875 
Q 79.09375 75.203125 85.296875 75.59375 
Q 84.90625 72.40625 84.75 67.703125 
Q 84.59375 63 84.59375 57.90625 
Q 84.59375 51.90625 84.75 47.65625 
Q 84.90625 43.40625 85.296875 40.203125 
Q 79.5 40.59375 72.140625 40.75 
Q 64.796875 40.90625 54.203125 40.90625 
L 54.203125 32.59375 
Q 63.90625 32.59375 71.25 32.75 
Q 78.59375 32.90625 84.203125 33.296875 
L 84.203125 25.90625 
Q 78.59375 26.296875 71.25 26.4375 
Q 63.90625 26.59375 54.203125 26.59375 
z
" id="STHeitiTC-Medium-40657"/>
     <path d="M 46.203125 8.703125 
Q 39.59375 8.59375 34.9375 8.390625 
Q 30.296875 8.203125 26.5 7.703125 
L 26.5 15.203125 
Q 30.40625 14.703125 35 14.5 
Q 39.59375 14.296875 46.203125 14.203125 
Q 46.203125 21.59375 45.796875 23.203125 
Q 48 23 49.796875 23 
Q 51.59375 23 54.203125 23 
Q 55.40625 23 55.546875 22.75 
Q 55.703125 22.5 54.59375 22 
Q 54 21.703125 53.640625 21.046875 
Q 53.296875 20.40625 53.296875 19.90625 
L 53.296875 14.203125 
Q 59.90625 14.296875 64.40625 14.5 
Q 68.90625 14.703125 72.703125 15.203125 
L 72.703125 7.703125 
Q 68.90625 8.203125 64.40625 8.390625 
Q 59.90625 8.59375 53.296875 8.703125 
L 53.296875 -0.5 
Q 59.09375 -0.5 64 -0.453125 
Q 68.90625 -0.40625 73.09375 -0.25 
Q 77.296875 -0.09375 80.890625 0.046875 
Q 84.5 0.203125 87.703125 0.5 
L 87.703125 -7.203125 
Q 84.203125 -6.90625 80.34375 -6.75 
Q 76.5 -6.59375 71.890625 -6.4375 
Q 67.296875 -6.296875 61.84375 -6.25 
Q 56.40625 -6.203125 49.90625 -6.203125 
Q 43.40625 -6.203125 37.953125 -6.25 
Q 32.5 -6.296875 27.890625 -6.4375 
Q 23.296875 -6.59375 19.390625 -6.75 
Q 15.5 -6.90625 12.09375 -7.203125 
L 12.09375 0.5 
Q 15.296875 0.296875 18.890625 0.09375 
Q 22.5 -0.09375 26.640625 -0.25 
Q 30.796875 -0.40625 35.640625 -0.453125 
Q 40.5 -0.5 46.203125 -0.5 
z
M 40.90625 33.203125 
L 58.90625 33.203125 
L 58.90625 40 
L 40.90625 40 
z
M 40.90625 51.5 
L 40.90625 45 
L 58.90625 45 
L 58.90625 51.5 
z
M 40.90625 65 
L 40.90625 56.5 
L 58.90625 56.5 
L 58.90625 65 
z
M 47.703125 71 
Q 46.09375 75.703125 43.90625 79.703125 
L 53 81.296875 
Q 53.796875 78.703125 54.546875 76.296875 
Q 55.296875 73.90625 56.40625 71 
Q 63.90625 71 69.40625 71.046875 
Q 74.90625 71.09375 79 71.140625 
Q 83.09375 71.203125 86.046875 71.296875 
Q 89 71.40625 91.5 71.59375 
L 91.5 55.796875 
L 84.40625 55.796875 
L 84.40625 65 
L 65.296875 65 
L 65.296875 56.5 
Q 70.203125 56.59375 74.703125 56.796875 
Q 79.203125 57 81.796875 57.40625 
L 81.796875 50.703125 
Q 78.90625 51.09375 74.65625 51.25 
Q 70.40625 51.40625 65.296875 51.5 
L 65.296875 45 
Q 70.09375 45.09375 74.390625 45.296875 
Q 78.703125 45.5 81.296875 45.90625 
L 81.296875 39.203125 
Q 78.5 39.59375 74.390625 39.75 
Q 70.296875 39.90625 65.296875 40 
L 65.296875 33.203125 
Q 75 33.203125 81.203125 33.390625 
Q 87.40625 33.59375 91.40625 34.09375 
L 91.40625 27 
Q 90.09375 27.09375 88.25 27.296875 
Q 86.40625 27.5 83.40625 27.640625 
Q 80.40625 27.796875 76 27.890625 
Q 71.59375 28 65.296875 28 
Q 68.703125 25.5 72 23.703125 
Q 75.296875 21.90625 78.75 20.703125 
Q 82.203125 19.5 86 18.796875 
Q 89.796875 18.09375 94.296875 17.703125 
Q 92.90625 15.59375 92.046875 13.390625 
Q 91.203125 11.203125 90.5 8.296875 
Q 84.703125 10.203125 79.890625 12.34375 
Q 75.09375 14.5 71.140625 16.890625 
Q 67.203125 19.296875 63.84375 22.046875 
Q 60.5 24.796875 57.5 28 
L 40.203125 28 
Q 34.90625 21.796875 27.703125 16.84375 
Q 20.5 11.90625 10.796875 7.09375 
Q 10 8.90625 8.796875 10.5 
Q 7.59375 12.09375 5.703125 14 
Q 13.703125 16.296875 20.203125 19.546875 
Q 26.703125 22.796875 32.296875 27.796875 
Q 27.203125 27.796875 23.59375 27.6875 
Q 20 27.59375 17.296875 27.5 
Q 14.59375 27.40625 12.546875 27.25 
Q 10.5 27.09375 8.5 27 
L 8.5 34.09375 
Q 13.296875 33.59375 19.59375 33.390625 
Q 25.90625 33.203125 34.59375 33.203125 
L 34.59375 40 
Q 29.796875 39.90625 26 39.703125 
Q 22.203125 39.5 18.703125 39.203125 
L 18.703125 45.90625 
Q 25.09375 45.09375 34.59375 45 
L 34.59375 51.5 
Q 30 51.40625 26.25 51.203125 
Q 22.5 51 19.203125 50.703125 
L 19.203125 57.40625 
Q 25.5 56.59375 34.59375 56.5 
L 34.59375 65 
L 17.40625 65 
L 17.40625 54.796875 
L 10.296875 54.796875 
L 10.296875 71.59375 
Q 12.90625 71.40625 16 71.296875 
Q 19.09375 71.203125 23.4375 71.140625 
Q 27.796875 71.09375 33.6875 71.046875 
Q 39.59375 71 47.703125 71 
z
" id="STHeitiTC-Medium-22622"/>
    </defs>
    <g transform="translate(26.981087 162.203721)scale(0.1 -0.1)">
     <use xlink:href="#STHeitiTC-Medium-36203"/>
     <use x="99.999985" xlink:href="#STHeitiTC-Medium-23572"/>
     <use x="199.999969" xlink:href="#STHeitiTC-Medium-26364"/>
     <use x="299.999954" xlink:href="#STHeitiTC-Medium-183"/>
     <use x="399.999939" xlink:href="#STHeitiTC-Medium-40657"/>
     <use x="499.999924" xlink:href="#STHeitiTC-Medium-22622"/>
    </g>
   </g>
   <g id="text_12">
    <!-- 2.3% -->
    <g transform="translate(145.135424 171.212805)scale(0.1 -0.1)">
     <use xlink:href="#STHeitiTC-Medium-50"/>
     <use x="55.399994" xlink:href="#STHeitiTC-Medium-46"/>
     <use x="83.099991" xlink:href="#STHeitiTC-Medium-51"/>
     <use x="138.499985" xlink:href="#STHeitiTC-Medium-37"/>
    </g>
   </g>
   <g id="text_13">
    <!-- 当年明月 -->
    <defs>
     <path d="M 29 49.09375 
Q 27.796875 51.09375 25.9375 53.796875 
Q 24.09375 56.5 22.140625 59.203125 
Q 20.203125 61.90625 18.25 64.203125 
Q 16.296875 66.5 15 67.796875 
L 21.796875 72.09375 
Q 25.59375 67.703125 29.546875 62.953125 
Q 33.5 58.203125 36.59375 54.203125 
z
M 87.296875 67.90625 
Q 88 67.59375 87.890625 67.1875 
Q 87.796875 66.796875 86.5 66.296875 
Q 85.90625 66.09375 85 65.390625 
Q 84.09375 64.703125 82.25 62.890625 
Q 80.40625 61.09375 77.34375 57.75 
Q 74.296875 54.40625 69.59375 49 
Q 68.09375 50.59375 66.59375 51.6875 
Q 65.09375 52.796875 63.40625 53.703125 
Q 66.5 57.09375 68.796875 59.796875 
Q 71.09375 62.5 72.75 64.796875 
Q 74.40625 67.09375 75.65625 69.296875 
Q 76.90625 71.5 77.90625 73.90625 
Q 78.796875 73.09375 80.09375 72.1875 
Q 81.40625 71.296875 82.75 70.4375 
Q 84.09375 69.59375 85.296875 68.890625 
Q 86.5 68.203125 87.296875 67.90625 
z
M 76.796875 37.09375 
L 30.703125 37.09375 
Q 25.5 37.09375 21.5 36.796875 
Q 17.5 36.5 13.09375 36 
L 13.09375 44.59375 
Q 16.59375 44.203125 24.390625 43.890625 
Q 32.203125 43.59375 45.59375 43.5 
L 45.59375 63.09375 
Q 45.59375 68.796875 45.390625 72.84375 
Q 45.203125 76.90625 45 79.5 
Q 46 79.296875 47.59375 79.140625 
Q 49.203125 79 50.75 78.953125 
Q 52.296875 78.90625 53.640625 78.90625 
Q 55 78.90625 55.59375 78.90625 
Q 58.203125 79 56.296875 77.40625 
Q 55.59375 76.796875 55 74.9375 
Q 54.40625 73.09375 54.40625 70.5 
L 54.40625 43.5 
Q 66.796875 43.59375 74.4375 43.890625 
Q 82.09375 44.203125 85.703125 44.59375 
Q 85.5 41.796875 85.390625 37.9375 
Q 85.296875 34.09375 85.296875 29 
L 85.296875 6.40625 
Q 85.296875 1.203125 85.390625 -3.140625 
Q 85.5 -7.5 85.90625 -11.5 
L 76.796875 -11.5 
L 76.796875 -4.5 
L 26.796875 -4.5 
Q 22.203125 -4.5 18.546875 -4.640625 
Q 14.90625 -4.796875 12 -5.203125 
L 12 3.40625 
Q 14.90625 3 18.546875 2.84375 
Q 22.203125 2.703125 26.796875 2.703125 
L 76.796875 2.703125 
L 76.796875 16.703125 
L 30.5 16.703125 
Q 26.09375 16.703125 22.34375 16.546875 
Q 18.59375 16.40625 15.703125 16.203125 
L 15.703125 24 
Q 18.59375 23.796875 22.34375 23.640625 
Q 26.09375 23.5 30.5 23.5 
L 76.796875 23.5 
z
" id="STHeitiTC-Medium-24403"/>
     <path d="M 30.59375 37.40625 
L 30.59375 19.90625 
L 50 19.90625 
L 50 37.40625 
z
M 58 66.90625 
Q 68.703125 66.90625 75.890625 67.046875 
Q 83.09375 67.203125 88.59375 67.703125 
L 88.59375 58.796875 
Q 83 59.203125 75.890625 59.390625 
Q 68.796875 59.59375 58.5 59.59375 
L 58.5 44.09375 
Q 66.296875 44.203125 72.390625 44.34375 
Q 78.5 44.5 83.90625 44.90625 
L 83.90625 36.59375 
Q 78.203125 36.90625 71.953125 37.09375 
Q 65.703125 37.296875 58.5 37.40625 
L 58.5 19.90625 
Q 67.296875 19.90625 73.34375 19.953125 
Q 79.40625 20 83.453125 20.09375 
Q 87.5 20.203125 90.046875 20.390625 
Q 92.59375 20.59375 94.59375 20.796875 
L 94.59375 11.796875 
Q 92.796875 12 90.546875 12.140625 
Q 88.296875 12.296875 84.34375 12.390625 
Q 80.40625 12.5 74.203125 12.59375 
Q 68 12.703125 58.5 12.703125 
Q 58.5 5.796875 58.640625 -0.046875 
Q 58.796875 -5.90625 59.296875 -12 
L 49.203125 -12 
Q 49.703125 -5.796875 49.84375 0 
Q 50 5.796875 50 12.703125 
Q 38.90625 12.703125 31.34375 12.640625 
Q 23.796875 12.59375 18.796875 12.4375 
Q 13.796875 12.296875 10.6875 12.140625 
Q 7.59375 12 5.40625 11.796875 
L 5.40625 20.796875 
Q 8.796875 20.40625 13.09375 20.25 
Q 17.40625 20.09375 22.5 20 
L 22.5 35.703125 
Q 22.5 40.796875 21.796875 44.90625 
Q 27.90625 44.40625 34.65625 44.25 
Q 41.40625 44.09375 50 44.09375 
L 50 59.59375 
L 28.703125 59.59375 
Q 25.59375 54.296875 22.59375 50.046875 
Q 19.59375 45.796875 17.09375 42.796875 
Q 15.59375 43.90625 13.34375 44.796875 
Q 11.09375 45.703125 8.40625 46.5 
Q 11.59375 49.5 14.6875 53.5 
Q 17.796875 57.5 20.59375 62 
Q 23.40625 66.5 25.65625 71.25 
Q 27.90625 76 29.40625 80.5 
Q 32.296875 79.40625 34.4375 78.703125 
Q 36.59375 78 38.203125 77.59375 
Q 40.203125 77.09375 40.453125 76.6875 
Q 40.703125 76.296875 39.203125 75.5 
Q 38.796875 75.296875 38.296875 74.796875 
Q 37.796875 74.296875 37.046875 73.34375 
Q 36.296875 72.40625 35.25 70.84375 
Q 34.203125 69.296875 32.796875 66.90625 
z
" id="STHeitiTC-Medium-24180"/>
     <path d="M 58.59375 22.90625 
Q 58 14 54.25 5.703125 
Q 50.5 -2.59375 42.40625 -10.796875 
Q 40.40625 -8.796875 38.40625 -7.390625 
Q 36.40625 -6 33.796875 -4.59375 
Q 39.203125 -1 42.5 3.59375 
Q 45.796875 8.203125 47.640625 13.09375 
Q 49.5 18 50.09375 22.84375 
Q 50.703125 27.703125 50.703125 31.90625 
L 50.703125 62 
Q 50.703125 66.59375 50.59375 69.59375 
Q 50.5 72.59375 50.203125 74.59375 
Q 54.59375 74.40625 59 74.296875 
Q 63.40625 74.203125 69.5 74.203125 
Q 75.703125 74.203125 80.09375 74.296875 
Q 84.5 74.40625 89 74.59375 
Q 88.59375 72.59375 88.5 69.59375 
Q 88.40625 66.59375 88.40625 62 
L 88.40625 -1.296875 
Q 88.40625 -3.09375 87.90625 -4.390625 
Q 87.40625 -5.703125 85.703125 -6.75 
Q 84 -7.796875 80.546875 -8.59375 
Q 77.09375 -9.40625 71.296875 -10 
Q 71.09375 -7.59375 70.09375 -4.890625 
Q 69.09375 -2.203125 66.90625 0.09375 
Q 71.296875 -0.296875 73.890625 -0.140625 
Q 76.5 0 77.84375 0.59375 
Q 79.203125 1.203125 79.59375 2.25 
Q 80 3.296875 80 4.703125 
L 80 22.90625 
z
M 80 66.796875 
L 58.796875 66.796875 
L 58.796875 52 
L 80 52 
z
M 58.796875 30.09375 
L 80 30.09375 
L 80 44.59375 
L 58.796875 44.59375 
z
M 32.59375 66.09375 
L 19.5 66.09375 
L 19.5 48.296875 
L 32.59375 48.296875 
z
M 32.59375 41.203125 
L 19.5 41.203125 
L 19.5 22.09375 
L 32.59375 22.09375 
z
M 19.5 1.40625 
L 10.90625 1.40625 
Q 11.203125 8 11.203125 15 
L 11.203125 64 
Q 11.203125 66.59375 11.203125 69.390625 
Q 11.203125 72.203125 11.09375 74.09375 
Q 12.90625 73.59375 16.34375 73.4375 
Q 19.796875 73.296875 26 73.296875 
Q 32.203125 73.296875 35.546875 73.4375 
Q 38.90625 73.59375 40.59375 74.09375 
Q 40.40625 72.203125 40.34375 69.390625 
Q 40.296875 66.59375 40.296875 64 
L 40.296875 22 
Q 40.296875 18.5 40.4375 15.203125 
Q 40.59375 11.90625 40.796875 8.703125 
L 32.59375 8.703125 
L 32.59375 14.90625 
L 19.5 14.90625 
z
" id="STHeitiTC-Medium-26126"/>
     <path d="M 38 23.796875 
Q 37.203125 13.203125 33.546875 5 
Q 29.90625 -3.203125 22.796875 -10.296875 
Q 20.796875 -8.09375 18.4375 -6.796875 
Q 16.09375 -5.5 13.09375 -4.703125 
Q 17.59375 -1.296875 20.75 2.59375 
Q 23.90625 6.5 25.90625 11.546875 
Q 27.90625 16.59375 28.796875 23.09375 
Q 29.703125 29.59375 29.703125 38.203125 
L 29.703125 62.203125 
Q 29.703125 67 29.59375 70 
Q 29.5 73 29.296875 75.203125 
Q 31.09375 75.09375 33.25 75 
Q 35.40625 74.90625 38.65625 74.84375 
Q 41.90625 74.796875 46.546875 74.796875 
Q 51.203125 74.796875 58.09375 74.796875 
Q 65 74.796875 69.703125 74.796875 
Q 74.40625 74.796875 77.59375 74.84375 
Q 80.796875 74.90625 82.9375 75 
Q 85.09375 75.09375 86.796875 75.203125 
Q 86.59375 73 86.5 70 
Q 86.40625 67 86.40625 62.203125 
L 86.40625 3.5 
Q 86.40625 -0.296875 86 -2.546875 
Q 85.59375 -4.796875 83.890625 -6.09375 
Q 82.203125 -7.40625 78.796875 -8.09375 
Q 75.40625 -8.796875 69.296875 -9.40625 
Q 69.296875 -6.5 68.25 -3.796875 
Q 67.203125 -1.09375 64.90625 1.703125 
Q 69.40625 0.90625 71.84375 0.703125 
Q 74.296875 0.5 75.4375 1.25 
Q 76.59375 2 76.84375 3.890625 
Q 77.09375 5.796875 77.09375 9.296875 
L 77.09375 23.796875 
z
M 77.09375 52.796875 
L 77.09375 67.296875 
L 38.296875 67.296875 
L 38.296875 52.796875 
z
M 38.296875 45.796875 
L 38.296875 31.09375 
L 77.09375 31.09375 
L 77.09375 45.796875 
z
" id="STHeitiTC-Medium-26376"/>
    </defs>
    <g transform="translate(45.702481 183.83055)scale(0.1 -0.1)">
     <use xlink:href="#STHeitiTC-Medium-24403"/>
     <use x="99.999985" xlink:href="#STHeitiTC-Medium-24180"/>
     <use x="199.999969" xlink:href="#STHeitiTC-Medium-26126"/>
     <use x="299.999954" xlink:href="#STHeitiTC-Medium-26376"/>
    </g>
   </g>
   <g id="text_14">
    <!-- 2.3% -->
    <g transform="translate(144.438003 183.009257)scale(0.1 -0.1)">
     <use xlink:href="#STHeitiTC-Medium-50"/>
     <use x="55.399994" xlink:href="#STHeitiTC-Medium-46"/>
     <use x="83.099991" xlink:href="#STHeitiTC-Medium-51"/>
     <use x="138.499985" xlink:href="#STHeitiTC-Medium-37"/>
    </g>
   </g>
   <g id="text_15">
    <!-- Others -->
    <defs>
     <path d="M 43 81 
Q 53.703125 81 62.703125 75.953125 
Q 71.703125 70.90625 76.84375 62 
Q 82 53.09375 82 42.640625 
Q 82 32.203125 76.890625 23.296875 
Q 71.796875 14.40625 62.890625 9.296875 
Q 54 4.203125 43.546875 4.203125 
Q 33.09375 4.203125 24.09375 9.25 
Q 15.09375 14.296875 10 23.140625 
Q 4.90625 32 4.90625 42.453125 
Q 4.90625 52.90625 10 61.84375 
Q 15.09375 70.796875 23.9375 75.890625 
Q 32.796875 81 43 81 
z
M 43.296875 12.59375 
Q 55.796875 12.59375 64.4375 21.09375 
Q 73.09375 29.59375 73.09375 42.390625 
Q 73.09375 55.203125 64.34375 63.890625 
Q 55.59375 72.59375 43.296875 72.59375 
Q 30.703125 72.59375 22.25 63.84375 
Q 13.796875 55.09375 13.796875 42.546875 
Q 13.796875 30 22.5 21.296875 
Q 31.203125 12.59375 43.296875 12.59375 
z
" id="STHeitiTC-Medium-79"/>
     <path d="M 32 53.296875 
L 21.203125 53.296875 
L 21.203125 15.09375 
Q 21.203125 13 21.796875 12.546875 
Q 22.40625 12.09375 24.796875 12.09375 
L 29.59375 12.09375 
L 29.59375 5 
Q 24.796875 4.203125 22.296875 4.203125 
Q 17.5 4.203125 15.203125 6.546875 
Q 12.90625 8.90625 12.90625 14 
L 12.90625 53.296875 
L 3.5 53.296875 
L 3.5 60.5 
L 12.90625 60.5 
L 12.90625 81 
L 21.203125 81 
L 21.203125 60.5 
L 32 60.5 
z
" id="STHeitiTC-Medium-116"/>
     <path d="M 54.703125 6 
L 46.40625 6 
L 46.40625 32 
Q 46.40625 39.59375 45.953125 42.6875 
Q 45.5 45.796875 43.890625 48.546875 
Q 42.296875 51.296875 39.546875 52.75 
Q 36.796875 54.203125 32.9375 54.203125 
Q 29.09375 54.203125 25.59375 52.390625 
Q 22.09375 50.59375 19.59375 47.390625 
Q 17.09375 44.203125 16.140625 40.59375 
Q 15.203125 37 15.203125 26.203125 
L 15.203125 6 
L 6.90625 6 
L 6.90625 81 
L 15.203125 81 
L 15.203125 52.296875 
Q 23.296875 61.90625 34.40625 61.90625 
Q 40.296875 61.90625 45.09375 58.84375 
Q 49.90625 55.796875 52.296875 50.4375 
Q 54.703125 45.09375 54.703125 34 
z
" id="STHeitiTC-Medium-104"/>
     <path d="M 60.59375 31.796875 
L 12.796875 31.796875 
Q 13.296875 22.796875 18.84375 17.34375 
Q 24.40625 11.90625 32.09375 11.90625 
Q 45.203125 11.90625 52.09375 24.796875 
L 59.09375 21.203125 
Q 54.40625 12.5 48 8.34375 
Q 41.59375 4.203125 32.703125 4.203125 
Q 20.40625 4.203125 12.40625 12.640625 
Q 4.40625 21.09375 4.40625 33 
Q 4.40625 44.90625 12.453125 53.40625 
Q 20.5 61.90625 32.390625 61.90625 
Q 44.296875 61.90625 52.296875 53.84375 
Q 60.296875 45.796875 60.59375 31.796875 
z
M 51.40625 39.09375 
Q 49.90625 46.09375 44.59375 50 
Q 39.296875 53.90625 32.40625 53.90625 
Q 18.40625 53.90625 13.796875 39.09375 
z
" id="STHeitiTC-Medium-101"/>
     <path d="M 29.90625 59.703125 
L 25.59375 52.703125 
Q 23.90625 53.59375 22.296875 53.59375 
Q 19.203125 53.59375 16.703125 50.546875 
Q 14.203125 47.5 12.953125 42.546875 
Q 11.703125 37.59375 11.703125 24.703125 
L 11.703125 6 
L 3.296875 6 
L 3.296875 60.5 
L 11.703125 60.5 
L 11.703125 54.59375 
Q 14.203125 58.296875 16.75 60.09375 
Q 19.296875 61.90625 22.546875 61.90625 
Q 25.796875 61.90625 29.90625 59.703125 
z
" id="STHeitiTC-Medium-114"/>
     <path d="M 35.296875 54.09375 
L 30 48.59375 
Q 24.09375 54.09375 19.203125 54.09375 
Q 16.09375 54.09375 14 52.140625 
Q 11.90625 50.203125 11.90625 47.34375 
Q 11.90625 44.5 14.25 42.34375 
Q 16.59375 40.203125 22.59375 37.046875 
Q 28.59375 33.90625 31.84375 30.09375 
Q 35.09375 26.296875 35.09375 20.796875 
Q 35.09375 13.796875 30.25 9 
Q 25.40625 4.203125 18.296875 4.203125 
Q 8.40625 4.203125 1.796875 12.59375 
L 7 18.40625 
Q 12.40625 12.09375 18 12.09375 
Q 21.796875 12.09375 24.5 14.59375 
Q 27.203125 17.09375 27.203125 20.4375 
Q 27.203125 23.796875 24.75 26.046875 
Q 22.296875 28.296875 16.34375 31.296875 
Q 10.40625 34.296875 7.34375 37.9375 
Q 4.296875 41.59375 4.296875 47.546875 
Q 4.296875 53.5 8.640625 57.703125 
Q 13 61.90625 20.140625 61.90625 
Q 27.296875 61.90625 35.296875 54.09375 
z
" id="STHeitiTC-Medium-115"/>
    </defs>
    <g transform="translate(351.241136 285.641387)scale(0.1 -0.1)">
     <use xlink:href="#STHeitiTC-Medium-79"/>
     <use x="86.899994" xlink:href="#STHeitiTC-Medium-116"/>
     <use x="120.799988" xlink:href="#STHeitiTC-Medium-104"/>
     <use x="181.799973" xlink:href="#STHeitiTC-Medium-101"/>
     <use x="246.799957" xlink:href="#STHeitiTC-Medium-114"/>
     <use x="276.899948" xlink:href="#STHeitiTC-Medium-115"/>
    </g>
   </g>
   <g id="text_16">
    <!-- 73.7% -->
    <g transform="translate(286.506957 238.542441)scale(0.1 -0.1)">
     <use xlink:href="#STHeitiTC-Medium-55"/>
     <use x="55.399994" xlink:href="#STHeitiTC-Medium-51"/>
     <use x="110.799988" xlink:href="#STHeitiTC-Medium-46"/>
     <use x="138.499985" xlink:href="#STHeitiTC-Medium-55"/>
     <use x="193.899979" xlink:href="#STHeitiTC-Medium-37"/>
    </g>
   </g>
  </g>
 </g>
</svg>
